<?xml version="1.0" standalone="no"?>
<!DOCTYPE svg PUBLIC "-//W3C//DTD SVG 1.1//EN" "http://www.w3.org/Graphics/SVG/1.1/DTD/svg11.dtd" >
<svg>
<metadata>
Created by FontForge 20090914 at Sun Sep  6 16:56:33 2020
 By www-data
1998 by Boba Fonts - Davide Canavero - canavero@pianeta.net
</metadata>
<defs>
<font id="StarJediOutline" horiz-adv-x="0" >
  <font-face 
    font-family="Star Jedi Outline"
    font-weight="400"
    font-stretch="normal"
    units-per-em="2048"
    panose-1="4 11 0 0 0 0 0 0 0 0"
    ascent="1638"
    descent="-410"
    x-height="1444"
    cap-height="1444"
    bbox="-1936 -707.997 5603 2560"
    underline-thickness="50"
    underline-position="-75"
    unicode-range="U+0020-U+201D"
  />
<missing-glyph horiz-adv-x="3072" 
d="M512 0v2560h2048v-2560h-2048zM2494 66v2428h-1916v-2428h1916z" />
    <glyph glyph-name=".notdef" horiz-adv-x="3072" 
d="M512 0v2560h2048v-2560h-2048zM2494 66v2428h-1916v-2428h1916z" />
    <glyph glyph-name="space" unicode=" " horiz-adv-x="950" 
 />
    <glyph glyph-name="exclam" unicode="!" horiz-adv-x="872" 
d="M162 1444h549l-80 -909h-389zM213 385h446v-385h-446v385zM325 270h216v-150h-216v150zM292 1324h279l-49 -677h-182zM228 1384l73 -789h271l71 789h-415zM273 325v-265h326v265h-326z" />
    <glyph glyph-name="quotedbl" unicode="&#x22;" horiz-adv-x="1139" 
d="M635 813v631h307v-631h-307zM699 875h187v511h-187v-511zM197 813v631h307v-631h-307zM753 941v392h82v-392h-82zM257 873h187v511h-187v-511zM313 933v392h82v-392h-82z" />
    <glyph glyph-name="numbersign" unicode="#" 
d="M-60 1074h180v-60h-180v60zM-60 1324h180v-190h-180v190zM-60 1444h180v-60h-180v60z" />
    <glyph glyph-name="dollar" unicode="$" 
d="M-60 60h180v-60h-180v60zM-60 430h180v-60h-180v60zM-60 310h180v-190h-180v190z" />
    <glyph glyph-name="percent" unicode="%" 
d="M60 1384h60v-310h-60v310z" />
    <glyph glyph-name="ampersand" unicode="&#x26;" 
d="M-60 1384h60v-310h-60v310z" />
    <glyph glyph-name="quotesingle" unicode="'" horiz-adv-x="647" 
d="M170 813v631h307v-631h-307zM287 921v410h86v-410h-86zM233 875h187v511h-187v-511z" />
    <glyph glyph-name="parenleft" unicode="(" horiz-adv-x="758" 
d="M528 20l-119.999 0.000976562c-45.333 64 -82.666 138.667 -111.999 224s-54 175.333 -74 270s-31.333 198 -34 310c0 264 74.667 530.667 224 800h128c-45.333 -98.667 -77.333 -179.334 -96 -242.001s-32.667 -122 -42 -178s-18 -117.333 -26 -184
s-13.333 -132 -16 -196c-2.66699 -90.667 -1.33398 -168 3.99902 -232s14 -122 26 -174s26.667 -108 44 -168s48.666 -136.667 93.999 -230zM717.001 -104.999l-374.996 0.00390625c-56.667 94.667 -105.834 193.167 -147.501 295.5s-73.834 206.166 -96.501 311.499
s-34 211.666 -34 318.999c0 302.667 92.667 612 278 928h375c-38.667 -71.333 -72.334 -144 -101.001 -218s-52.834 -150.833 -72.501 -230.5s-34.167 -159.5 -43.5 -239.5s-14 -160 -14 -240c0 -79.333 4.83301 -159.333 14.5 -240s24 -160.334 43 -239.001
s42.833 -154.834 71.5 -228.501s62.667 -146.5 102 -218.5zM616.005 -43.9951c-45.333 88 -77.998 165.334 -97.998 232.001s-37.333 132 -52 196s-25.334 133.333 -32.001 208s-11.334 152 -14.001 232c5.33301 72 11.333 144.667 18 218s17.334 144 32.001 212
s32.667 135.333 54 202s50.666 144 87.999 232h-232c-168 -296 -251 -584 -249 -864c-2 -112 9 -217.333 33 -316s52 -191.334 84 -278.001s76 -178 132 -274h236z" />
    <glyph glyph-name="parenright" unicode=")" horiz-adv-x="758" 
d="M253 20l119.999 0.000976562c45.333 64 82.666 138.667 111.999 224s54 175.333 74 270s31.333 198 34 310c0 264 -74.667 530.667 -224 800h-128c45.333 -98.667 77.333 -179.334 96 -242.001s32.667 -122 42 -178s18 -117.333 26 -184s13.333 -132 16 -196
c2.66699 -90.667 1.33398 -168 -3.99902 -232s-14 -122 -26 -174s-26.667 -108 -44 -168s-48.666 -136.667 -93.999 -230zM63.999 -104.999l374.996 0.00390625c56.667 94.667 105.834 193.167 147.501 295.5s73.834 206.166 96.501 311.499s34 211.666 34 318.999
c0 302.667 -92.667 612 -278 928h-375c38.667 -71.333 72.334 -144 101.001 -218s52.834 -150.833 72.501 -230.5s34.167 -159.5 43.5 -239.5s14 -160 14 -240c0 -79.333 -4.83301 -159.333 -14.5 -240s-24 -160.334 -43 -239.001s-42.833 -154.834 -71.5 -228.501
s-62.667 -146.5 -102 -218.5zM164.995 -43.9951c45.333 88 77.998 165.334 97.998 232.001s37.333 132 52 196s25.334 133.333 32.001 208s11.334 152 14.001 232c-5.33301 72 -11.333 144.667 -18 218s-17.334 144 -32.001 212s-32.667 135.333 -54 202
s-50.666 144 -87.999 232h232c168 -296 251 -584 249 -864c2 -112 -9 -217.333 -33 -316s-52 -191.334 -84 -278.001s-76 -178 -132 -274h-236z" />
    <glyph glyph-name="asterisk" unicode="*" 
d="M-60 370h60v-310h-60v310z" />
    <glyph glyph-name="plus" unicode="+" horiz-adv-x="1456" 
d="M0 1444h1516v-60h-1516v60zM1516 1014h-1516v60h1516v-60zM0 1324h1516v-190h-1516v190z" />
    <glyph glyph-name="comma" unicode="," horiz-adv-x="758" 
d="M188 397h435l-236 -630h-326zM256 312h234l-164 -464h-158zM226 354l-104 -544h226l204 544h-326z" />
    <glyph glyph-name="hyphen" unicode="-" horiz-adv-x="758" 
d="M198 483v148h367v-148h-367zM92 377v360h574v-360h-574zM152 437h454v240h-454v-240z" />
    <glyph glyph-name="period" unicode="." horiz-adv-x="758" 
d="M272 106v189h221v-189h-221zM156 0v397h446v-397h-446zM216 60h326v277h-326v-277z" />
    <glyph glyph-name="slash" unicode="/" horiz-adv-x="758" 
d="M518 1468h363l-641 -1493h-363zM45 80l547 1274h122l-549 -1274h-120zM-24 32h220l592 1376h-224z" />
    <glyph glyph-name="zero" unicode="0" horiz-adv-x="1516" 
d="M178 721c0 89.333 12.5 172.33 37.5 248.997s62 143.334 111 200.001s110 100.334 183 131.001s157.167 46 252.5 46c88.667 0 169 -14.833 241 -44.5s133.167 -72 183.5 -127s89 -121.167 116 -198.5s40.5 -162.666 40.5 -255.999c0 -126.667 -22.333 -237 -67 -331
s-111 -167.167 -199 -219.5s-193 -78.5 -315 -78.5c-123.333 0 -229 26.333 -317 79s-154.5 126.5 -199.5 221.5s-67.5 204.5 -67.5 328.5zM507 718.997c0 -84.667 1.6709 -153.667 5.00391 -207s12.666 -102 27.999 -146s41.166 -79.833 77.499 -107.5
s85.166 -41.5 146.499 -41.5c76 0 132.667 22.667 170 68s60.166 101 68.499 167s12.5 155 12.5 267c0 119.333 -4.16699 212 -12.5 278s-31 120.333 -68 163s-93.833 64 -170.5 64c-80.667 0 -140 -21.5 -178 -64.5s-60.667 -97.333 -68 -163s-11 -158.167 -11 -277.5z
M47.0039 720.997c0 108 15.498 207.501 46.498 298.501s76.667 170.333 137 238s134.833 119.667 223.5 156s190.667 54.5 306 54.5c108.667 0 206.834 -17.333 294.501 -52s162.334 -85.167 224.001 -151.5s108.667 -145.333 141 -237s48.5 -193.834 48.5 -306.501
c0 -150 -27 -281.167 -81 -393.5s-134.5 -199.166 -241.5 -260.499s-235.5 -92 -385.5 -92c-149.333 0 -277.833 31.167 -385.5 93.5s-189.167 150.166 -244.5 263.499s-83 243 -83 389zM623.002 723.998c0 -64.667 0.833984 -118 2.50098 -160s6.66699 -80.167 15 -114.5
s22.333 -62.333 42 -84s45.5 -32.5 77.5 -32.5c43.333 0 75 17.667 95 53s31.833 78.833 35.5 130.5s5.5 121.5 5.5 209.5c0 92 -1.83301 164.167 -5.5 216.5s-15.334 94.833 -35.001 127.5s-51.5 49 -95.5 49c-42.667 0 -74.167 -16.5 -94.5 -49.5
s-32.5 -75.5 -36.5 -127.5s-6 -124.667 -6 -218zM115.003 724.998c0 -134.667 25.001 -254 75.001 -358s124 -184.667 222 -242s215 -86 351 -86s252.833 28.333 350.5 85s171 136.5 220 239.5s73.5 223.5 73.5 361.5c0 102.667 -14.667 196 -44 280s-72 156.333 -128 217
s-124 107.167 -204 139.5s-169.333 48.5 -268 48.5c-105.333 0 -198.333 -16.833 -279 -50.5s-148.334 -81.5 -203.001 -143.5s-96 -134.667 -124 -218s-42 -174.333 -42 -273zM556.004 720.998c0 107.333 3.00391 190.497 9.00391 249.497s24 108 54 147s77 58.5 141 58.5
c61.333 0 106.666 -19.333 135.999 -58s47.166 -87.667 53.499 -147s9.5 -142.666 9.5 -249.999c0 -101.333 -3.16699 -181.666 -9.5 -240.999s-24.333 -109.333 -54 -150s-74.834 -61 -135.501 -61c-48.667 0 -87.334 12.333 -116.001 37s-49.167 56.834 -61.5 96.501
s-19.833 83.5 -22.5 131.5s-4 110.333 -4 187z" />
    <glyph glyph-name="one" unicode="1" horiz-adv-x="1065" 
d="M119 705l-146 376l539 363h440v-1444h-516v938zM536 1328h300v-1200h-284v1012l-386 -278l-66 174zM524 1384l-484 -327l106 -270l350 257v-984h396v1324h-368z" />
    <glyph glyph-name="two" unicode="2" horiz-adv-x="1212" 
d="M586 348h585.001v-348h-1130v406c157.333 78.667 296.666 157 417.999 235c60.667 42 108.5 83.333 143.5 124s52.5 88 52.5 142c0 69.333 -25.667 120.166 -77 152.499s-114.333 48.5 -189 48.5c-118 0 -224.333 -20.333 -319 -61v376c76 14 151.333 25 226 33
s150 12 226 12c183.333 0 337.333 -36 462 -108s187 -193.667 187 -365c0 -78 -17.5 -149.667 -52.5 -215s-80.167 -123.166 -135.5 -173.499s-112.333 -93.5 -171 -129.5s-134 -77.667 -226 -125v-4zM182.001 1334c153.333 17.333 267.33 26.001 341.997 26.001
c154.667 -6.66699 277.667 -36.667 369 -90s147 -144.666 167 -273.999c-2.66699 -72 -18 -132.333 -46 -181s-63 -93.334 -105 -134.001s-87.333 -79 -136 -115s-195.667 -128 -441 -276v-46l727 -1v-135h-905v240c114.667 60 234.667 133.333 360 220
c69.333 44 127.333 89.667 174 137s71.334 115 74.001 203c-1.33301 106.667 -34.666 184.667 -99.999 234s-156.666 74.666 -273.999 75.999c-116 -4 -184.667 -13.333 -206 -28v144zM129.998 1375l0.00195312 -249.999c55.333 25.333 141.666 39.666 258.999 42.999
c95.333 -4 171.333 -25.667 228 -65s89.334 -104.666 98.001 -195.999c-7.33301 -71.333 -30.333 -129 -69 -173s-91 -88 -157 -132c-124.667 -82.667 -254 -158.334 -388 -227.001v-315h1010v228h-727c220 117.333 357 195 411 233s104.333 80 151 126
s85.667 96.5 117 151.5s47.333 120.5 48 196.5c-12.667 150 -72.334 255.667 -179.001 317s-243.334 93.333 -410.001 96c-75.333 0 -206 -11 -392 -33z" />
    <glyph glyph-name="three" unicode="3" horiz-adv-x="1212" 
d="M223 567v316.001c52 -2.66699 90.333 -4 115 -4c46.667 0 88.667 2 126 6s71.333 15 102 33s46 45.667 46 83c0 52.667 -20.333 90.167 -61 112.5s-90 33.5 -148 33.5s-117.833 -5.66699 -179.5 -17s-117.167 -24.666 -166.5 -39.999v323
c63.333 20 133.333 34.167 210 42.5s163.667 12.5 261 12.5c74.667 0 147.667 -7.33301 219 -22s137.666 -37.834 198.999 -69.501s110.5 -73.834 147.5 -126.501s55.5 -115 55.5 -187c0 -164 -91.667 -272.667 -275 -326v-4c196.667 -51.333 295 -162.666 295 -333.999
c0 -98.667 -30.5 -179.667 -91.5 -243s-139.167 -109.333 -234.5 -138s-196.666 -43 -303.999 -43c-82 0 -169.167 5.5 -261.5 16.5s-170.5 25.5 -234.5 43.5v336c46.667 -16 103.167 -30 169.5 -42s129.833 -18 190.5 -18c72.667 0 129.167 9.16699 169.5 27.5
s60.5 52.166 60.5 101.499c0 54.667 -23.5 92 -70.5 112s-101.5 30 -163.5 30c-42 0 -100.667 -5 -176 -15zM166 1329c22 9.33301 65.001 18.5029 129.001 27.5029s142 12.167 234 9.5c56.667 0.666992 118.167 -6.16602 184.5 -20.499s122.833 -32.5 169.5 -54.5
s84 -52 112 -90s42.667 -84.333 44 -139c-2.66699 -130.667 -87.667 -233 -255 -307v-35c172 -85.333 263.333 -192 274 -320c-5.33301 -76 -28.5 -133.333 -69.5 -172s-97.667 -70.834 -170 -96.501s-165.166 -42.5 -278.499 -50.5
c-78.667 -1.33301 -157.5 3.66699 -236.5 15s-131.167 19.666 -156.5 24.999v127c116.667 -29.333 204.667 -40.666 264 -33.999c88 -0.666992 164.5 15.5 229.5 48.5s96.167 92.167 93.5 177.5c-3.33301 84.667 -37.5 147.167 -102.5 187.5s-142.5 60.166 -232.5 59.499
c-40.667 -2 -66.334 -3.33301 -77.001 -4v96c20.667 -2 43 -2.66699 67 -2s58.667 3.66699 104 9s93.833 24.666 145.5 57.999s79.5 85.666 83.5 156.999c6 74.667 -19.667 135.667 -77 183s-139 71 -245 71c-50.667 -2 -96.834 -6.16699 -138.501 -12.5
s-73.5 -12.5 -95.5 -18.5v105zM118.001 1360l-0.00390625 -192.001c25.333 9.33301 66 18.5 122 27.5s109.667 12.833 161 11.5c84.667 0.666992 151.5 -17.166 200.5 -53.499s72.5 -87.166 70.5 -152.499c-1.33301 -56.667 -23.333 -98.667 -66 -126
s-85.167 -43 -127.5 -47s-89.166 -7.33301 -140.499 -10c-22.667 -1.33301 -41 -1.33301 -55 0v-183c36 6 74.667 8.33301 116 7c80.667 0 148.334 -16.167 203.001 -48.5s85 -83.5 91 -153.5c-3.33301 -69.333 -31.666 -117.333 -84.999 -144s-120 -42.334 -200 -47.001
c-61.333 0.666992 -125.333 8.83398 -192 24.501s-104.334 24.167 -113.001 25.5v-214c32.667 -11.333 93.834 -22.833 183.501 -34.5s173.834 -16.834 252.501 -15.501c110.667 2 207.5 16.667 290.5 44s148.5 66 196.5 116s75.667 118 83 204
c-3.33301 149.333 -101.666 258.333 -294.999 327v18c180 66.667 271.667 172.667 275 318c-2 62.667 -19.333 116.667 -52 162s-75.667 80.333 -129 105s-111.5 44 -174.5 58s-131.5 21 -205.5 21c-94.667 2.66699 -178.334 -1 -251.001 -11s-125.667 -22.333 -159 -37z
" />
    <glyph glyph-name="four" unicode="4" horiz-adv-x="1442" 
d="M288 533h580v656zM1052 477h247v-97h-248v-270h-129v269h-772v147l703 806h199v-855zM1158 584h251v-308h-252v-276h-347v276h-777v308l777 860h347zM512 624h254v285zM409 580l409 476v-476h-409zM1100 520v864h-264l-744 -836v-212h780v-276h228v276h248v184h-248z" />
    <glyph glyph-name="five" unicode="5" horiz-adv-x="1212" 
d="M1104 1444v-336.001h-539v-223c36.667 4 90 6 160 6c80 0 154 -18 222 -54s122 -87.667 162 -155s60 -145 60 -233c0 -117.333 -31 -211.166 -93 -281.499s-141.667 -120 -239 -149s-204.333 -43.5 -321 -43.5c-41.333 0 -88.333 2.33301 -141 7s-103.5 11.667 -152.5 21
s-97.833 20.666 -146.5 33.999v330c122 -28.667 222.333 -43 301 -43c170.667 0 256 54.333 256 163c0 66.667 -27.833 112.834 -83.5 138.501s-122.167 38.5 -199.5 38.5c-78 0 -163.333 -11 -256 -33v813h1010zM188 132.999l-0.00390625 99.002
c45.333 -8 109.333 -11.667 192 -11c232 2 351.667 91 359 267c-2 102.667 -34.667 174.667 -98 216s-160.666 62.333 -291.999 63c-68 -0.666992 -116.333 -5.33398 -145 -14.001v580h789v-121h-542v-445c111.333 17.333 202.666 24 273.999 20
c62.667 1.33301 117.834 -14 165.501 -46s85.5 -70.5 113.5 -115.5s44.667 -103.5 50 -175.5c-4 -98.667 -26.667 -169.834 -68 -213.501s-104.666 -78.667 -189.999 -105s-178.666 -41.5 -279.999 -45.5c-38.667 -1.33301 -82.667 -0.333008 -132 3
s-114.666 18 -195.999 44zM135.996 92.001c14 -6 45.5039 -14.834 94.5039 -26.501s99.167 -19.5 150.5 -23.5s96.333 -6.66699 135 -8c108 2.66699 207 18.334 297 47.001s161 69.334 213 122.001s79.333 135 82 247c0 78.667 -17.333 146 -52 202s-81 100.333 -139 133
s-122 50 -192 52c-70.667 1.33301 -143.667 -3 -219 -13v58v286h538v216h-890v-684c57.333 13.333 122.666 21.333 195.999 24c109.333 -2.66699 192.666 -21.667 249.999 -57s88 -95 92 -179c-6.66699 -142.667 -111.334 -217.334 -314.001 -224.001
c-82.667 -2.66699 -163.334 5.33301 -242.001 24v-196z" />
    <glyph glyph-name="six" unicode="6" horiz-adv-x="1401" 
d="M1126 1338l-0.000976562 -102.001c-53.333 12 -97 18.667 -131 20s-71.667 1.33301 -113 0c-118.667 -2.66699 -226 -36.667 -322 -102s-135.333 -202 -118 -410h86c74.667 40 132.667 63.667 174 71s97.333 13.666 168 18.999
c77.333 -1.33301 140.666 -14.666 189.999 -39.999s94.333 -64.333 135 -117s59.667 -117.667 57 -195c-4 -89.333 -27.667 -160 -71 -212s-105.333 -95.333 -186 -130s-167.667 -54 -261 -58c-105.333 2.66699 -201.666 28.667 -288.999 78s-157.666 118.333 -210.999 207
s-84 196.334 -92 323.001c5.33301 148 36 272 92 372s132 173.667 228 221s209.333 73 340 77c168 0 276 -7.33301 324 -22zM967.999 486.999c0 76.667 -22.5 137.832 -67.5 183.499s-106.5 68.5 -184.5 68.5s-137.667 -23.333 -179 -70s-62 -112.667 -62 -198
c0 -71.333 21.333 -130.666 64 -177.999s101.667 -71 177 -71c76 0 137 25.167 183 75.5s69 113.5 69 189.5zM1237 1430l0.000976562 -333.999l-72.5 18c-31.667 8 -59.334 14 -83.001 18s-53 7.5 -88 10.5s-72.5 4.5 -112.5 4.5c-93.333 0 -172 -22.667 -236 -68
s-96 -119 -96 -221c34 28 77.5 49.667 130.5 65s116.5 23 190.5 23c86.667 0 168.167 -18.167 244.5 -54.5s137.666 -89.5 183.999 -159.5s69.5 -153 69.5 -249c0 -112.667 -29.833 -207.167 -89.5 -283.5s-137.667 -132.833 -234 -169.5s-199.5 -55 -309.5 -55
c-136.667 0 -258.667 30.333 -366 91s-190.166 145.334 -248.499 254.001s-87.5 232 -87.5 370c0 165.333 32.667 306.666 98 423.999s156 205.666 272 264.999s248.333 89 397 89c170 0 315.667 -12.667 437 -38zM877 484.998c0 54 -14.333 96.666 -43 127.999
s-67.667 47 -117 47c-51.333 0 -90.166 -16.167 -116.499 -48.5s-39.5 -77.833 -39.5 -136.5c0 -50 13.667 -91.333 41 -124s65.666 -49 114.999 -49c48 0 86.667 17.333 116 52s44 78.334 44 131.001zM929 484.997c0 -65.333 -19.168 -119.501 -57.501 -162.501
s-89.166 -64.5 -152.499 -64.5c-64 0 -114 20.333 -150 61s-54 91.667 -54 153c0 72.667 17.333 129.334 52 170.001s85.334 61 152.001 61c65.333 0 116.666 -19.833 153.999 -59.5s56 -92.5 56 -158.5zM1177 1382c-83.333 20.667 -208.999 29.333 -376.999 26
c-138.667 -1.33301 -260 -28 -364 -80s-186.333 -132.167 -247 -240.5s-92.667 -240.833 -96 -397.5c5.33301 -132 34.833 -246.333 88.5 -343s129.667 -171.5 228 -224.5s206.833 -82.167 325.5 -87.5c99.333 3.33301 192.666 22.5 279.999 57.5s157 83.5 209 145.5
s80.333 143.333 85 244c-3.33301 86.667 -26 160.167 -68 220.5s-93.5 106.333 -154.5 138s-132.833 46.167 -215.5 43.5c-72.667 -2 -131.667 -9 -177 -21s-95.333 -33 -150 -63l-55 -2c-5.33301 156 32.167 262.167 112.5 318.5s173.833 86.5 280.5 90.5
c39.333 2 76.5 1.83301 111.5 -0.5s64 -5.83301 87 -10.5s42.5 -9.16699 58.5 -13.5l38 -10.5v210z" />
    <glyph glyph-name="seven" unicode="7" horiz-adv-x="1212" 
d="M25 1444h1163v-397l-514 -1047h-615l609 1047h-643v397zM138 1330h942v-240l-466 -972h-352l600 1042h-724v170zM85 1384v-277l683 1l-606 -1048h485l481 1005v319h-1043z" />
    <glyph glyph-name="eight" unicode="8" horiz-adv-x="1401" 
d="M152 386c14.667 168 96.0039 279.333 244.004 334v32c-69.333 46.667 -118 85 -146 115s-47.333 54.667 -58 74s-18 63.666 -22 132.999c6.66699 46.667 20.667 85.667 42 117s57.333 58.333 108 81s106.334 41.334 167.001 56.001s131 24 211 28
c106.667 -5.33301 198 -17.333 274 -36s134.667 -46.667 176 -84s68.666 -92 81.999 -164c-6.66699 -70.667 -21.667 -124.667 -45 -162s-86.333 -88.666 -189 -153.999v-30c109.333 -84 179.666 -142.333 210.999 -175s49 -87.667 53 -165c-4 -33.333 -18 -69 -42 -107
s-60.667 -69 -110 -93s-104 -44.667 -164 -62s-142 -27.333 -246 -30c-102.667 2.66699 -191.334 17 -266.001 43s-137.334 55.667 -188.001 89s-81.334 86.666 -92.001 159.999zM940.004 478c0 80.667 -20.333 145.833 -61 195.5s-101.334 74.5 -182.001 74.5
c-82 0 -141.167 -25 -177.5 -75s-54.5 -117 -54.5 -201c0 -82.667 18.333 -150.5 55 -203.5s95.667 -79.5 177 -79.5c80.667 0 141.334 27.167 182.001 81.5s61 123.5 61 207.5zM496.004 1037c0 -68.667 17.668 -124.167 53.001 -166.5s85.666 -64.5 150.999 -66.5
c61.333 0 109.833 21.667 145.5 65s53.5 97.666 53.5 162.999c0 62.667 -17.833 115.167 -53.5 157.5s-84.167 63.5 -145.5 63.5c-64 0 -114 -20.667 -150 -62s-54 -92.666 -54 -153.999zM25.0049 384.999c0 188 95.334 304.667 286.001 350v4
c-59.333 20 -108.166 43.833 -146.499 71.5s-67.166 63.167 -86.499 106.5s-29 95.333 -29 156c0 74.667 18.5 137.5 55.5 188.5s87 91.667 150 122s132.167 52 207.5 65s154 19.5 236 19.5c114.667 0 220.167 -12.167 316.5 -36.5s174.833 -66 235.5 -125
s91 -136.833 91 -233.5c0 -88.667 -21.833 -159 -65.5 -211s-107.834 -93.667 -192.501 -125v2v-4c88 -22 158.833 -62.167 212.5 -120.5s80.5 -134.833 80.5 -229.5c0 -76 -19.833 -140.667 -59.5 -194s-91.834 -95.666 -156.501 -126.999s-137.334 -54 -218.001 -68
s-162 -21 -244 -21c-77.333 -0.666992 -175.5 12.166 -294.5 38.499s-211.833 69.833 -278.5 130.5s-100 141 -100 241zM848.006 476.999c0 50.667 -12.333 91.6689 -37 123.002s-62.334 47 -113.001 47s-87.5 -15.833 -110.5 -47.5s-34.5 -73.834 -34.5 -126.501
c0 -51.333 11.667 -93.5 35 -126.5s60 -49.5 110 -49.5c50.667 0 88.334 16.667 113.001 50s37 76.666 37 129.999zM577.006 1040c0 -42 10.499 -75.998 31.499 -101.998s50.5 -39.333 88.5 -40c36 0 64.5 13.167 85.5 39.5s31.5 59.166 31.5 98.499
c0 38.667 -10.5 71 -31.5 97s-49.5 39 -85.5 39c-37.333 0 -66.666 -12.833 -87.999 -38.5s-32 -56.834 -32 -93.501zM888.005 475.003c0 -67.333 -15.998 -122.499 -47.998 -165.499s-80.333 -64.5 -145 -64.5s-111.834 21 -141.501 63s-44.5 96 -44.5 162
c0 67.333 14.667 121.166 44 161.499s76.666 60.5 141.999 60.5c64.667 0 113 -20 145 -60s48 -92.333 48 -157zM544.007 1040c0 48.667 13.8311 89.499 41.498 122.499s65.834 49.5 114.501 49.5c47.333 0 84.5 -16.833 111.5 -50.5s40.5 -75.5 40.5 -125.5
c0 -51.333 -13.5 -94.166 -40.5 -128.499s-64.167 -51.5 -111.5 -51.5c-49.333 0.666992 -87.666 18 -114.999 52s-41 78 -41 132zM84.0049 386.003c8 -86.667 42.0039 -151.994 102.004 -195.994s138.333 -80.333 235 -109s189 -43.667 277 -45
c92 0 172.667 9.33301 242 28s132.666 40.667 189.999 66s103 59 137 101s50.333 93.667 49 155c-2.66699 82.667 -25.667 147 -69 193s-111.666 97 -204.999 153v16c89.333 49.333 149.333 95.666 180 138.999s50 105 58 185c-8 85.333 -37.333 150.666 -88 195.999
s-118 79 -202 101s-181.333 35 -292 39c-81.333 -2.66699 -155.333 -11.334 -222 -26.001s-128.334 -35.334 -185.001 -62.001s-99.334 -59.334 -128.001 -98.001s-46.334 -88 -53.001 -148c1.33301 -66.667 10.666 -114.334 27.999 -143.001s42 -57.667 74 -87
s80 -62 144 -98v-16c-165.333 -52 -256 -166.667 -272 -344z" />
    <glyph glyph-name="nine" unicode="9" horiz-adv-x="1401" 
d="M275 105v102.001c53.333 -12 97 -18.667 131 -20s71.667 -1.33301 113 0c118.667 2.66699 226 36.667 322 102s135.333 202 118 410l-67 1c-77.333 -34.667 -139.166 -57.167 -185.499 -67.5s-104.833 -18.166 -175.5 -23.499
c-77.333 1.33301 -140.666 14.666 -189.999 39.999s-94.333 64.333 -135 117s-59.667 117.667 -57 195c4 89.333 27.667 160 71 212s105.333 95.333 186 130s167.667 54 261 58c105.333 -2.66699 201.666 -28.667 288.999 -78s157.666 -118.333 210.999 -207
s84 -196.334 92 -323.001c-5.33301 -148 -36 -272 -92 -372s-132 -173.667 -228 -221s-209.333 -73 -340 -77c-168 0 -276 7.33301 -324 22zM433 956.001c0 -76.667 22.5 -137.832 67.5 -183.499s106.5 -68.5 184.5 -68.5s137.667 23.333 179 70s62 112.667 62 198
c0 71.333 -21.333 130.666 -64 177.999s-101.667 71 -177 71c-76 0 -137 -25.167 -183 -75.5s-69 -113.5 -69 -189.5zM164 13.0029l-0.000976562 333.999l72.5 -18c31.667 -8 59.334 -14 83.001 -18s53 -7.5 88 -10.5s72.5 -4.5 112.5 -4.5c93.333 0 172 22.667 236 68
s96 119 96 221c-34 -28 -77.5 -49.667 -130.5 -65s-116.5 -23 -190.5 -23c-86.667 0 -168.167 18.167 -244.5 54.5s-137.666 89.5 -183.999 159.5s-69.5 153 -69.5 249c0 112.667 29.833 207.167 89.5 283.5s137.667 132.833 234 169.5s199.5 55 309.5 55
c136.667 0 258.667 -30.333 366 -91s190.166 -145.334 248.499 -254.001s87.5 -232 87.5 -370c0 -165.333 -32.667 -306.666 -98 -423.999s-156 -205.666 -272 -264.999s-248.333 -89 -397 -89c-170 0 -315.667 12.667 -437 38zM523.999 958.002
c0 -54 14.333 -96.666 43 -127.999s67.667 -47 117 -47c51.333 0 90.166 16.167 116.499 48.5s39.5 77.833 39.5 136.5c0 50 -13.667 91.333 -41 124s-65.666 49 -114.999 49c-48 0 -86.667 -17.333 -116 -52s-44 -78.334 -44 -131.001zM471.999 958.003
c0 65.333 19.168 119.501 57.501 162.501s89.166 64.5 152.499 64.5c64 0 114 -20.333 150 -61s54 -91.667 54 -153c0 -72.667 -17.333 -129.334 -52 -170.001s-85.334 -61 -152.001 -61c-65.333 0 -116.666 19.833 -153.999 59.5s-56 92.5 -56 158.5zM224 61.0039
c83.333 -20.667 208.999 -29.333 376.999 -26c138.667 1.33301 260 28 364 80s186.333 132.167 247 240.5s92.667 240.833 96 397.5c-5.33301 132 -34.833 246.333 -88.5 343s-129.667 171.5 -228 224.5s-206.833 82.167 -325.5 87.5
c-99.333 -3.33301 -192.666 -22.5 -279.999 -57.5s-157 -83.5 -209 -145.5s-80.333 -143.333 -85 -244c3.33301 -86.667 26 -160.167 68 -220.5s93.5 -106.333 154.5 -138s132.833 -46.167 215.5 -43.5c72.667 2 131.667 9 177 21s95 34.667 149 68l56 -3
c5.33301 -156 -32.167 -262.167 -112.5 -318.5s-173.833 -86.5 -280.5 -90.5c-39.333 -2 -76.5 -1.83301 -111.5 0.5s-64 5.83301 -87 10.5s-42.5 9.16699 -58.5 13.5l-38 10.5v-210z" />
    <glyph glyph-name="colon" unicode=":" horiz-adv-x="758" 
d="M156 0v397h446v-397h-446zM156 680v397h446v-397h-446zM216 333v-277h331v277h-331zM216 1017v-277h331v277h-331zM275 798v174h214v-174h-214zM272 98v189h221v-189h-221z" />
    <glyph glyph-name="semicolon" unicode=";" horiz-adv-x="1440" 
d="M478 738c5.33301 -80 22.6689 -139.999 52.002 -179.999s64.333 -71.667 105 -95s102.334 -40.333 185.001 -51c85.333 5.33301 146.666 16.666 183.999 33.999s80 46 128 86l284 -316c-82.667 -77.333 -164.667 -130.666 -246 -159.999s-199.333 -48 -354 -56
c-149.333 8 -262.333 29.833 -339 65.5s-152.5 83 -227.5 142s-133.667 133 -176 222s-63.5 192.167 -63.5 309.5c0 116 21.167 218.5 63.5 307.5s99.666 163.167 171.999 222.5s148.166 106.666 227.499 141.999s193.666 56 342.999 62c154.667 -6 272.667 -23.667 354 -53
s163.333 -82.666 246 -159.999l-284 -316c-48 40 -90.667 68.667 -128 86s-98.666 28.666 -183.999 33.999c-82.667 -10.667 -144.334 -27.667 -185.001 -51s-75.667 -55 -105 -95s-46.666 -100 -51.999 -180zM1246 1248l-127.996 -149.999
c-57.333 49.333 -152 74.666 -284 75.999c-121.333 -2.66699 -210.333 -19.334 -267 -50.001s-108.334 -75.667 -155.001 -135s-73.334 -143 -80.001 -251c1.33301 -102.667 28.333 -184.334 81 -245.001s106 -104 160 -130s137 -47.667 249 -65
c146.667 2.66699 246.667 24 300 64l132 -140c-26.667 -24 -71 -46.667 -133 -68s-163.667 -36 -305 -44c-110.667 2.66699 -203.334 22.334 -278.001 59.001s-141 80 -199 130s-107.333 107 -148 171s-63 153.333 -67 268c5.33301 104 28.666 193.667 69.999 269
s89.333 136.333 144 183s116 85.334 184 116.001s166.667 48.667 296 54c140 -8 242 -22.667 306 -44s104.667 -44 122 -68zM1324.01 1252c-45.333 50.667 -104.667 88.0039 -178 112.004s-183.333 40.333 -330 49c-140 -3.33301 -246.333 -22.333 -319 -57
s-140.667 -78.667 -204 -132s-115.666 -120 -156.999 -200s-63.333 -175 -66 -285c1.33301 -119.333 23.333 -214.333 66 -285s96.667 -134 162 -190s136.666 -103.333 213.999 -142s178.666 -59.334 303.999 -62.001c148.667 7.33301 257.667 23.166 327 47.499
s132.333 63.166 189 116.499l-205 214c-80.667 -58.667 -183 -87.334 -307 -86.001c-98.667 13.333 -172 32.666 -220 57.999s-93 63 -135 113s-66.333 121.667 -73 215c8 96 32 168.333 72 217s84.833 87.334 134.5 116.001s126.834 45.667 231.501 51
c113.333 1.33301 212 -30 296 -94z" />
    <glyph glyph-name="less" unicode="&#x3c;" 
d="M-1636 -82h1636v-60h-1636v60zM-1636 -452h1636v-60h-1636v60zM-1636 -202h1636v-190h-1636v190z" />
    <glyph glyph-name="equal" unicode="=" horiz-adv-x="1456" 
d="M0 430h1516v-60h-1516v60zM1516 0h-1516v60h1516v-60zM0 310h1516v-190h-1516v190z" />
    <glyph glyph-name="greater" unicode="&#x3e;" 
d="M1636 -82h-1636v-60h1636v60zM1636 -452h-1636v-60h1636v60zM1636 -202v-190h-1636v190h1636z" />
    <glyph glyph-name="question" unicode="?" horiz-adv-x="1176" 
d="M628 656l-193.998 0.00195312c22.667 57.333 48 97.333 76 120s64.667 54.667 110 96s66.666 92 63.999 152c1.33301 73.333 -27 125.666 -85 156.999s-134.333 45.666 -229 42.999c-64 -4 -123.333 -14 -178 -30v102c39.333 16.667 87.166 31.5 143.499 44.5
s121.833 19.5 196.5 19.5c76 -2.66699 148.667 -11.334 218 -26.001s123.333 -40.667 162 -78s62 -82.666 70 -135.999c-10.667 -60 -27.5 -105.167 -50.5 -135.5s-62.333 -67 -118 -110s-98.5 -81 -128.5 -114s-49 -67.833 -57 -104.5zM283.002 385.002h446v-385h-446v385z
M338.002 333.002v-277h335v277h-335zM711.002 535.002l-409.998 -0.00195312c5.33301 95.333 21 168.166 47 218.499s55.833 88 89.5 113l94 71.5c29 22.667 43.5 51.334 43.5 86.001s-17.333 57.334 -52 68.001s-84.667 16 -150 16c-46 0 -96.167 -6.83301 -150.5 -20.5
s-100.5 -29.5 -138.5 -47.5v353c78.667 24.667 152.5 43.334 221.5 56.001s143.833 19 224.5 19c81.333 0 164.666 -9.5 249.999 -28.5s158.666 -54.5 219.999 -106.5s92 -123 92 -213c0 -69.333 -16.167 -126.833 -48.5 -172.5s-81.333 -95.167 -147 -148.5
s-113 -97.333 -142 -132s-43.5 -78.667 -43.5 -132zM392.004 102v189h221v-189h-221zM660.004 594c-1.33301 32 15 67.666 49 106.999s82.333 84.666 145 135.999s107 95 133 131s41 86.667 45 152c-6.66699 69.333 -34.334 126.333 -83.001 171s-111 75.667 -187 93
s-153.333 25.333 -232 24c-76 1.33301 -146.667 -4.66699 -212 -18s-123.333 -32 -174 -56v-204c16 6.66699 44 14.334 84 23.001s88 13.667 144 15c80 4 143.667 -4.66699 191 -26s71.666 -60.666 72.999 -117.999c-2.66699 -53.333 -21.667 -95 -57 -125
s-67.666 -56 -96.999 -78s-55.666 -52 -78.999 -90s-39 -83.667 -47 -137h304z" />
    <glyph glyph-name="at" unicode="@" horiz-adv-x="5657" 
d="M598 1514v-966l17 108l34 20v857zM109 238l-0.000976562 -90.001h627l35 382v119l-131 5c-5.33301 -277.333 -77.666 -402.666 -216.999 -375.999v1408c7.33301 36 30.333 51 69 45l1 94h-384v-92c56.667 -9.33301 79.667 -64 69 -164v-1294zM1050 1514v-893l53 19v893z
M597.999 1825v-92.001c45.333 -12 68 -36.333 68 -73v-984l119 -1l21 -19v-253l35 -18c209.333 -36.667 349 48.333 419 255v999c-6 69.333 17 100.666 69 93.999v92h-279v-92c48 6.66699 71.333 -35.666 70 -126.999v-966c-45.333 -59.333 -94.5 -82.166 -147.5 -68.499
s-84.833 66.5 -95.5 158.5l-2 938c9.33301 50.667 38.333 72.667 87 66l1 91h-365zM1399 584.998v-55l122 36l-70 90h-34zM1365 1699l-0.000976562 -909c57.333 -76 120.666 -126 189.999 -150c128.667 -12.667 239.334 54.333 332.001 201v346h-157v-328
c-81.333 -48 -133.333 -42 -156 18l-1 767c54 86 106.333 91.333 157 16v-219h157v384l-174 -19c-18 33.333 -73.667 44.833 -167 34.5s-153.666 -57.5 -180.999 -141.5zM1730 1423v-218h157l52 -73l36 18v110h-85l-142 163h-18zM2178 1573l40 -313h-86zM1260 329.998
v-37.001h925c22 -27.333 39.667 -21.333 53 18c-10 36.667 -27.667 43.334 -53 20.001zM1034 219.997c-34 -46 -28.667 -82.332 16 -108.999h53l-1 35l-50 2l-2 35h1012c60.667 -62 128.834 -80.667 204.5 -56c75.667 24.667 118.167 87 127.5 187
c-2 96 -44 158.667 -126 188s-151.333 8.33301 -208 -63h-312v35h36l-1 -18h35c-4 45.333 -24 64.833 -60 58.5s-52.833 -26.833 -50.5 -61.5s15.833 -51.334 40.5 -50.001h332c66 72 129.5 90.667 190.5 56s90.833 -81.667 89.5 -141
c-6.66699 -82.667 -44.667 -135.5 -114 -158.5s-124.666 -2.83301 -166 60.5h-1046zM1887 840.998v-110.001l244 61l1 104h-52l34 218h140l19 -158c-1.33301 -33.333 -19.666 -49.333 -55 -48v-104l315 37v127c-46.667 0 -70 36.667 -70 110l-86 613
c0.666992 34 29.334 53.667 86.001 59v75h-471v-92c37.333 4.66699 60.666 -13.333 69.999 -54l-105 -747c-8 -55.333 -31.333 -85.666 -70 -90.999zM2586 1315l34 -92h35l-35 92h-34zM2445 182.997v-53.999h262c-0.666992 59.333 5.66602 124.666 19 195.999l-54 5
c-14.667 -82.667 -35 -131 -61 -145l-25 17v383l33 21l1 50h-175v-49l35 -24l1 -400h-36zM2671 510.998l1 -72h70c-12 -194 -0.333008 -297.333 35 -310c72 -9.33301 124 -3 156 19v54c-45.333 -24.667 -74 -24.667 -86 0v237h70v72h-70v92l-105 -18v-74h-71zM2550 1205
v-364h122v36c167.333 -76 289.333 -39.333 366 110v273l-38 69l-240 185v146c32.667 38 65.667 46 99 24s46.666 -78.667 40 -170h139v311h-139v-20l-16 2c-6.66699 34 -73.667 45.667 -201 35c-58.667 -20 -102.667 -64.667 -132 -134v-285c64 -86 157 -158.667 279 -218
v-163c-61.333 -68 -113.666 -61 -157 21v142h-122zM3056 435.998c22.667 21.333 45.667 22.333 69 3l-1 -219c-16 -21.333 -38.667 -27.333 -68 -18v234zM2899 1478l18 -74l191 -181h17v110c-58 -12 -122 36.333 -192 145h-34zM2951 455.998v-290.999l52 -36h297
c0 12.667 -23.333 37 -70 73v454h-156c-12 -10.667 5 -34.334 51 -71.001v-91c-81.333 36 -139.333 23.333 -174 -38zM3074 949.999v-109.002l348 -19v91c-47.333 6.66699 -70.333 36.334 -69 89.001v276c57.333 -2 89 -26.333 95 -73h114v273h-123
c8.66699 -51.333 -20 -75.333 -86 -72v290c108.667 10.667 155 -43.666 139 -162.999h139v292h-557v-92c46 -12 69 -36.333 69 -73v-644c-16 -44.667 -39 -66.667 -69 -66zM3492 1114v-201l121 -112v97c30.667 -6 54 10.667 70 50l1 75
c-81.333 -24 -139.666 6.33301 -175 91h-17zM3631 874.997v-107c132.667 -12.667 254.667 -40.667 366 -84v120c-48.667 4 -71.667 29.667 -69 77v802c2.66699 40.667 19.667 63.667 51 69l1 73h-331v-92c25.333 0.666992 42.333 -20 51 -62v-728
c-9.33301 -52 -32.333 -74.667 -69 -68zM3450 310.997c14 -40 34 -46 60 -18h941v37h-941c-27.333 28 -47.333 21.667 -60 -19zM4468 1533v-510h88v510h-88zM4553 800.997l20 1v-181h-35zM3297 315.997c12.667 -111.333 62.5 -177.166 149.5 -197.499
s149.167 1.5 186.5 65.5l1027 -1l-19 -35l-20 17h-31l36 -54c50.666 -0.666992 73 29 67 89l-15 20h-1064c-24.667 -49.333 -71.334 -73.333 -140 -72c-88.667 26.667 -135.334 82 -140 166c12.667 94.667 63 148.667 151 162c56.667 1.33301 100.667 -23 132 -73l381 -2
c28.667 48 30.667 81.167 6 99.5s-50 16.166 -76 -6.50098v-38h35l1 20h15l1 -37h-349c-39.333 61.333 -100.333 84 -183 68s-133 -79.667 -151 -191zM805.998 219.997v-37h52c663.333 402.667 1426 581.334 2288 536.001c424.667 -44.667 778.667 -122 1062 -232
c283.334 -110 517 -223 701 -339h47l1 54c-254.666 146 -509 267.667 -763 365s-598.333 170.666 -1033 219.999c-337.333 36 -767.333 -1 -1290 -111l-350 -110l-435 -181zM4887 455.997c-14.666 -44.667 8.66699 -86.667 70 -126v-128l60 -52l9 106l70 19v73
c-84.666 6 -142.666 42 -174 108h-35zM4017 784.997v-110.002c270.666 -64.667 509 -162 715 -292h52v109c-46.666 0 -70 30.667 -70 92v766l175 -821l53 -37l173 858l-2 -1057c-12.666 -42 -35.333 -61.333 -68 -58l1 -89h384v91
c-51.334 -1.33301 -74.667 41.334 -70 128.001l-1 1317c-1.33398 32 22.333 50 71 54v87h-367l-121 -619l-129 615l-63 4h-245v-91c40.666 0.666992 64 -17.666 70 -54.999v-674l-98 1c-12.666 -156 -45.666 -247.333 -99 -274h-65v930c0.666016 44 24 68.667 70 74v89h-366
v-91c48.667 8 72 -22.667 70 -92v-837zM91.998 1842l418 0.00195312l69 -74v74h402v-44l52 -11v55h314l40 -53l108 71c134 9.33301 211 0.333008 231 -27l179 9l70 -74v74h501l69 -74l77 71l50 21c90.667 8 155.334 3 194 -15l1531 -2l86 -93l2 92h350l169 -206l42 207
l399 -1l158 -165v-127c-70.666 -12.667 -100 -49.334 -88 -110.001v-1258l88 -91v-128h-420c-30 12.667 -47.666 37.334 -53 74.001h-32l-24 -38h-222c-11.334 -36.667 -46.334 -48.667 -105 -36c8.66602 32.667 -43.667 44.667 -157 36h-837
c0 -36.667 -52 -53.334 -156 -50.001l-90 51l-32 2v-53c-232.667 -16.667 -360.667 0 -384 50c-11.333 -36.667 -46.333 -55 -105 -55l-103 55l-24 -53h-288l-39 54l-34 -1c-58 -36.667 -116.333 -55 -175 -55l-174 55h-872l-69 -55l-175 147
c-80 -26 -126.333 -68.667 -139 -128h-646l-156 165v128c52 4.66699 75 41 69 109l-1 1228c2 59.333 -20.667 97.666 -68 114.999v134z" />
    <glyph glyph-name="A" unicode="A" horiz-adv-x="1492" 
d="M60 60h370l92 260h508l92 -260h370v-60h-410l-92 260h-428l-92 -260h-410v60zM1480 430h12v-60h-60l-326 1014h-630l-354 -1014h-62v60h12l354 1014h730zM660 612h238l-110 322zM60 120v190h128l332 1006h524l339 -1006h109v-190h-321l-111 264h-588l-90 -264h-322z
M786 1057l186 -489h-386zM792 1181l-282 -671h549z" />
    <glyph glyph-name="B" unicode="B" horiz-adv-x="1628" 
d="M60 1384l0.000976562 60.0029h985c158 -1.33301 278.167 -28.666 360.5 -81.999s132.166 -142.666 149.499 -267.999c6 -96 -14.333 -171.333 -61 -226s-123.667 -99.667 -231 -135v-4c52.667 -6.66699 101.334 -20.834 146.001 -42.501s82.167 -47.334 112.5 -77.001
s53.833 -63.167 70.5 -100.5s25 -74 25 -110c0 -114 -29.167 -200.333 -87.5 -259s-133.333 -97 -225 -115s-202.834 -26.333 -333.501 -25h-911v60h911c128.667 -2.66699 236.5 4.66602 323.5 21.999s153.167 52.166 198.5 104.499s66.666 123.166 63.999 212.499
c0 35.333 -7.66699 68 -23 98s-33.5 58 -54.5 84s-51.5 49 -91.5 69s-98 46 -174 78v8c102.667 50.667 176.834 100 222.501 148s65.167 118 58.5 210c-14.667 105.333 -57.667 179.5 -129 222.5s-178.333 65.5 -321 67.5h-985zM120.001 1074v-704h-60v704h60z
M60.001 120.003v190h124v824h-124v190h985c129.333 0 223.833 -17.333 283.5 -52s97.5 -94 113.5 -178c5.33301 -85.333 -10.667 -148 -48 -188s-114 -98 -230 -174c100.667 -58.667 178.5 -111 233.5 -157s90.167 -104.667 105.5 -176
c1.33301 -65.333 -14.5 -119.833 -47.5 -163.5s-89.833 -73.667 -170.5 -90s-184.667 -24.833 -312 -25.5h-913zM490.001 1153v-343h382c68.667 -2 127.167 13.333 175.5 46s72.5 73.667 72.5 123c3.33301 56.667 -19 99.5 -67 128.5s-108.333 44.167 -181 45.5h-382z
M554.001 1100l298.001 0.000976562c56.667 0 103.667 -9.83301 141 -29.5s55 -48.5 53 -86.5c1.33301 -34.667 -15.334 -62.334 -50.001 -83.001s-82.667 -31.667 -144 -33h-298v232zM607.002 1048l0.000976562 -120h246c82 0 127.667 18.667 137 56
c-16.667 42.667 -62.334 64 -137.001 64h-246zM486.003 622.004l-0.00292969 -387.999h423c78.667 -2 142.834 12.667 192.501 44s76.834 80.666 81.501 147.999c-4.66699 66 -30.667 115.5 -78 148.5s-112.666 48.833 -195.999 47.5h-423zM538 570.005l345 -0.000976562
c67.333 2 121.666 -9 162.999 -33s62 -60 62 -108c0 -53.333 -16.667 -90.666 -50 -111.999s-91.666 -31.333 -174.999 -30h-345v283zM580 512.004l-0.000976562 -164.001h320c93.333 -5.33301 144 21.334 152 80.001c-5.33301 56 -54.666 84 -147.999 84h-324z" />
    <glyph glyph-name="C" unicode="C" horiz-adv-x="1484" 
d="M1484 1384h-639.996c-109.333 -1.33301 -209.333 -14.333 -300 -39s-171 -64.334 -241 -119.001s-125.667 -122 -167 -202s-63.333 -173.667 -66 -281c-1.33301 -151.333 32.667 -277.666 102 -378.999s162.666 -176.666 279.999 -225.999s248 -75.333 392 -78h640v-60
h-640c-156.667 0 -298.334 27.833 -425.001 83.5s-226.5 139.167 -299.5 250.5s-109.5 247.666 -109.5 408.999c0 113.333 21.833 214.5 65.5 303.5s104.167 163 181.5 222s166.166 103 266.499 132s207.166 43.5 320.499 43.5h640v-60zM1484 1074v-59.999h-452
c-101.333 0 -176.333 -3 -225 -9s-92 -16 -130 -30s-71.667 -38.333 -101 -73s-46.333 -96 -51 -184c3.33301 -85.333 20.333 -146.333 51 -183s68 -61 112 -73s89.333 -20.333 136 -25s116 -7 208 -7h452v-60h-452c-90.667 -1.33301 -162.667 1 -216 7s-106 16 -158 30
s-95.667 45 -131 93s-56 120.667 -62 218c7.33301 112 30 187 68 225s78.667 65.667 122 83s91.5 29.166 144.5 35.499s130.5 10.5 232.5 12.5h452zM1484 1328l0.000976562 -192h-452c-100 -1.33301 -179.667 -5.66602 -239 -12.999s-115 -21 -167 -41s-100 -52 -144 -96
s-70 -132.667 -78 -266c8 -109.333 33.333 -192 76 -248s94.334 -93.333 155.001 -112s120 -31.334 178 -38.001s132.333 -10 223 -10h448v-192h-640c-130.667 0 -250 23.333 -358 70s-194.667 115.334 -260 206.001s-98 206.667 -98 348
c5.33301 101.333 26.666 188 63.999 260s88.666 132 153.999 180s139.333 82.667 222 104s176 34.666 280 39.999h636z" />
    <glyph glyph-name="D" unicode="D" horiz-adv-x="1662" 
d="M60 60h828.002c160 4 274.333 19.667 343 47s125.667 62 171 104s87.333 104 126 186s60 190.333 64 325c-5.33301 129.333 -15 213 -29 251s-32 78.667 -54 122s-56.333 87.666 -103 132.999s-111.667 83.333 -195 114s-183 44.667 -299 42h-852v60h852
c115.333 0 217.5 -14.333 306.5 -43s163.333 -70 223 -124s109.667 -125.333 150 -214s60.5 -202.334 60.5 -341.001c-7.33301 -134.667 -29.333 -248 -66 -340s-85.334 -164.667 -146.001 -218s-134.834 -94.666 -222.501 -123.999s-197.5 -42.666 -329.5 -39.999h-828v60z
M60.002 370v704h60v-704h-60zM60.002 120l-0.00195312 189.999h122v824h-122v190h852c107.333 0 200.333 -12.667 279 -38s139 -58.333 181 -99s72.833 -80.5 92.5 -119.5s35 -77 46 -114s20.167 -114.5 27.5 -232.5c-2.66699 -133.333 -23 -237 -61 -311
s-73.167 -127.167 -105.5 -159.5s-77.166 -61.166 -134.499 -86.499s-173.666 -40 -348.999 -44h-828zM450 1135v-843h341c78 0 140.833 15.5 188.5 46.5s86.167 70.5 115.5 118.5s48.333 134 57 258c-2.66699 112 -19.667 195 -51 249s-71.333 96 -120 126
s-112.667 45 -192 45h-339zM514 1074l277.999 -0.000976562c64.667 0 117 -13 157 -39s72.833 -62.5 98.5 -109.5s39.834 -119.167 42.501 -216.5c-8 -107.333 -24 -181.666 -48 -222.999s-55.5 -75.333 -94.5 -102s-90.167 -40 -153.5 -40h-280v730zM573.999 1006
l0.000976562 -602.002h214c60.667 2 105.167 14.833 133.5 38.5s49.666 49 63.999 76s24.833 89.167 31.5 186.5c-4.66699 81.333 -15 139.333 -31 174s-38.5 64.334 -67.5 89.001s-72.833 37.334 -131.5 38.001h-213z" />
    <glyph glyph-name="E" unicode="E" horiz-adv-x="1360" 
d="M60 1384v60h1240v-60h-1240zM120 370h-60v704h60v-704zM1300 1074v-60h-770v-166h496v-252h-496v-166h830v-60h-890v284h496v134h-496v286h830zM1360 60v-60h-1300v60h1300zM60 1324h1240v-190h-880v-386h484v-54h-486v-382l942 -2v-190h-1300v190h122v824h-122v190z" />
    <glyph glyph-name="F" unicode="F" horiz-adv-x="1300" 
d="M60 1384v60h1240v-60h-1240zM120 370h-60v704h60v-704zM470 60v594h496v134h-496v286h830v-60h-770v-166h496v-252h-496v-596h-470v60h410zM60 1324h1240v-190h-880v-386h484v-54h-484v-574h-360v190h122v824h-122v190z" />
    <glyph glyph-name="G" unicode="G" horiz-adv-x="1484" 
d="M1484 1074l0.00390625 -59.999h-452c-101.333 0 -176.333 -3 -225 -9s-92 -16 -130 -30s-71.667 -38.333 -101 -73s-46.333 -96 -51 -184c3.33301 -85.333 20.333 -146.333 51 -183s68 -61 112 -73s89.333 -20.333 136 -25s116 -7 208 -7v292h452v-722h-640
c-156.667 0 -298.334 27.833 -425.001 83.5s-226.5 139.167 -299.5 250.5s-109.5 247.666 -109.5 408.999c0 113.333 21.833 214.5 65.5 303.5s104.167 163 181.5 222s166.166 103 266.499 132s207.166 43.5 320.499 43.5h640v-60h-640
c-109.333 -1.33301 -209.333 -14.333 -300 -39s-171 -64.334 -241 -119.001s-125.667 -122 -167 -202s-63.333 -173.667 -66 -281c-1.33301 -151.333 32.667 -277.666 102 -378.999s162.666 -176.666 279.999 -225.999s248 -75.333 392 -78h580v602h-332v-292h-60
c-90.667 -1.33301 -162.667 1 -216 7s-106 16 -158 30s-95.667 45 -131 93s-56 120.667 -62 218c7.33301 112 30 187 68 225s78.667 65.667 122 83s91.5 29.166 144.5 35.499s130.5 10.5 232.5 12.5h452zM1484 1324l0.000976562 -190h-451
c-100.667 0 -180.667 -3.66699 -240 -11s-115 -21 -167 -41s-100 -52 -144 -96s-70 -132.667 -78 -266c8 -109.333 33.333 -192 76 -248s94.334 -93.333 155.001 -112s120 -31.334 178 -38.001s132.333 -10 223 -10h112v292h224v-484h-528c-130.667 0 -250 23.333 -358 70
s-194.667 115.334 -260 206.001s-98 206.667 -98 348c5.33301 101.333 26.666 188 63.999 260s88.666 132 153.999 180s139.333 82.667 222 104s175 33.333 277 36h639z" />
    <glyph glyph-name="H" unicode="H" horiz-adv-x="1378" 
d="M908 946v498h470v-60h-410v-498h-498v498h-410v60h470v-498h378zM60 370v704h60v-704h-60zM1378 1074v-704h-60v704h60zM1378 60v-60h-470v520h-378v-520h-470v60h410v520h498v-520h410zM60 1324h354v-500h614l1 500h349v-190h-118v-824h118v-190h-350v512h-614v-512
h-354v190h122v824h-122v190z" />
    <glyph glyph-name="I" unicode="I" horiz-adv-x="1404" 
d="M60 1384v60h470v-470l330 470h470l-538 -722l460 -718c41.333 -61.333 92 -90 152 -86v-61c-80 -2 -138.667 29.667 -176 95l-496 760v16l483 656h-324l-320 -470h-101v470h-410zM120 1074v-704h-60v704h60zM60 0v59.999h410v430h83l527 -770
c73.333 -117.333 181.333 -174.666 324 -171.999v-60c-166.667 -1.33301 -284 58.667 -352 180l-522 762v-430h-470zM60 1324h350.001v-463h185l322 467h182l-419 -596v-28l516 -792c41.333 -72 110.666 -110 207.999 -114v-190c-122.667 -8 -222.667 48 -300 168l-528 768
h-162v-424h-354v190h122v824h-122v190z" />
    <glyph glyph-name="J" unicode="J" horiz-adv-x="877" 
d="M386 1384l0.000976562 -1260c-4.66699 -76 -16.834 -128 -36.501 -156s-46.5 -51 -80.5 -69s-68.667 -29.667 -104 -35s-90.333 -7.33301 -165 -6v60c58.667 -1.33301 105.667 0.666992 141 6s65.333 14 90 26s44.667 29 60 51s27 63 35 123v1320h551v-60h-491z
M0.000976562 -512v60.0049c100 0 180.667 2.66699 242 8s129 18.666 203 39.999s132 49.666 174 84.999s70.667 71.666 86 108.999s25.666 104.666 30.999 201.999v1082h141v-60h-81v-1022c-4 -110.667 -16 -188.667 -36 -234s-55.667 -88 -107 -128
s-115.666 -70.333 -192.999 -91s-147.333 -34.334 -210 -41.001s-146 -10 -250 -10zM440.001 1324l437.001 0.000976562v-190h-195v-1141c-6.66699 -85.333 -15.834 -143 -27.501 -173s-34 -59.833 -67 -89.5s-85.167 -55.167 -156.5 -76.5s-137 -34.333 -197 -39
s-138 -7 -234 -7v190c92 -1.33301 155.5 1.66699 190.5 9s73.5 21.666 115.5 42.999s73.167 50 93.5 86s33.833 98.667 40.5 188v1200z" />
    <glyph glyph-name="K" unicode="K" horiz-adv-x="1404" 
d="M60 1384v60h470v-470l330 470h470l-538 -722l240 -292h372v-60h-401l-271 344v12l483 658h-324l-320 -470h-101v470h-410zM120 1074v-704h-60v704h60zM60 0v60h410v430h83l371 -430h480v-60h-510l-364 430v-430h-470zM60 1324h350v-463h185l322 467h182l-419 -598v-20
l294 -400h430v-190h-450l-378 424h-162v-424h-354v190h122v824h-122v190z" />
    <glyph glyph-name="L" unicode="L" horiz-adv-x="1312" 
d="M60 1384v60h470v-1014h782v-60h-842v1014h-410zM60 1074h60v-704h-60v704zM60 60h1252v-60h-1252v60zM60 1324h358v-1014h894v-190h-1252v190h122v824h-122v190z" />
    <glyph glyph-name="M" unicode="M" horiz-adv-x="1630" 
d="M60 1444h470l316 -600l314 600h470v-60h-435l-343 -624h-9l-348 624h-435v60zM1630 60v-60h-470v600l-302 -600h-26l-302 600v-600h-470v60h410v606h92l280 -582l285 576h93v-600h410zM1630 1074v-704h-60v704h60zM120 1074v-704h-60v704h60zM60 1324h400l380 -632h19
l380 632h391v-190h-122v-824h122v-190h-350v604h-188l-248 -516l-252 520h-180v-608h-352v190h122v824h-122v190z" />
    <glyph glyph-name="N" unicode="N" horiz-adv-x="1430" 
d="M60 1384v60h470l430 -540v540h470v-60h-410v-538h-95l-420 538h-445zM1430 60v-60h-470l-430 540v-540h-470v60h410v540h95l430 -540h435zM1430 1074v-704h-60v704h60zM120 1074v-704h-60v704h60zM60 1324h414l418 -538h194v538h344v-190h-120v-824h120v-190h-400
l-432 537h-176v-537h-362v190h122l-1 824h-121v190z" />
    <glyph glyph-name="O" unicode="O" horiz-adv-x="1550" 
d="M60 1384l0.000976562 60.0039h940c116 -10.667 209 -39.334 279 -86.001s117.667 -91.667 143 -135s43.333 -96.333 54 -159s3.66699 -131 -21 -205s-67 -134.333 -127 -181s-146 -83.334 -258 -110.001l372 -608c24 -29.333 60 -43.333 108 -42v-60
c-68 -2.66699 -114 14.666 -138 51.999l-402 646v24c137.333 52.667 231.166 100 281.499 142s86 93.333 107 154s27.667 118.667 20 174s-22 101.166 -43 137.499s-63.167 75.833 -126.5 118.5s-146.333 68.667 -249 78h-940zM557.001 1109h404c18 0 40 -10.5 66 -31.5
s41.333 -64.5 46 -130.5c-2.66699 -68.667 -16.5 -111.667 -41.5 -129s-48.167 -26 -69.5 -26h-405v317zM619.001 1051l-0.00195312 -204h309c16 0 33.833 5.5 53.5 16.5s30.167 39.167 31.5 84.5c-3.33301 41.333 -15.166 68.833 -35.499 82.5s-37.166 20.5 -50.499 20.5
h-308zM59.999 60.0039h462.001v477h97l585 -873c61.333 -80 176.666 -118.667 345.999 -116v-60c-190 -1.33301 -314.667 36 -374 112l-594 877v-477h-522v60zM120 1074v-704h-60v704h60zM60 120.004l-0.000976562 190h122v824h-122v190h940c92 -8 165.333 -30.667 220 -68
s91 -71.333 109 -102s29.667 -69.667 35 -117s0 -96 -16 -146s-43.667 -92.333 -83 -127s-143.666 -95.334 -312.999 -182.001v-26l432 -692c26 -44.667 81.333 -66.667 166 -66v-190c-152 -5.33301 -259.333 33.334 -322 116.001l-562 876h-202v-480h-404zM503.999 1165
v-437h496c26 0 54.333 12.167 85 36.5s48 83.5 52 177.5c-6 91.333 -25 151.333 -57 180s-59 43 -81 43h-495z" />
    <glyph glyph-name="P" unicode="P" horiz-adv-x="1501" 
d="M60 0l0.00585938 59.999h462v477h512c113.333 23.333 200 60 260 110s100 108.333 120 175s24.333 129.667 13 189s-27.333 111 -48 155s-61.334 88 -122.001 132s-146.334 72.667 -257.001 86h-940v60h940c116 -14.667 209.667 -44.667 281 -90
s121.666 -100.666 150.999 -165.999s46.666 -121 51.999 -167s6.66602 -91.333 3.99902 -136s-12.334 -90 -29.001 -136s-61.667 -98.333 -135 -157s-170 -97 -290 -115h-452v-477h-522zM557.006 1109h404c18 0 40 -10.5 66 -31.5s41.333 -64.5 46 -130.5
c-2.66699 -68.667 -16.5 -111.667 -41.5 -129s-48.167 -26 -69.5 -26h-405v317zM619.006 1051l-0.00195312 -204h309c16 0 33.833 5.5 53.5 16.5s30.167 39.167 31.5 84.5c-3.33301 41.333 -15.166 68.833 -35.499 82.5s-37.166 20.5 -50.499 20.5h-308zM120.004 1074v-704
h-60v704h60zM60.0039 119.999v189.997h122v824h-122v190h940c88 -21.333 158 -48.666 210 -81.999s88 -68.666 108 -105.999s34 -82.666 42 -135.999s4.66699 -106 -10 -158s-44.667 -98.667 -90 -140s-121.333 -75.333 -228 -102h-568v-480h-404zM504.004 1165v-437h496
c26 0 54.333 12.167 85 36.5s48 83.5 52 177.5c-6 91.333 -25 151.333 -57 180s-59 43 -81 43h-495z" />
    <glyph glyph-name="Q" unicode="Q" horiz-adv-x="1639" 
d="M1556 736c12 138.667 -7.50098 256.998 -58.501 354.998s-134.333 173.333 -250 226s-253.167 79 -412.5 79c-120 0 -227.333 -15 -322 -45s-174.667 -73.667 -240 -131s-114.833 -128.166 -148.5 -212.499s-51.834 -181.833 -54.501 -292.5
c2.66699 -146.667 33.5 -270.667 92.5 -372s145.833 -178 260.5 -230s252 -78 412 -78l744 25h60v-60l-859 -25c-123.333 3.33301 -232.166 21 -326.499 53s-174.833 79.833 -241.5 143.5s-117 141.5 -151 233.5s-51 197.333 -51 316c0 121.333 17.667 225.5 53 312.5
s87 162.5 155 226.5s150 112 246 144s218.667 50 368 54c152 -4 286 -27.333 402 -70s210.667 -113.334 284 -212.001s106 -245.334 98 -440.001c-16 -88 -48 -165 -96 -231s-22.333 -91 77 -75h42v-60h-60c-118 6.66699 -167.667 34.334 -149 83.001
s39.334 88.334 62.001 119.001s44 85.334 64 164.001zM498.999 702.998c0 242 109.999 362.999 329.999 362.999c140 0 231.667 -36.5 275 -109.5s67.333 -157.5 72 -253.5c-4.66699 -70 -14.5 -140.833 -29.5 -212.5s-120.833 -97.5 -317.5 -77.5v-76
c-131.333 0 -219.166 36.333 -263.499 109s-66.5 158.334 -66.5 257.001zM550.998 701.997c0 -82 18.3311 -154 54.998 -216s109.334 -93 218.001 -93v64c162.667 -16 250.334 6.16699 263.001 66.5s20.667 119.833 24 178.5c-3.33301 82.667 -23 154.667 -59 216
s-112 92 -228 92c-182 0 -273 -102.667 -273 -308zM1488 730.997c-21.333 -68.667 -41.3311 -118.332 -59.998 -148.999s-37.334 -78 -56.001 -142s30 -107.333 146 -130h120v-190l-800 -25c-144 0 -267.833 23.667 -371.5 71s-181.834 116.833 -234.501 208.5
s-80.334 204.167 -83.001 337.5c2.66699 100 19.167 188.167 49.5 264.5s74.833 140.5 133.5 192.5s130.834 91.5 216.501 118.5s182.167 40.5 289.5 40.5c144 0 268.167 -23.833 372.5 -71.5s179.333 -115.834 225 -204.501s63.167 -195.667 52.5 -321zM438.998 703.999
c0 -118 25.667 -220.001 77 -306.001s153.333 -129 306 -129v91c229.333 -23.333 352.666 7.33398 369.999 92.001s29.333 168.667 36 252c-6.66699 113.333 -35.167 213 -85.5 299s-157.166 129 -320.499 129c-255.333 0 -383 -142.667 -383 -428z" />
    <glyph glyph-name="R" unicode="R" horiz-adv-x="1550" 
d="M60 1384l0.000976562 60.0029h940c116 -10.667 209 -39.334 279 -86.001s117.667 -91.667 143 -135s43.333 -96.333 54 -159s3.66699 -131 -21 -205s-67 -134.333 -127 -181s-146 -83.334 -258 -110.001l108 -138h372v-60h-407l-133 192v14
c137.333 55.333 231.166 104 281.499 146s86 93.333 107 154s27.667 118.667 20 174s-22 101.166 -43 137.499s-63.167 75.833 -126.5 118.5s-146.333 68.667 -249 78h-940zM557.001 1109h404c18 0 40 -10.5 66 -31.5s41.333 -64.5 46 -130.5
c-2.66699 -68.667 -16.5 -111.667 -41.5 -129s-48.167 -26 -69.5 -26h-405v317zM619.001 1051l-0.00195312 -204h309c16 0 33.833 5.5 53.5 16.5s30.167 39.167 31.5 84.5c-3.33301 41.333 -15.166 68.833 -35.499 82.5s-37.166 20.5 -50.499 20.5h-308zM59.999 60.0029h462
v477h97l456 -477h475v-60h-510l-458 477v-477h-522v60zM119.999 1074v-704h-60v704h60zM503.999 1165v-437h496c26 0 54.333 12.167 85 36.5s48 83.5 52 177.5c-6 91.333 -25 151.333 -57 180s-59 43 -81 43h-495zM59.999 120.003l-0.000976562 190.001h122v824h-122v190
h940c92 -8 165.333 -30.667 220 -68s91 -71.333 109 -102s29.667 -69.667 35 -117s0 -96 -16 -146s-43.667 -92.333 -83 -127s-143.666 -95.334 -312.999 -182.001v-26l176 -244l422 -2v-190h-444l-440 480h-202v-480h-404z" />
    <glyph glyph-name="S" unicode="S" horiz-adv-x="1135" 
d="M1135 1444v-60.001h-727c-138.667 -2.66699 -226 -76.667 -262 -222s59.333 -323.333 286 -534c168 -165.333 125.333 -251.333 -128 -258h-244v60h244c188.667 -5.33301 212.667 47.334 72 158.001c-232 213.333 -330.667 409.333 -296 588s144 268 328 268h727z
M1135 1014h-291.001c-171.333 5.33301 -196.666 -42 -75.999 -142c216 -189.333 322 -373.333 318 -552s-110 -285.334 -318 -320.001h-708v60h708c176 37.333 261.333 133.333 256 288s-122.666 329.334 -351.999 524.001c-106.667 138.667 -49.334 206 171.999 202h291
v-60zM59.999 309.999l244.999 0.000976562c312.667 20 373.667 138.667 183 356c-212 213.333 -304.667 376.666 -278 489.999s92.667 169.333 198 168h727v-190h-291c-278.667 8 -364.667 -78.667 -258 -260c242.667 -202.667 370.334 -370 383.001 -502
s-53.333 -216 -198 -252h-711v190z" />
    <glyph glyph-name="T" unicode="T" horiz-adv-x="1266" 
d="M458 60h350v1014h458v-60h-398v-1014h-470v1014h-398v60h458v-1014zM0 1444h1266v-60h-1266v60zM535 1134h-535v190h1266v-190h-514v-1001h-217v1001z" />
    <glyph glyph-name="U" unicode="U" horiz-adv-x="1494" 
d="M530 1444l0.000976562 -854c0.666992 -96.667 20.5 -164.167 59.5 -202.5s102.5 -58.833 190.5 -61.5c70.667 1.33301 129.667 22 177 62s69.666 107.333 66.999 202v854h470v-60h-410v-794c2 -101.333 -20.5 -178.333 -67.5 -231s-125.833 -83.667 -236.5 -93
c-116 4 -196.333 32 -241 84s-67.667 132 -69 240v794h-410v60h470zM1434 1074l60.001 0.00195312v-477c-2 -120 -21.833 -215.833 -59.5 -287.5s-85.334 -131.5 -143.001 -179.5s-130 -85.333 -217 -112s-183.833 -41.334 -290.5 -44.001
c-88.667 2 -178.834 14.167 -270.501 36.5s-171.667 57.5 -240 105.5s-121 109.667 -158 185s-55.5 173.666 -55.5 294.999v478h60v-478c6.66699 -118.667 25 -207.667 55 -267s75.333 -111.666 136 -156.999s133.667 -79 219 -101s170 -34.333 254 -37
c100 4 191.333 19 274 45s149 60.667 199 104s91.333 94.666 124 153.999s50.334 146 53.001 260v477zM60.002 1324l357.001 -0.00390625v-732c0.666992 -117.333 26.667 -209.333 78 -276s145.666 -100.667 282.999 -102c130.667 8 223.667 44.333 279 109
s82.333 154.334 81 269.001v732h356v-190h-113v-537c-5.33301 -107.333 -21.5 -186.166 -48.5 -236.499s-62 -93.833 -105 -130.5s-104 -68.5 -183 -95.5s-165.167 -42.5 -258.5 -46.5c-78.667 2.66699 -158.167 14.334 -238.5 35.001s-147.5 52.334 -201.5 95.001
s-93.333 86.5 -118 131.5s-40 127.167 -46 246.5v538h-122v190z" />
    <glyph glyph-name="V" unicode="V" horiz-adv-x="1586" 
d="M60 1384h372l334 -1109h87l329 1109h404v60h-447l-332 -1109l-328 1109h-419v-60zM1574 1014h12v60h-54l-365 -1014h-693l-352 1014h-62v-60h12l364 -1014h767zM107 1324h275l341 -1112h170l336 1112h357v-190h-87l-372 -1019h-617l-339 1019h-111v190h47z" />
    <glyph glyph-name="W" unicode="W" horiz-adv-x="1932" 
d="M60 1384v60h358l198 -624l172 624h432l201 -624l134 624h377v-60h-329l-148 -624h-67l-209 624h-340l-180 -624h-86l-198 624h-315zM1872 1074h60v-60h-12l-257 -1014h-470l-183 612l-152 -612h-470l-316 1014h-12v60h60l318 -1014h374l158 611h82l187 -611h380zM60 1324
h270l204 -616h158l195 619h252l213 -618h133l156 615h291v-190h-106l-249 -1023h-297l-192 613h-158l-168 -605l-278 1l-318 1014h-106v190z" />
    <glyph glyph-name="X" unicode="X" horiz-adv-x="1248" 
d="M60 1384v60h296l294 -446l298 446h300v-60h-262l-303 -446h-65l-296 446h-262zM1248 0h-300l-298 446l-294 -446h-296v60h268l286 446h80l288 -446h266v-60zM60 370v60h12l244 292l-244 292h-12v60h60l256 -312v-70l-256 -322h-60zM1248 370v60h-12l-244 292l244 292h12
v60h-60l-256 -312v-70l256 -322h60zM60 1324h229l301 -432h120l300 432h238v-190h-109l-265 -338v-128l279 -358h95v-190h-222l-298 440h-146l-284 -440h-238v190h104l264 362v120l-266 342h-102v190z" />
    <glyph glyph-name="Y" unicode="Y" horiz-adv-x="1264" 
d="M60 1384v60h306l294 -446l298 446h306v-60h-266l-303 -446h-65l-296 446h-274zM1264 1074v-60h-26l-340 -484v-530h-472v530l-340 484h-26v60h60l368 -526v-488h352v488l364 526h60zM60 1324h242l304 -444h120l302 444h236v-190h-82l-396 -570v-448h-226v444l-401 574
h-99v190z" />
    <glyph glyph-name="Z" unicode="Z" horiz-adv-x="1380" 
d="M60 1384v60h1320v-430l-699 -584h699v-60h-759v85l699 578v351h-1260zM1380 0h-1320v430l699 584h-699v60h755v-85l-695 -586v-343h1260v-60zM60 1324h1202v-266l-696 -566v-182h814v-190h-1204v262l690 584v168h-805z" />
    <glyph glyph-name="bracketleft" unicode="[" 
d="M60 1444h-300v-430h300v60h-240v310h240v60zM60 1324h-180v-190h180v190z" />
    <glyph glyph-name="backslash" unicode="\" 
d="M1636 -82h300v-430h-300v60h240v310h-240v60zM1816 -202h-180v-190h180v190z" />
    <glyph glyph-name="bracketright" unicode="]" 
d="M0 1444h300v-430h-300v60h240v310h-240v60zM181 1324h-181v-190h181v190z" />
    <glyph glyph-name="asciicircum" unicode="^" 
d="M60 370h60v-310h-60v310z" />
    <glyph glyph-name="underscore" unicode="_" horiz-adv-x="1440" 
d="M1001 430v291.999h439v-722h-621c-152 0 -289.5 27.833 -412.5 83.5s-219.833 139.167 -290.5 250.5s-106 247.666 -106 408.999c0 113.333 21.167 214.5 63.5 303.5s101 163 176 222s150.833 106.333 227.5 142s189.667 57.5 339 65.5
c154.667 -8 272.667 -26.667 354 -56s163.333 -82.666 246 -159.999l-284 -316c-48 40 -90.667 68.667 -128 86s-98.666 28.666 -183.999 33.999c-82.667 -10.667 -143.334 -28.667 -182.001 -54s-72.667 -58 -102 -98s-48 -101.333 -56 -184
c8 -82.667 26.667 -140.667 56 -174s66 -60.666 110 -81.999s91.333 -34.666 142 -39.999s121.667 -6 213 -2zM1324 1252c-45.333 50.667 -104.668 88 -178.001 112s-183.333 40.333 -330 49c-140 -3.33301 -246.333 -22.333 -319 -57s-140.667 -78.667 -204 -132
s-115.666 -120 -156.999 -200s-63.333 -175 -66 -285c14.667 -135.333 38.667 -235.666 72 -300.999s72.666 -121.333 117.999 -168s118 -92.667 218 -138s212.667 -69.333 338 -72h564v602h-318v-292c-38.667 -14.667 -119.334 -20.667 -242.001 -18
c-98.667 13.333 -172 32.666 -220 57.999s-92 63.333 -132 114s-60 122 -60 214c0 94.667 19.333 166.667 58 216s82.834 88.333 132.501 117s126.834 45.667 231.501 51c113.333 4 212 -27.333 296 -94zM1246 1248l-127.998 -149.998
c-57.333 49.333 -152 74.666 -284 75.999c-121.333 -2.66699 -210.333 -19.334 -267 -50.001s-108.334 -75.667 -155.001 -135s-73.334 -143 -80.001 -251c1.33301 -102.667 28.333 -184.334 81 -245.001s106 -104 160 -130s137 -47.667 249 -65
c142.667 -4 240.667 5.33301 294 28v272h206v-482h-506c-109.333 4 -201.666 23 -276.999 57s-142 76 -200 126s-107.333 107 -148 171s-63 153.333 -67 268c5.33301 104 28.666 193.667 69.999 269s89.333 136.333 144 183s116 85.334 184 116.001s166.667 48.667 296 54
c140 -8 242 -22.667 306 -44s104.667 -44 122 -68z" />
    <glyph glyph-name="grave" unicode="`" horiz-adv-x="1615" 
d="M-20 1014v430h1212l483 -1444h-546l-91 260h-429l-91 -260h-518l333 1014h-353zM84 60h394l93 260h515l94 -260h413l-440 1324h-1113v-310h382zM708 612h238l-110 322zM172 128l340 1008h-408v184h996l412 -1192h-284l-100 256h-600l-92 -256h-264zM838 1057l186 -489
h-386zM840 1181l-282 -671h549z" />
    <glyph glyph-name="a" unicode="a" horiz-adv-x="1615" 
d="M0 0l475 1444h717l483 -1444h-546l-91 260h-429l-91 -260h-518zM840 1181l-282 -671h549zM184 132l396 1188h524l400 -1188h-276l-108 256h-588l-96 -256h-252zM708 612h238l-110 322zM84 60h394l93 260h515l94 -260h413l-440 1324h-628zM838 1057l186 -489h-386z" />
    <glyph glyph-name="b" unicode="b" horiz-adv-x="1628" 
d="M60 0l0.000976562 1444h985c158 -1.33301 278.167 -28.666 360.5 -81.999s132.166 -142.666 149.499 -267.999c6 -96 -14.333 -171.333 -61 -226s-123.667 -99.667 -231 -135v-4c52.667 -6.66699 101.334 -20.834 146.001 -42.501s82.167 -47.334 112.5 -77.001
s53.833 -63.167 70.5 -100.5s25 -74 25 -110c0 -114 -29.167 -200.333 -87.5 -259s-133.333 -97 -225 -115s-202.834 -26.333 -333.501 -25h-911zM490.001 1153v-343h382c68.667 -2 127.167 13.333 175.5 46s72.5 73.667 72.5 123c3.33301 56.667 -19 99.5 -67 128.5
s-108.333 44.167 -181 45.5h-382zM580.001 1048v-120.001h264c88 -5.33301 136.667 13.334 146 56.001c-17.333 42.667 -66 64 -146 64h-264zM184.001 123.999l-0.00195312 1192h822c126.667 -1.33301 225.334 -18.333 296.001 -51s110 -91.667 118 -177
c5.33301 -82.667 -8.66699 -142 -42 -178s-104.666 -95.333 -213.999 -178l226 -168c65.333 -48 99.333 -102.667 102 -164c-2.66699 -80 -20.667 -139.333 -54 -178s-95.333 -64.667 -186 -78s-192 -20 -304 -20h-764zM485.999 621.999l-0.00292969 -387.999h423
c78.667 -4 142.834 10.167 192.501 42.5s76.834 82.166 81.501 149.499c-4.66699 66 -30.667 115.5 -78 148.5s-112.666 48.833 -195.999 47.5h-423zM579.996 512l-0.000976562 -164.001h320c93.333 -5.33301 144 21.334 152 80.001c-5.33301 56 -54.666 84 -147.999 84
h-324zM119.995 59.999l851.001 0.00292969c128.667 -2.66699 236.5 4.66602 323.5 21.999s153.167 52.166 198.5 104.499s66.666 123.166 63.999 212.499c0 35.333 -7.66699 68 -23 98s-35 56.667 -59 80s-55 44.5 -93 63.5l-174 91.5c104 52 179.5 102.333 226.5 151
s67.167 119 60.5 211c-14.667 105.333 -57.667 179.5 -129 222.5s-178.333 65.5 -321 67.5h-925v-1324zM533.996 1100h310.998c58.667 0 107.334 -9.83301 146.001 -29.5s57 -48.5 55 -86.5c4 -44.667 -12.667 -77.167 -50 -97.5s-87.666 -26.5 -150.999 -18.5h-311v232z
M537.994 570.002l345 -0.000976562c67.333 2 121.666 -9 162.999 -33s62 -60 62 -108c0 -53.333 -16.667 -90.666 -50 -111.999s-91.666 -31.333 -174.999 -30h-345v283z" />
    <glyph glyph-name="c" unicode="c" horiz-adv-x="1484" 
d="M1484 430l0.00292969 -429.999h-640c-156.667 0 -298.334 27.833 -425.001 83.5s-226.5 139.167 -299.5 250.5s-109.5 247.666 -109.5 408.999c0 113.333 21.833 214.5 65.5 303.5s104.167 163 181.5 222s166.166 103 266.499 132s207.166 43.5 320.499 43.5h640v-430
h-452c-101.333 0 -176.333 -3 -225 -9s-92 -16 -130 -30s-71.667 -38.333 -101 -73s-46.333 -96 -51 -184c3.33301 -85.333 20.333 -146.333 51 -183s68 -61 112 -73s89.333 -20.333 136 -25s116 -7 208 -7h452zM1440 1384l-594 0.00195312
c-110.667 -2.66699 -211.667 -16.334 -303 -41.001s-172 -63 -242 -115s-126 -118.167 -168 -198.5s-64.333 -174.833 -67 -283.5c-1.33301 -152.667 33.167 -280.167 103.5 -382.5s165 -178.333 284 -228s251.5 -75.834 397.5 -78.501h589v313h-398
c-92 -1.33301 -165.167 1 -219.5 7s-107.833 16 -160.5 30s-97 45.333 -133 94s-57 122 -63 220c8 112.667 31.167 188.334 69.5 227.001s79.5 66.667 123.5 84s92.833 29.166 146.5 35.499s129.167 9.83301 226.5 10.5h408v306zM1378 1328l0.000976562 -192h-346
c-100 -1.33301 -179.667 -5.66602 -239 -12.999s-115 -21 -167 -41s-100 -52 -144 -96s-70 -132.667 -78 -266c8 -109.333 33.333 -192 76 -248s94.334 -93.333 155.001 -112s120 -31.334 178 -38.001s132.333 -10 223 -10h336v-192h-528c-130.667 0 -250 23.333 -358 70
s-194.667 115.334 -260 206.001s-98 206.667 -98 348c5.33301 101.333 26.666 188 63.999 260s88.666 132 153.999 180s139.333 82.667 222 104s176 34.666 280 39.999h530z" />
    <glyph glyph-name="d" unicode="d" horiz-adv-x="1662" 
d="M60 0l0.00195312 1444h852c115.333 0 217.5 -14.333 306.5 -43s163.333 -70 223 -124s109.667 -125.333 150 -214s60.5 -202.334 60.5 -341.001c-7.33301 -134.667 -29.333 -248 -66 -340s-85.334 -164.667 -146.001 -218s-134.834 -94.666 -222.501 -123.999
s-197.5 -42.666 -329.5 -39.999h-828zM450.002 1135v-843h341c78 0 140.833 15.5 188.5 46.5s86.167 70.5 115.5 118.5s48.333 134 57 258c-2.66699 112 -19.667 195 -51 249s-71.333 96 -120 126s-112.667 45 -192 45h-339zM180.002 119.999l0.000976562 1200l721 -3
c107.333 3.33301 199.166 -9 275.499 -37s135.833 -62.5 178.5 -103.5s74.334 -81.167 95.001 -120.5s37.167 -76.166 49.5 -110.499s21.166 -109.833 26.499 -226.5c-4.66699 -121.333 -24.5 -219.166 -59.5 -293.499s-73.333 -130.5 -115 -168.5s-94 -69.167 -157 -93.5
s-168.167 -38.833 -315.5 -43.5h-699zM574.003 1006l0.000976562 -602.002h214c60.667 2 105.167 14.833 133.5 38.5s49.666 49 63.999 76s24.833 89.167 31.5 186.5c-4.66699 81.333 -15 139.333 -31 174s-38.5 64.334 -67.5 89.001s-72.833 37.334 -131.5 38.001h-213z
M514.004 1074l277.999 -0.000976562c64.667 0 117 -13 157 -39s72.833 -62.5 98.5 -109.5s39.834 -119.167 42.501 -216.5c-8 -107.333 -24 -181.666 -48 -222.999s-55.5 -75.333 -94.5 -102s-90.167 -40 -153.5 -40h-280v730zM120.003 59.9941l768 0.000976562
c160 4 274.333 19.667 343 47s125.667 62 171 104s87.333 104 126 186s60 190.333 64 325c-5.33301 129.333 -15 213 -29 251s-32 78.667 -54 122s-56.333 87.666 -103 132.999s-111.667 83.333 -195 114s-183 44.667 -299 42h-792v-1324z" />
    <glyph glyph-name="e" unicode="e" horiz-adv-x="1360" 
d="M60 0v1444h1238v-430h-768v-166h496v-252h-496v-166h830v-430h-1300zM180 1324h1000v-188h-760v-388h484v-54h-486l-2 -386h824v-192h-1060v1208zM120 1384v-1324h1180v310h-830v284h496v134h-496v286h768v310h-1118z" />
    <glyph glyph-name="f" unicode="f" horiz-adv-x="1298" 
d="M60 0v1444h1238v-430h-768v-166h496v-252h-496v-596h-470zM120 1384v-1324h350v594h496v134h-496v286h768v310h-1118zM180 1324h1000v-192h-760v-384h484v-54h-486l-2 -574h-236v1204z" />
    <glyph glyph-name="g" unicode="g" horiz-adv-x="1484" 
d="M1424 1074l0.000976562 310h-580c-109.333 -1.33301 -209.333 -14.333 -300 -39s-171 -64.334 -241 -119.001s-125.667 -122 -167 -202s-63.333 -173.667 -66 -281c-1.33301 -151.333 32.667 -277.666 102 -378.999s162.666 -176.666 279.999 -225.999
s248 -75.333 392 -78h580v602h-332v-292h-60c-90.667 -1.33301 -162.667 1 -216 7s-106 16 -158 30s-95.667 45 -131 93s-56 120.667 -62 218c7.33301 112 30 187 68 225s78.667 65.667 122 83s91.5 29.166 144.5 35.499s130.5 10.5 232.5 12.5h392zM1484 1444
l0.00292969 -429.999h-452c-101.333 0 -176.333 -3 -225 -9s-92 -16 -130 -30s-71.667 -38.333 -101 -73s-46.333 -96 -51 -184c3.33301 -85.333 20.333 -146.333 51 -183s68 -61 112 -73s89.333 -20.333 136 -25s116 -7 208 -7v292h452v-722h-640
c-156.667 0 -298.334 27.833 -425.001 83.5s-226.5 139.167 -299.5 250.5s-109.5 247.666 -109.5 408.999c0 113.333 21.833 214.5 65.5 303.5s104.167 163 181.5 222s166.166 103 266.499 132s207.166 43.5 320.499 43.5h640zM1364 1328l0.000976562 -192h-332
c-100 -1.33301 -179.667 -5.66602 -239 -12.999s-115 -21 -167 -41s-100 -52 -144 -96s-70 -132.667 -78 -266c8 -109.333 33.333 -192 76 -248s94.334 -93.333 155.001 -112s120 -31.334 178 -38.001s132.333 -10 223 -10h112v292h220v-484h-524
c-130.667 0 -250 23.333 -358 70s-194.667 115.334 -260 206.001s-98 206.667 -98 348c5.33301 101.333 26.666 188 63.999 260s88.666 132 153.999 180s139.333 82.667 222 104s176 34.666 280 39.999h516z" />
    <glyph glyph-name="h" unicode="h" horiz-adv-x="1378" 
d="M908 946v498h470v-1444h-470v520h-378v-520h-470v1444h470v-498h378zM180 1324h232v-500h616v504h228v-1200h-228v504h-608v-508h-240v1200zM120 1384v-1324h350v520h498v-520h350v1324h-350v-498h-498v498h-350z" />
    <glyph glyph-name="i" unicode="i" horiz-adv-x="530" 
d="M60 1444h470v-1444h-470v1444zM181 1318l227 2v-1200l-227 -3v1201zM120 1384v-1324h350v1324h-350z" />
    <glyph glyph-name="j" unicode="j" horiz-adv-x="856" 
d="M856 1444l0.00195312 -430h-60v-560c-5.33301 -105.333 -21.333 -180 -48 -224s-67.334 -85.667 -122.001 -125s-128.667 -69.666 -222 -90.999c-90.667 -6.66699 -164.334 -10.334 -221.001 -11.001s-117.667 -1.66699 -183 -3v430c52 -13.333 110.667 -13.333 176 0
c52 12 88 26 108 42s34 54 42 114v858h530zM436.002 1324l304 -0.00195312l2 -196h-58v-676c0 -57.333 -7.33301 -105.666 -22 -144.999s-38.667 -72.666 -72 -99.999s-94 -52.333 -182 -75c-93.333 -12 -186.666 -18 -279.999 -18v202c42.667 -2.66699 80 2 112 14
s70.667 34.667 116 68s72.666 95.333 81.999 186zM386.002 1384l0.000976562 -797.999c-8.66699 -76 -30.334 -126.667 -65.001 -152s-83 -45.333 -145 -60c-39.333 -10.667 -78 -14 -116 -10v-304c139.333 -1.33301 254 3.33398 344 14.001
c93.333 22.667 162 50.667 206 84s76 70.166 96 110.499s30 102.166 30 185.499v620h60v310h-410z" />
    <glyph glyph-name="k" unicode="k" horiz-adv-x="1404" 
d="M530 1444v-470l330 470h470l-538 -722l240 -292h372v-430h-510l-364 430v-430h-470v1444h470zM180 1322h230v-461h185l322 467h182l-419 -588v-28l299 -397l305 1v-200l-325 -1l-383 429h-162v-425h-233zM120 1384v-1324h350v430h83l371 -430h420v310h-341l-271 338v24
l483 652h-324l-320 -470h-101v470h-350z" />
    <glyph glyph-name="l" unicode="l" horiz-adv-x="1312" 
d="M60 0v1444h470v-1014h782v-430h-1252zM120 1384v-1324h1132v310h-782v1014h-350zM180 1318h226v-1010h782v-192h-1008v1202z" />
    <glyph glyph-name="m" unicode="m" horiz-adv-x="1630" 
d="M60 0v1444h470l316 -600l314 600h470v-1444h-470v600l-302 -600h-26l-302 600v-600h-470zM184 1320h278l378 -628h16l380 628h272v-1188h-228v592h-188l-248 -516l-252 520h-180v-600h-228v1192zM120 1384v-1324h350v606h92l280 -582l285 576h93v-600h350v1324h-375
l-344 -624h-8l-348 624h-375z" />
    <glyph glyph-name="n" unicode="n" horiz-adv-x="1430" 
d="M60 0v1444h470l430 -540v540h470v-1444h-470l-430 540v-540h-470zM180 1320h294l418 -534h194v532h225v-1200h-282l-431 539h-176l-2 -537h-240v1200zM120 1384v-1324h350v540h95l430 -540h375v1324h-350v-538h-95l-420 538h-385z" />
    <glyph glyph-name="o" unicode="o" horiz-adv-x="1677" 
d="M1547 714c-2 -131.333 -30.999 -243.166 -86.999 -335.499s-136.833 -162 -242.5 -209s-231.834 -70.5 -378.501 -70.5s-272.667 23.667 -378 71s-185 116.666 -239 207.999s-82 203.333 -84 336c2 100 18.5 188.167 49.5 264.5s76.333 140.333 136 192s133 91 220 118
s185.5 40.5 295.5 40.5c146 0 272 -23.833 378 -71.5s187 -117.5 243 -209.5s85 -203.333 87 -334zM1668 714c0 -158 -33.0029 -292.667 -99.0029 -404s-161.5 -195 -286.5 -251s-274.167 -84 -447.5 -84s-322.166 28.167 -446.499 84.5s-218.5 139.666 -282.5 249.999
s-96 245.166 -96 404.499c0 120.667 18.333 226.834 55 318.501s90.334 168.834 161.001 231.501s157.334 110.167 260.001 142.5s219 48.5 349 48.5c172.667 0 321.667 -28.5 447 -85.5s221 -141 287 -252s99 -245.5 99 -403.5zM425.998 708
c0 -116.667 27 -219.001 81 -307.001s160.333 -132 319 -132c124 0 216.667 23.167 278 69.5s99.5 99 114.5 158s25.833 129.5 32.5 211.5c-6.66699 118.667 -36.5 221.834 -89.5 309.501s-164.833 131.5 -335.5 131.5c-266.667 0 -400 -147 -400 -441zM550.998 708.999
c0 -84.667 18.667 -158.501 56 -221.501s111.666 -94.5 222.999 -94.5c85.333 0 149.333 16.667 192 50s69.334 71 80.001 113s17.667 93 21 153c-3.33301 84.667 -23.5 158.334 -60.5 221.001s-114.5 94 -232.5 94c-186 0 -279 -105 -279 -315zM1608 713.998
c-2.66699 145.333 -34.499 268.999 -95.499 370.999s-149.333 179.333 -265 232s-253.167 79 -412.5 79c-120 0 -227.333 -15 -322 -45s-174.667 -73.667 -240 -131s-114.833 -128.166 -148.5 -212.499s-51.834 -181.833 -54.501 -292.5
c2.66699 -146.667 33.5 -270.667 92.5 -372s145.833 -178 260.5 -230s252 -78 412 -78s297.667 25.833 413 77.5s203.5 128.667 264.5 231s92.833 225.833 95.5 370.5zM485.999 711.997c0 253.333 113.335 380 340.002 380c144 0 238.333 -37.833 283 -113.5
s69.667 -164.5 75 -266.5c-5.33301 -71.333 -14.333 -132.5 -27 -183.5s-44.834 -96.333 -96.501 -136s-129.834 -59.5 -234.501 -59.5c-134.667 0 -225 37.833 -271 113.5s-69 164.167 -69 265.5z" />
    <glyph glyph-name="p" unicode="p" horiz-adv-x="1501" 
d="M60 0l0.00390625 1444h940c116 -14.667 209.667 -44.667 281 -90s121.666 -100.666 150.999 -165.999s46.666 -121 51.999 -167s6.66602 -91.333 3.99902 -136s-12.334 -90 -29.001 -136s-61.667 -98.333 -135 -157s-170 -97 -290 -115h-452v-477h-522zM504.004 1165
v-437h496c26 0 54.333 12.167 85 36.5s48 83.5 52 177.5c-6 91.333 -25 151.333 -57 180s-59 43 -81 43h-495zM184.004 127.999v1189l816 3c88 -18.667 158 -44.667 210 -78s88 -68.666 108 -105.999s34 -82.666 42 -135.999s4.66699 -106 -10 -158
s-44.667 -98.667 -90 -140s-121.333 -75.333 -228 -102h-568v-472h-280zM619.004 1051l-0.00195312 -204h309c16 0 33.833 5.5 53.5 16.5s30.167 39.167 31.5 84.5c-3.33301 41.333 -15.166 68.833 -35.499 82.5s-37.166 20.5 -50.499 20.5h-308zM120.002 59.9971h402.002
v477h512c113.333 23.333 200 60 260 110s100 108.333 120 175s24.333 129.667 13 189s-27.333 111 -48 155s-61.334 88 -122.001 132s-146.334 72.667 -257.001 86h-880v-1324zM557.004 1109h404c18 0 40 -10.5 66 -31.5s41.333 -64.5 46 -130.5
c-2.66699 -68.667 -16.5 -111.667 -41.5 -129s-48.167 -26 -69.5 -26h-405v317z" />
    <glyph glyph-name="q" unicode="q" horiz-adv-x="1639" 
d="M1639 430l-0.000976562 -429.998l-859 -25c-123.333 3.33301 -232.166 21 -326.499 53s-174.833 79.833 -241.5 143.5s-117 141.5 -151 233.5s-51 197.333 -51 316c0 121.333 17.667 225.5 53 312.5s87 162.5 155 226.5s150 112 246 144s218.667 50 368 54
c152 -4 286 -27.333 402 -70s210.667 -113.334 284 -212.001s106 -245.334 98 -440.001c-16 -88 -48 -165 -96 -231s-22.333 -91 77 -75h42zM1488 731.002c-21.333 -68.667 -41.3311 -118.332 -59.998 -148.999s-37.334 -78 -56.001 -142s29.333 -108 144 -132v-180
l-678 -33c-144 0 -267.833 23.667 -371.5 71s-181.834 116.833 -234.501 208.5s-80.334 204.167 -83.001 337.5c2.66699 100 19.167 188.167 49.5 264.5s74.833 140.5 133.5 192.5s130.834 91.5 216.501 118.5s182.167 40.5 289.5 40.5c144 0 268.167 -23.833 372.5 -71.5
s179.333 -115.834 225 -204.501s63.167 -195.667 52.5 -321zM439.001 704.004c0 -118 25.667 -220.001 77 -306.001s153.333 -129 306 -129v91c229.333 -23.333 352.666 7.33398 369.999 92.001s29.333 168.667 36 252c-6.66699 113.333 -35.167 213 -85.5 299
s-157.166 129 -320.499 129c-255.333 0 -383 -142.667 -383 -428zM551.001 702.003c0 -82 18.3311 -154 54.998 -216s109.334 -93 218.001 -93v64c162.667 -16 250.334 6.16699 263.001 66.5s20.667 119.833 24 178.5c-3.33301 82.667 -23 154.667 -59 216s-112 92 -228 92
c-182 0 -273 -102.667 -273 -308zM1552 736.003c14.667 138.667 -3.5 256.996 -54.5 354.996s-134.333 173.333 -250 226s-253.167 79 -412.5 79c-120 0 -227.333 -15 -322 -45s-174.667 -73.667 -240 -131s-114.833 -128.166 -148.5 -212.499
s-51.834 -181.833 -54.501 -292.5c2.66699 -146.667 33.5 -270.667 92.5 -372s145.833 -178 260.5 -230s252 -78 412 -78l744 25v310c-118 6.66699 -167.667 34.334 -149 83.001s39.334 88.334 62.001 119.001s42.667 85.334 60 164.001zM498.999 702.999
c0 242 109.999 362.999 329.999 362.999c140 0 231.667 -36.5 275 -109.5s67.333 -157.5 72 -253.5c-4.66699 -70 -14.5 -140.833 -29.5 -212.5s-120.833 -97.5 -317.5 -77.5v-76c-131.333 0 -219.166 36.333 -263.499 109s-66.5 158.334 -66.5 257.001z" />
    <glyph glyph-name="r" unicode="r" horiz-adv-x="1550" 
d="M60 0v1444h940c116 -10.667 209 -39.334 279 -86.001s117.667 -91.667 143 -135s43.333 -96.333 54 -159s3.66699 -131 -21 -205s-67 -134.333 -127 -181s-146 -83.334 -258 -110.001l108 -138h372v-430h-510l-458 477v-477h-522zM120 60.002l402 0.000976562v477h97
l456 -477h415v310h-347l-135 190v28c142.667 46.667 238.667 90.667 288 132s84 92.833 104 154.5s26.167 120.167 18.5 175.5s-22 101.166 -43 137.499s-63.167 75.833 -126.5 118.5s-146.333 68.667 -249 78h-880v-1324zM557 1109h404c18 0 40 -10.5 66 -31.5
s41.333 -64.5 46 -130.5c-2.66699 -68.667 -16.5 -111.667 -41.5 -129s-48.167 -26 -69.5 -26h-405v317zM619 1051l-0.00195312 -204h309c16 0 33.833 5.5 53.5 16.5s30.167 39.167 31.5 84.5c-3.33301 41.333 -15.166 68.833 -35.499 82.5s-37.166 20.5 -50.499 20.5h-308z
M183.998 128.003v1198h816c92 -9.33301 165.333 -32.666 220 -69.999s91 -71.333 109 -102s29.667 -69.667 35 -117s0 -96 -16 -146s-43.667 -92.333 -83 -127s-145 -92 -317 -172v-28l164 -258h318v-184h-318l-446 478h-202v-472h-280zM503.998 1165v-437h496
c26 0 54.333 12.167 85 36.5s48 83.5 52 177.5c-6 91.333 -25 151.333 -57 180s-59 43 -81 43h-495z" />
    <glyph glyph-name="s" unicode="s" horiz-adv-x="1135" 
d="M1135 1444l-0.000976562 -430h-291c-171.333 5.33301 -196.666 -42 -75.999 -142c216 -189.333 322 -373.333 318 -552s-110 -285.334 -318 -320.001h-768v430h304c188.667 -5.33301 212.667 47.334 72 158.001c-232 213.333 -330.667 409.333 -296 588s144 268 328 268
h727zM127.999 314l175.998 0.00292969c313.333 17.333 374.666 134.666 183.999 351.999c-212 213.333 -304.667 376.666 -278 489.999s93.334 168.666 200.001 165.999h604v-188h-170c-278.667 8 -364.667 -78.667 -258 -260c242.667 -202.667 370.334 -370 383.001 -502
s-53.666 -215.333 -198.999 -250h-642v192zM59.9971 370.003v-310.001h708c176 37.333 261.333 133.333 256 288s-122.666 329.334 -351.999 524.001c-106.667 138.667 -49.334 206 171.999 202h231v310h-667c-138.667 -2.66699 -226 -76.667 -262 -222
s59.333 -323.333 286 -534c168 -165.333 125.333 -251.333 -128 -258h-244z" />
    <glyph glyph-name="t" unicode="t" horiz-adv-x="1266" 
d="M1266 1444v-430h-398v-1014h-470v1014h-398v430h1266zM60 1384v-310h398v-1014h350v1014h398v310h-1146zM536 1136h-404v188h1008v-188h-388l2 -1003h-218v1003z" />
    <glyph glyph-name="u" unicode="u" horiz-adv-x="1494" 
d="M530 1444l0.00292969 -853.998c-4 -97.333 14.667 -165 56 -203s106 -58.333 194 -61c70.667 1.33301 129.667 22 177 62s69.666 107.333 66.999 202v854h470v-847c-2 -120 -21.833 -215.833 -59.5 -287.5s-85.334 -131.5 -143.001 -179.5s-130 -85.333 -217 -112
s-183.833 -41.334 -290.5 -44.001c-88.667 2 -178.834 14.167 -270.501 36.5s-171.667 57.5 -240 105.5s-121 109.667 -158 185s-55.5 173.666 -55.5 294.999v848h470zM177.003 1327l240 -0.00292969v-735c-6 -118.667 18.333 -211 73 -277s150.667 -99.667 288 -101
c130.667 8 223.667 44.333 279 109s82.333 154.334 81 269.001v732h246v-726c-7.33301 -108 -24.5 -187.167 -51.5 -237.5s-62 -93.833 -105 -130.5s-104 -68.5 -183 -95.5s-165.167 -42.5 -258.5 -46.5c-78.667 2.66699 -158.167 14.334 -238.5 35.001
s-147.5 52.334 -201.5 95.001s-95.167 86.667 -123.5 132s-43.5 127.333 -45.5 246v731zM120.003 1384l-0.00195312 -788c1.33301 -121.333 18.333 -211 51 -269s79.334 -109.667 140.001 -155s133.667 -79 219 -101s170 -34.333 254 -37c100 4 191.333 19 274 45
s149 60.667 199 104s91.333 94.666 124 153.999s50.334 146 53.001 260v787h-350v-794c4 -101.333 -19.667 -178.666 -71 -231.999s-129.666 -84 -234.999 -92c-114.667 4 -195.334 32 -242.001 84s-68.667 132 -66 240v794h-350z" />
    <glyph glyph-name="v" unicode="v" horiz-adv-x="1722" 
d="M0 1444l508 -1444h767l515 1444h-579l-332 -1109l-328 1109h-551zM184 1323h277l338 -1107h170l334 1109h337l-437 -1206h-617zM87 1384h417l334 -1109h87l329 1109h460l-475 -1324h-693z" />
    <glyph glyph-name="w" unicode="w" horiz-adv-x="2003" 
d="M1062 612l-152 -612h-470l-440 1444h470l198 -624l172 624h432l201 -624l134 624h470l-362 -1444h-470zM158 1327h227l205 -619h158l195 619h252l213 -618h133l158 619h230l-296 -1217h-297l-192 613h-158l-168 -605l-278 1zM76 1384l414 -1324h374l158 611h82l187 -611
h380l333 1324h-349l-148 -624h-67l-209 624h-340l-180 -624h-86l-198 624h-351z" />
    <glyph glyph-name="x" unicode="x" horiz-adv-x="1616" 
d="M1732 1444l-530 -722l530 -722h-570l-298 446l-294 -446h-570l530 722l-530 722h570l294 -446l298 446h570zM226 1330h276l304 -442h120l302 444h286l-424 -540v-128l428 -550h-276l-298 442h-146l-284 -438h-272l402 550v120zM114 1384l476 -622v-70l-470 -632h422
l286 446h80l288 -446h422l-476 629v68l478 627h-420l-303 -446h-65l-296 446h-422z" />
    <glyph glyph-name="y" unicode="y" horiz-adv-x="1614" 
d="M1732 1444l-630 -914v-530h-472v530l-630 914h570l294 -446l298 446h570zM116 1384l576 -836v-488h352v488l578 836h-420l-303 -446h-65l-296 446h-422zM226 1330h276l304 -442h120l302 444h286l-528 -760v-448h-226v444z" />
    <glyph glyph-name="z" unicode="z" horiz-adv-x="1380" 
d="M60 1444h1320v-430l-699 -584h699v-430h-1320v430l699 584h-699v430zM184 1320h1078v-262l-696 -566v-174h686v-198h-1076v262l690 584v164h-682v190zM120 1384v-310h695l-1 -84l-694 -587v-343h1200v310h-699v85l699 578v351h-1200z" />
    <glyph glyph-name="braceleft" unicode="{" 
d="M60 430h-300v-430h300v60h-240v310h240v60zM60 310h-180v-190h180v190z" />
    <glyph glyph-name="bar" unicode="|" 
d="M-1636 -82h-300v-430h300v60h-240v310h240v60zM-1636 -202h-180v-190h180v190z" />
    <glyph glyph-name="braceright" unicode="}" 
d="M0 430h300v-430h-300v60h240v310h-240v60zM180 310h-180v-190h180v190z" />
    <glyph glyph-name="asciitilde" unicode="~" horiz-adv-x="1615" 
d="M1674 1014v430h-1212l-483 -1444h546l91 260h429l91 -260h518l-333 1014h353zM1570 60h-394l-93 260h-515l-94 -260h-413l440 1324h1113v-310h-382zM946 612h-238l110 322zM1483 128l-340 1008h408v184h-996l-412 -1192h284l100 256h600l92 -256h264zM817 1057l-186 -489
h386zM815 1181l282 -671h-549z" />
    <glyph glyph-name="paragraph" unicode="&#xb6;" horiz-adv-x="2048" 
d="M499 2515l379.001 39.002l20 -64l-167 -119l-106 -10l-70 -738c53.333 138.667 117.166 233.667 191.499 285s161.166 83.666 260.499 96.999s200.333 14.166 303 2.49902s180.834 -34.834 234.501 -69.501s99 -90 136 -166s60.833 -153.667 71.5 -233l20 -40l5 -183
l81 -649l-283 -148l5 -25l30 -25c210.667 52.667 322 49.334 334 -9.99902l122 -19c46 -53.333 45.667 -91.333 -1 -114l-1445 -40l-485 -59c-50 36 10.667 93.667 182 173l313 25l-45 49l-20 50l40 59l5 25l-141 64l60 644v164c-26.667 6.66699 -46.667 29.667 -60 69
l86 807l-66 30l-25 84zM1302 1482v-173l10 -20l-5 -827l81 -5l5 891h15v124zM918.001 1492l-35 -99l96 -20l20 114zM764.001 1400l15 90l-30 2l-20 -92h35zM610.001 1423h10l8 37l-71 5v-37zM1557 1462l-20 -106l40 2l36 97zM1618 1361l73 -3l33 45l7 44l-80 15z
M544.001 1395l335.001 -34.002l213 -42l-15 -728l-21 191c-14.667 140 -30.334 236.333 -47.001 289s-43.5 98.834 -80.5 138.501s-74 69 -111 88s-75.833 29.833 -116.5 32.5s-88.667 5.33398 -144 8.00098zM1432 1315l292 40.999l10 -72c-44 -13.333 -77.667 -25 -101 -35
s-43.5 -28.167 -60.5 -54.5s-36.5 -66.666 -58.5 -120.999s-43 -162.5 -63 -324.5l-23 -213zM524.002 1415l13 -96c42 1.33301 86.167 0.833008 132.5 -1.5s89.333 -13.833 129 -34.5s77.5 -50 113.5 -88s61.667 -80.667 77 -128s41.333 -223.333 78 -528l23 -13l18 810
l-230 40zM1416 1334l-3.00098 -870l23 3c35.333 332 66.833 531.833 94.5 599.5s50.834 112.167 69.501 133.5s43.5 37.833 74.5 49.5s55.167 17.5 72.5 17.5v104zM1067 458.999l-56.499 208.003c-13 50 -28 104.333 -45 163s-40.167 117 -69.5 175s-75 97.333 -137 118
c-65.333 -4.66699 -110.333 -22.334 -135 -53.001s-47.834 -72.834 -69.501 -126.501s-44.5 -140.834 -68.5 -261.501zM1767 648.002c-26 186.667 -50.001 311 -72.001 373s-45.667 88.333 -71 79c-41.333 -26 -69.166 -54.667 -83.499 -86s-24.333 -62.333 -30 -93
s-15.5 -93.667 -29.5 -189l-15 -164l-10 -96l311 163v13zM555.001 1514l-10.999 -14.999l16 -24l121 17l131 12l179 3l298 -12l195 -20l204 -3l66 -27l-5 67c-55.333 21.333 -114.333 36.666 -177 45.999s-140.334 17 -233.001 23s-184.667 8 -276 6s-175 -4.66699 -251 -8
s-161.667 -25 -257 -65zM582.002 1519c93.333 24.667 198 38.667 314 42s203.5 5 262.5 5s127.5 -1.66699 205.5 -5s147.833 -9.83301 209.5 -19.5s118.5 -24.5 170.5 -44.5l5 -37l-83 20l-270 19l-197 10l-240 5l-172 -2l-142 -13l-85 -14l-5 12zM954.002 1933
c100.667 -11.333 178.333 -18.333 233 -21s109.834 -5.66699 165.501 -9s89 -2 100 4s13.5 14.667 7.5 26s-20.333 22 -43 32s-58.834 17.5 -108.501 22.5s-94.667 7.5 -135 7.5s-77 -2.5 -110 -7.5s-69.5 -23.167 -109.5 -54.5zM1443 1883
c10.667 -46 28.167 -75.168 52.5 -87.501s44.5 -20.166 60.5 -23.499s29.5 1.16699 40.5 13.5s11.833 26.833 2.5 43.5s-22.833 31.167 -40.5 43.5s-33.667 19.333 -48 21s-36.833 -1.83301 -67.5 -10.5zM1493 1888c23.333 -0.666992 43.668 -7.16699 61.001 -19.5
s30.166 -26.166 38.499 -41.499s9.5 -25.5 3.5 -30.5s-13.333 -6.16699 -22 -3.5s-19.667 5.66699 -33 9s-27 11.5 -41 24.5s-23.167 25.167 -27.5 36.5s2.5 19.666 20.5 24.999zM577.003 2364l-53 -587l71 587h-18zM340.003 338.002c-98 -20 -160.832 -37 -188.499 -51
s-35.667 -25.5 -24 -34.5s29 -11.833 52 -8.5s46.667 12.333 71 27s54.166 37 89.499 67zM2077 370.002c-13.333 33.333 -33.5 49.168 -60.5 47.501s-51.833 -9.16699 -74.5 -22.5s-54.667 -22.833 -96 -28.5s-77 -12.334 -107 -20.001s-3.83301 -8.5 78.5 -2.5
s168.833 14.667 259.5 26zM353.004 145.004c18.667 -93.333 0.000976562 -149.333 -55.999 -168l56 -28c37.333 149.333 93.666 233.333 168.999 252c186.667 0 289.334 -37.333 308.001 -112c37.333 -150 -9.33398 -253 -140.001 -309h-168l-141 141
c-18.667 -112.667 -149.667 -159.667 -393 -141l-28 281h-84v140c318 18.667 477 0 477 -56zM101.005 33.0039h112v56h-112v-56zM101.005 -135.996l140 28l-28 57h-112v-85zM578.005 -135.996l111.999 28l-28 197l-140 -28c-19.333 -93.333 -0.666016 -159 56.001 -197z
M858.004 201.004c243.333 18.667 374.334 -0.000976562 393.001 -56.001c18.667 -93.333 0 -149.333 -56 -168c56 18.667 84 -9.66602 84 -84.999l112 309h197l112 -337v-84l-281 84l-56 -84l-140 56c-74.667 -56 -196.334 -74.667 -365.001 -56v421zM998.005 33.0029h113
v56h-113v-56zM998.005 -135.997l141 28l-28 57h-113v-85zM1447 -50.9971h85l-29 140l-56 -56v-84zM224.005 -286.997h393v-140l-196 -28h140v-84h-112l-56 -169l-113 28l-56 253v140zM1094 -398.997c37.333 -150 -9.33398 -252.999 -140.001 -308.999
c-187.333 0 -290.333 47 -309 141c-37.333 93.333 9.33398 186.666 140.001 279.999c187.333 0 290.333 -37.333 309 -112zM841.005 -623.996l113 28l-28 197l-141 -28c-18.667 -93.333 0 -159 56 -197zM1126 -282.996c74.667 37.333 149.333 0 224 -112
c0 74.667 19 112 57 112h448v-140h-112v-140h253c-131.333 130.667 -150 224 -56 280h280v-112l-140 -56c112 -112.667 112 -197 0 -253h-449l-28 253l-112 28l-28 -281h-85l-140 141v-141h-112v421z" />
    <glyph glyph-name="questiondown" unicode="&#xbf;" horiz-adv-x="1176" 
d="M564 826l200 -0.00292969c-40 -73.333 -74.333 -120.333 -103 -141s-64.667 -49.667 -108 -87s-64.666 -95.666 -63.999 -174.999c2 -62 32.333 -107.667 91 -137s133.334 -42.666 224.001 -39.999c65.333 2.66699 123.333 12.667 174 30v-108
c-22.667 -12 -65.334 -24 -128.001 -36s-130.667 -17.333 -204 -16c-78.667 1.33301 -151 9.33301 -217 24s-117.667 39.334 -155 74.001s-61.333 72.667 -72 114c1.33301 66.667 11.666 116.667 30.999 150s60.333 76 123 128s132 125.333 208 220zM893 1083h-446v385h446
v-385zM771 1184h-201v178h201v-178zM465 932.997l409.998 0.00195312c-5.33301 -95.333 -21 -168.166 -47 -218.499s-55.833 -88 -89.5 -113l-94 -71.5c-29 -22.667 -43.5 -51.334 -43.5 -86.001s17.333 -57.334 52 -68.001s84.667 -16 150 -16
c46 0 96.167 6.83301 150.5 20.5s100.5 29.5 138.5 47.5v-353c-78.667 -24.667 -152.5 -43.334 -221.5 -56.001s-143.833 -19 -224.5 -19c-81.333 0 -164.666 9.5 -249.999 28.5s-158.666 54.5 -219.999 106.5s-92 123 -92 213c0 69.333 16.167 126.833 48.5 172.5
s81.333 95.167 147 148.5s113 97.333 142 132s43.5 78.667 43.5 132zM515.998 873.999c1.33301 -32 -16.333 -66.3301 -53 -102.997s-86.334 -82 -149.001 -136s-107 -100 -133 -138s-38.333 -91 -37 -159c6.66699 -62.667 34.334 -116.334 83.001 -161.001
s111 -75.667 187 -93s153.333 -25.333 232 -24c76 -1.33301 146.667 4.66699 212 18s123.333 32 174 56v204c-16 -6.66699 -44 -14.334 -84 -23.001s-88 -13.667 -144 -15c-80 -4 -143.667 4.66699 -191 26s-71.666 60.666 -72.999 117.999c1.33301 56 20 98.333 56 127
l98 76c29.333 22 55.666 52 78.999 90s39 83.667 47 137h-304zM833.999 1135v277h-331v-277h331z" />
    <glyph glyph-name="Agrave" unicode="&#xc0;" horiz-adv-x="1492" 
d="M60 60h370l92 260h508l92 -260h370v-60h-410l-92 260h-428l-92 -260h-410v60zM1480 430h12v-60h-60l-326 1014h-630l-354 -1014h-62v60h12l354 1014h730zM660 612h238l-110 322zM60 120v190h128l332 1006h524l339 -1006h109v-190h-321l-111 264h-588l-90 -264h-322z
M786 1057l186 -489h-386zM792 1181l-282 -671h549zM267 1800h462l176 -318zM582 1720l153 -70l-47 70h-106zM480 1742l320 -150l-98 150h-222z" />
    <glyph glyph-name="Aacute" unicode="&#xc1;" horiz-adv-x="1492" 
d="M60 60h370l92 260h508l92 -260h370v-60h-410l-92 260h-428l-92 -260h-410v60zM1480 430h12v-60h-60l-326 1014h-630l-354 -1014h-62v60h12l354 1014h730zM660 612h238l-110 322zM60 120v190h128l332 1006h524l339 -1006h109v-190h-321l-111 264h-588l-90 -264h-322z
M786 1057l186 -489h-386zM792 1181l-282 -671h549zM1323 1796h-462l-176 -318zM1118 1742l-310 -150l94 150h216zM1026 1720l-153 -70l47 70h106z" />
    <glyph glyph-name="Acircumflex" unicode="&#xc2;" horiz-adv-x="1492" 
d="M60 60h370l92 260h508l92 -260h370v-60h-410l-92 260h-428l-92 -260h-410v60zM1480 430h12v-60h-60l-326 1014h-630l-354 -1014h-62v60h12l354 1014h730zM660 612h238l-110 322zM60 120v190h128l332 1006h524l339 -1006h109v-190h-321l-111 264h-588l-90 -264h-322z
M786 1057l186 -489h-386zM792 1181l-282 -671h549zM594 1576l190 180l196 -172l-196 120zM1066 1534l-279 283l-278 -283v-59l280 171l277 -174v62z" />
    <glyph glyph-name="Atilde" unicode="&#xc3;" horiz-adv-x="1492" 
d="M60 60h370l92 260h508l92 -260h370v-60h-410l-92 260h-428l-92 -260h-410v60zM1480 430h12v-60h-60l-326 1014h-630l-354 -1014h-62v60h12l354 1014h730zM660 612h238l-110 322zM60 120v190h128l332 1006h524l339 -1006h109v-190h-321l-111 264h-588l-90 -264h-322z
M786 1057l186 -489h-386zM792 1181l-282 -671h549zM1088 1676c-98.667 -93.333 -206.333 -76.334 -323 50.999s-224 101 -322 -79l60 -47c56.667 111.333 141 106.333 253 -15s248 -104.666 408 50.001zM560.001 1724c68 38.667 128.667 29.666 182 -27.001s97 -94 131 -112
s91 -13 171 15c-76 -77.333 -146 -82 -210 -14s-115 107.333 -153 118s-78.333 17.334 -121 20.001z" />
    <glyph glyph-name="Adieresis" unicode="&#xc4;" horiz-adv-x="1492" 
d="M60 60h370l92 260h508l92 -260h370v-60h-410l-92 260h-428l-92 -260h-410v60zM1480 430h12v-60h-60l-326 1014h-630l-354 -1014h-62v60h12l354 1014h730zM660 612h238l-110 322zM60 120v190h128l332 1006h524l339 -1006h109v-190h-321l-111 264h-588l-90 -264h-322z
M786 1057l186 -489h-386zM792 1181l-282 -671h549zM631 1764c34 0 61.8311 -11.167 83.498 -33.5s32.5 -50.166 32.5 -83.499c-3.33301 -40.667 -16.166 -71.334 -38.499 -92.001s-50.166 -31 -83.499 -31c-32 0 -59 11 -81 33s-33 49.667 -33 83c0 37.333 11 67.333 33 90
s51 34 87 34zM950.998 1768c34 0 61.8311 -11.167 83.498 -33.5s32.5 -50.166 32.5 -83.499c-3.33301 -40.667 -16.166 -71.334 -38.499 -92.001s-50.166 -31 -83.499 -31c-32 0 -59 11 -81 33s-33 49.667 -33 83c0 37.333 11 67.333 33 90s51 34 87 34zM630.996 1706
c-20.667 0 -37.168 -6.16895 -49.501 -18.502s-18.5 -29.166 -18.5 -50.499c0 -18.667 6.16699 -34.167 18.5 -46.5s27.5 -18.5 45.5 -18.5c19.333 0 35.333 5.83301 48 17.5s20 28.834 22 51.501c0 18.667 -6.16699 34.167 -18.5 46.5s-28.166 18.5 -47.499 18.5z
M950.995 1710c-20.667 0 -37.168 -6.16895 -49.501 -18.502s-18.5 -29.166 -18.5 -50.499c0 -18.667 6.16699 -34.167 18.5 -46.5s27.5 -18.5 45.5 -18.5c19.333 0 35.333 5.83301 48 17.5s20 28.834 22 51.501c0 18.667 -6.16699 34.167 -18.5 46.5
s-28.166 18.5 -47.499 18.5zM951.994 1682c11.333 0 20.665 -3.5 27.998 -10.5s11 -15.833 11 -26.5c-1.33301 -13.333 -5.66602 -23.5 -12.999 -30.5s-16.666 -10.5 -27.999 -10.5c-10.667 0 -19.5 3.66699 -26.5 11s-10.5 16.333 -10.5 27c0 12.667 3.5 22.5 10.5 29.5
s16.5 10.5 28.5 10.5zM631.993 1678c11.333 0 20.665 -3.5 27.998 -10.5s11 -15.833 11 -26.5c-1.33301 -13.333 -5.66602 -23.5 -12.999 -30.5s-16.666 -10.5 -27.999 -10.5c-10.667 0 -19.5 3.66699 -26.5 11s-10.5 16.333 -10.5 27c0 12.667 3.5 22.5 10.5 29.5
s16.5 10.5 28.5 10.5z" />
    <glyph glyph-name="Aring" unicode="&#xc5;" horiz-adv-x="1492" 
d="M60 60h370l92 260h508l92 -260h370v-60h-410l-92 260h-428l-92 -260h-410v60zM1480 430h12v-60h-60l-326 1014h-630l-354 -1014h-62v60h12l354 1014h730zM660 612h238l-110 322zM60 120v190h128l332 1006h524l339 -1006h109v-190h-321l-111 264h-588l-90 -264h-322z
M786 1057l186 -489h-386zM792 1181l-282 -671h549zM786 1848c55.333 0 101.168 -18.333 137.501 -55s54.5 -82 54.5 -136c0 -54.667 -19.833 -101.5 -59.5 -140.5s-86.834 -58.5 -141.501 -58.5c-52.667 0 -97.167 17.667 -133.5 53s-54.5 80.333 -54.5 135
c0 60.667 18.333 109.5 55 146.5s84 55.5 142 55.5zM781.002 1768c-36 0 -64.998 -11.333 -86.998 -34s-33 -52.667 -33 -90c0 -33.333 11 -61 33 -83s49 -33 81 -33c33.333 0 61.166 10.333 83.499 31s35.166 51.334 38.499 92.001c0 33.333 -10.833 61.166 -32.5 83.499
s-49.5 33.5 -83.5 33.5z" />
    <glyph glyph-name="AE" unicode="&#xc6;" horiz-adv-x="2094" 
d="M1032 1384h-556l-356 -1014h-60v60h12l354 1014h1606v-430h-768v-166h496v-252h-496v-166h830v-60h-890v284h496v134h-496v286h768v310h-940zM60 60h370l87 260h331v-260h1246v-60h-1306v260h-227l-91 -260h-410v60zM60 120v190h128l336 1014h1404v-190h-773v-382h497
v-54h-497v-388h939v-190h-1188v264h-434l-90 -264h-322zM828 1220l-318 -710l318 2v708zM786 1045l-2 -489h-198zM644 604h104v258z" />
    <glyph glyph-name="Ccedilla" unicode="&#xc7;" horiz-adv-x="1484" 
d="M1484 1384h-639.995c-109.333 -1.33301 -209.333 -14.333 -300 -39s-171 -64.334 -241 -119.001s-125.667 -122 -167 -202s-63.333 -173.667 -66 -281c-1.33301 -151.333 32.667 -277.666 102 -378.999s162.666 -176.666 279.999 -225.999s237.333 -74.666 360 -75.999
v-228c29.333 -2.66699 65.666 -17.334 108.999 -44.001s67 -66 71 -118c1.33301 -38.667 -6.33398 -68.667 -23.001 -90s-61 -39.333 -133 -54c74.667 8 130 22.667 166 44s61.667 41.333 77 60s24.333 42.667 27 72c-5.33301 44 -27 76.667 -65 98s-87 38 -147 50v208h590
v-60h-526v-112c71.333 -13.333 124.333 -36 159 -68s52 -70.667 52 -116c0 -61.333 -33.833 -114.833 -101.5 -160.5s-154.834 -68.5 -261.501 -68.5c-42 0 -95 2.66699 -159 8l15 87c28 -8 61.333 -12.667 100 -14c66.667 0 111.834 10.333 135.501 31s35.5 49 35.5 85
c0 25.333 -13 47.333 -39 66s-58.333 28 -97 28c-11.333 0 -26 -1 -44 -3l-1 241c-95.333 -2.66699 -206.333 23.833 -333 79.5s-226.5 139.167 -299.5 250.5s-109.5 247.666 -109.5 408.999c0 113.333 21.833 214.5 65.5 303.5s104.167 163 181.5 222
s166.166 103 266.499 132s207.166 43.5 320.499 43.5h396h244v-60zM1484 1074v-59.999h-452c-101.333 0 -176.333 -3 -225 -9s-92 -16 -130 -30s-71.667 -38.333 -101 -73s-46.333 -96 -51 -184c3.33301 -85.333 20.333 -146.333 51 -183s68 -61 112 -73
s89.333 -20.333 136 -25s116 -7 208 -7h452v-60h-452c-90.667 -1.33301 -162.667 1 -216 7s-106 16 -158 30s-95.667 45 -131 93s-56 120.667 -62 218c7.33301 112 30 187 68 225s78.667 65.667 122 83s91.5 29.166 144.5 35.499s130.5 10.5 232.5 12.5h452zM1484 1328
l0.000976562 -192h-452c-100 -1.33301 -179.667 -5.66602 -239 -12.999s-115 -21 -167 -41s-100 -52 -144 -96s-70 -132.667 -78 -266c8 -109.333 33.333 -192 76 -248s94.334 -93.333 155.001 -112s120 -31.334 178 -38.001s132.333 -10 223 -10h448v-192h-640
c-130.667 0 -250 23.333 -358 70s-194.667 115.334 -260 206.001s-98 206.667 -98 348c5.33301 101.333 26.666 188 63.999 260s88.666 132 153.999 180s139.333 82.667 222 104s176 34.666 280 39.999h636zM842.006 119.001l21.9961 0.000976562v-271
c70.667 -22.667 121.334 -43 152.001 -61s54 -45.667 70 -83c-4 -24 -13 -44.667 -27 -62s-36.333 -36 -67 -56c14.667 26.667 23.334 56.667 26.001 90c-13.333 52 -26.666 84.667 -39.999 98s-58.666 38.666 -135.999 75.999v269z" />
    <glyph glyph-name="Egrave" unicode="&#xc8;" horiz-adv-x="1360" 
d="M60 1384v60h1240v-60h-1240zM120 370h-60v704h60v-704zM1300 1074v-60h-770v-166h496v-252h-496v-166h830v-60h-890v284h496v134h-496v286h830zM1360 60v-60h-1300v60h1300zM203 1796h462l176 -318zM408 1742l320 -150l-98 150h-222zM60 1324h1240v-190h-880v-386h484
v-54h-486v-382l942 -2v-190h-1300v190h122v824h-122v190zM514 1718l153 -70l-47 70h-106z" />
    <glyph glyph-name="Eacute" unicode="&#xc9;" horiz-adv-x="1360" 
d="M60 1384v60h1240v-60h-1240zM120 370h-60v704h60v-704zM1300 1074v-60h-770v-166h496v-252h-496v-166h830v-60h-890v284h496v134h-496v286h830zM1360 60v-60h-1300v60h1300zM1311 1796h-462l-176 -318zM1102 1742l-310 -150l94 150h216zM60 1324h1240v-190h-880v-386h484
v-54h-486v-382l942 -2v-190h-1300v190h122v824h-122v190zM1010 1720l-153 -70l47 70h106z" />
    <glyph glyph-name="Ecircumflex" unicode="&#xca;" horiz-adv-x="1360" 
d="M60 1384v60h1240v-60h-1240zM120 370h-60v704h60v-704zM1300 1074v-60h-770v-166h496v-252h-496v-166h830v-60h-890v284h496v134h-496v286h830zM1360 60v-60h-1300v60h1300zM1030 1534l-279 283l-278 -283v-59l280 171l277 -174v62zM562 1568l190 180l196 -172l-196 120z
M60 1324h1240v-190h-880v-386h484v-54h-486v-382l942 -2v-190h-1300v190h122v824h-122v190z" />
    <glyph glyph-name="Edieresis" unicode="&#xcb;" horiz-adv-x="1360" 
d="M60 1384v60h1240v-60h-1240zM120 370h-60v704h60v-704zM1300 1074v-60h-770v-166h496v-252h-496v-166h830v-60h-890v284h496v134h-496v286h830zM1360 60v-60h-1300v60h1300zM563 1764c34 0 61.8311 -11.167 83.498 -33.5s32.5 -50.166 32.5 -83.499
c-3.33301 -40.667 -16.166 -71.334 -38.499 -92.001s-50.166 -31 -83.499 -31c-32 0 -59 11 -81 33s-33 49.667 -33 83c0 37.333 11 67.333 33 90s51 34 87 34zM940.998 1764c34 0 61.8311 -11.167 83.498 -33.5s32.5 -50.166 32.5 -83.499
c-3.33301 -40.667 -16.166 -71.334 -38.499 -92.001s-50.166 -31 -83.499 -31c-32 0 -59 11 -81 33s-33 49.667 -33 83c0 37.333 11 67.333 33 90s51 34 87 34zM562.996 1710c-20.667 0 -37.168 -6.16895 -49.501 -18.502s-18.5 -29.166 -18.5 -50.499
c0 -18.667 6.16699 -34.167 18.5 -46.5s27.5 -18.5 45.5 -18.5c19.333 0 35.333 5.83301 48 17.5s20 28.834 22 51.501c0 18.667 -6.16699 34.167 -18.5 46.5s-28.166 18.5 -47.499 18.5zM938.995 1712c-20.667 0 -37.168 -6.16895 -49.501 -18.502
s-18.5 -29.166 -18.5 -50.499c0 -18.667 6.16699 -34.167 18.5 -46.5s27.5 -18.5 45.5 -18.5c19.333 0 35.333 5.83301 48 17.5s20 28.834 22 51.501c0 18.667 -6.16699 34.167 -18.5 46.5s-28.166 18.5 -47.499 18.5zM59.9941 1324h1240v-190h-880v-386h484v-54h-486v-382
l942 -2v-190h-1300v190h122v824h-122v190zM563.994 1680c11.333 0 20.665 -3.5 27.998 -10.5s11 -15.833 11 -26.5c-1.33301 -13.333 -5.66602 -23.5 -12.999 -30.5s-16.666 -10.5 -27.999 -10.5c-10.667 0 -19.5 3.66699 -26.5 11s-10.5 16.333 -10.5 27
c0 12.667 3.5 22.5 10.5 29.5s16.5 10.5 28.5 10.5zM939.993 1684c11.333 0 20.665 -3.5 27.998 -10.5s11 -15.833 11 -26.5c-1.33301 -13.333 -5.66602 -23.5 -12.999 -30.5s-16.666 -10.5 -27.999 -10.5c-10.667 0 -19.5 3.66699 -26.5 11s-10.5 16.333 -10.5 27
c0 12.667 3.5 22.5 10.5 29.5s16.5 10.5 28.5 10.5z" />
    <glyph glyph-name="Igrave" unicode="&#xcc;" horiz-adv-x="550" 
d="M40 1444h470v-1444h-470v1444zM26 1796h371l113 -316zM100 1384v-1324h350v1324h-350zM168 1746l260 -150l-80 150h-180zM161 1318l227 2v-1200l-227 -3v1201zM254 1724l119 -70l-37 70h-82z" />
    <glyph glyph-name="Iacute" unicode="&#xcd;" horiz-adv-x="550" 
d="M508 1444v-1444h-468v1444h468zM510 1796h-371l-113 -316zM100 1384v-1324h350v1324h-350zM356 1746l-243 -150l75 150h168zM161 1318l227 2v-1200l-227 -3v1201zM282 1724l-119 -70l37 70h82z" />
    <glyph glyph-name="Icircumflex" unicode="&#xce;" horiz-adv-x="550" 
d="M40 1444h470v-1444h-470v1444zM502 1540l-229 283l-228 -283v-59l229 171l228 -174v62zM100 1384v-1324h350v1324h-350zM118 1576l154 180l160 -172l-160 120zM161 1318l227 2v-1200l-227 -3v1201z" />
    <glyph glyph-name="Idieresis" unicode="&#xcf;" horiz-adv-x="550" 
d="M40 1444h470v-1444h-470v1444zM123 1764c34 0 61.8311 -11.167 83.498 -33.5s32.5 -50.166 32.5 -83.499c-3.33301 -40.667 -16.166 -71.334 -38.499 -92.001s-50.166 -31 -83.499 -31c-32 0 -59 11 -81 33s-33 49.667 -33 83c0 37.333 11 67.333 33 90s51 34 87 34z
M434.998 1764c34 0 61.8311 -11.167 83.498 -33.5s32.5 -50.166 32.5 -83.499c-3.33301 -40.667 -16.166 -71.334 -38.499 -92.001s-50.166 -31 -83.499 -31c-32 0 -59 11 -81 33s-33 49.667 -33 83c0 37.333 11 67.333 33 90s51 34 87 34zM99.9961 1384v-1324h350v1324
h-350zM122.996 1706c-20.667 0 -37.168 -6.16895 -49.501 -18.502s-18.5 -29.166 -18.5 -50.499c0 -18.667 6.16699 -34.167 18.5 -46.5s27.5 -18.5 45.5 -18.5c19.333 0 35.333 5.83301 48 17.5s20 28.834 22 51.501c0 18.667 -6.16699 34.167 -18.5 46.5
s-28.166 18.5 -47.499 18.5zM434.995 1706c-20.667 0 -37.168 -6.16895 -49.501 -18.502s-18.5 -29.166 -18.5 -50.499c0 -18.667 6.16699 -34.167 18.5 -46.5s27.5 -18.5 45.5 -18.5c19.333 0 35.333 5.83301 48 17.5s20 28.834 22 51.501
c0 18.667 -6.16699 34.167 -18.5 46.5s-28.166 18.5 -47.499 18.5zM160.994 1318l227 2v-1200l-227 -3v1201zM121.994 1678c11.333 0 20.665 -3.5 27.998 -10.5s11 -15.833 11 -26.5c-1.33301 -13.333 -5.66602 -23.5 -12.999 -30.5s-16.666 -10.5 -27.999 -10.5
c-10.667 0 -19.5 3.66699 -26.5 11s-10.5 16.333 -10.5 27c0 12.667 3.5 22.5 10.5 29.5s16.5 10.5 28.5 10.5zM433.993 1678c11.333 0 20.665 -3.5 27.998 -10.5s11 -15.833 11 -26.5c-1.33301 -13.333 -5.66602 -23.5 -12.999 -30.5s-16.666 -10.5 -27.999 -10.5
c-10.667 0 -19.5 3.66699 -26.5 11s-10.5 16.333 -10.5 27c0 12.667 3.5 22.5 10.5 29.5s16.5 10.5 28.5 10.5z" />
    <glyph glyph-name="Eth" unicode="&#xd0;" horiz-adv-x="1804" 
d="M212 0l0.00195312 541.998h-254v252h254v650h852c115.333 0 217 -15.333 305 -46s162.333 -72 223 -124s111.167 -122.333 151.5 -211s60.5 -204 60.5 -346c-7.33301 -131.333 -29.333 -243 -66 -335s-85.334 -164.667 -146.001 -218s-134.834 -94.666 -222.501 -123.999
s-197.5 -42.666 -329.5 -39.999h-828zM694.002 1086l273.001 -0.00195312c63.333 0 114.666 -13.167 153.999 -39.5s71.5 -62.666 96.5 -108.999s38.5 -118.166 40.5 -215.499c-6.66699 -106.667 -22 -180.5 -46 -221.5s-55 -74.667 -93 -101s-88 -39.5 -150 -39.5h-277v248
h280v128h-278v350zM272.003 59.9961l768 0.000976562c160 4 274.333 19.667 343 47s125.667 62 171 104s87.333 104 126 186s60 190.333 64 325c-5.33301 129.333 -15 213 -29 251s-32 78.667 -54 122s-56.333 87.666 -103 132.999s-111.667 83.333 -195 114
s-183 44.667 -299 42h-792v-660h-252v-116h252v-548zM754.003 1031l-0.000976562 -235h286v-252h-288v-126l209 -1c58 2 100.667 15 128 39s47.833 49.833 61.5 77.5s24.167 90.834 31.5 189.501c-5.33301 83.333 -15.666 142.666 -30.999 177.999s-37 65.5 -65 90.5
s-70.333 38.167 -127 39.5h-205zM336.002 119.997l0.000976562 529.998h-244v32h244v638l721 -3c107.333 3.33301 199.166 -9 275.499 -37s135.833 -62.5 178.5 -103.5s74.334 -81.167 95.001 -120.5s37.167 -76.166 49.5 -110.499s21.166 -109.833 26.499 -226.5
c-4.66699 -121.333 -24.5 -219.166 -59.5 -293.499s-73.333 -130.5 -115 -168.5s-94 -69.167 -157 -93.5s-168.167 -38.833 -315.5 -43.5h-699zM626.003 1143v-451h290v-40h-290v-352h341c78 0 140.833 15.5 188.5 46.5s86.167 70.5 115.5 118.5s48.333 134 57 258
c-2.66699 112 -19.667 195 -51 249s-71.333 96 -120 126s-112.667 45 -192 45h-339z" />
    <glyph glyph-name="Ntilde" unicode="&#xd1;" horiz-adv-x="1430" 
d="M60 1384v60h470l430 -540v540h470v-60h-410v-538h-95l-420 538h-445zM1430 60v-60h-470l-430 540v-540h-470v60h410v540h95l430 -540h435zM1430 1074v-704h-60v704h60zM120 1074v-704h-60v704h60zM988 1668c-98.667 -93.333 -206.333 -76.334 -323 50.999
s-224 101 -322 -79l60 -47c56.667 111.333 141 106.333 253 -15s248 -104.666 408 50.001zM456.001 1724c68 38.667 128.667 29.666 182 -27.001s97 -94 131 -112s91 -13 171 15c-76 -77.333 -146 -82 -210 -14s-115 107.333 -153 118s-78.333 17.334 -121 20.001z
M60.001 1324h414l418 -538h194v538h344v-190h-120v-824h120v-190h-400l-432 537h-176v-537h-362v190h122l-1 824h-121v190z" />
    <glyph glyph-name="Ograve" unicode="&#xd2;" horiz-adv-x="1677" 
d="M1668 714c0 -158 -33.0029 -292.667 -99.0029 -404s-161.5 -195 -286.5 -251s-274.167 -84 -447.5 -84s-322.166 28.167 -446.499 84.5s-218.5 139.666 -282.5 249.999s-96 245.166 -96 404.499c0 120.667 18.333 226.834 55 318.501s90.334 168.834 161.001 231.501
s157.334 110.167 260.001 142.5s219 48.5 349 48.5c172.667 0 321.667 -28.5 447 -85.5s221 -141 287 -252s99 -245.5 99 -403.5zM202.997 1796h462l176 -318zM1608 714c-2.66699 145.333 -34.499 268.999 -95.499 370.999s-149.333 179.333 -265 232s-253.167 79 -412.5 79
c-120 0 -227.333 -15 -322 -45s-174.667 -73.667 -240 -131s-114.833 -128.166 -148.5 -212.499s-51.834 -181.833 -54.501 -292.5c2.66699 -146.667 33.5 -270.667 92.5 -372s145.833 -178 260.5 -230s252 -78 412 -78s297.667 25.833 413 77.5s203.5 128.667 264.5 231
s92.833 225.833 95.5 370.5zM407.998 1742l320 -150l-98 150h-222zM485.998 711.999c0 253.333 113.335 380 340.002 380c144 0 238.333 -37.833 283 -113.5s69.667 -164.5 75 -266.5c-5.33301 -71.333 -14.333 -132.5 -27 -183.5s-44.834 -96.333 -96.501 -136
s-129.834 -59.5 -234.501 -59.5c-134.667 0 -225 37.833 -271 113.5s-69 164.167 -69 265.5zM551 708.999c0 -84.667 18.667 -158.501 56 -221.501s111.666 -94.5 222.999 -94.5c85.333 0 149.333 16.667 192 50s69.334 71 80.001 113s17.667 93 21 153
c-3.33301 84.667 -23.5 158.334 -60.5 221.001s-114.5 94 -232.5 94c-186 0 -279 -105 -279 -315zM1547 713.998c-2 -131.333 -30.999 -243.166 -86.999 -335.499s-136.833 -162 -242.5 -209s-231.834 -70.5 -378.501 -70.5s-272.667 23.667 -378 71
s-185 116.666 -239 207.999s-82 203.333 -84 336c2 100 18.5 188.167 49.5 264.5s76.333 140.333 136 192s133 91 220 118s185.5 40.5 295.5 40.5c146 0 272 -23.833 378 -71.5s187 -117.5 243 -209.5s85 -203.333 87 -334zM426.001 707.998
c0 -116.667 27 -219.001 81 -307.001s160.333 -132 319 -132c124 0 216.667 23.167 278 69.5s99.5 99 114.5 158s25.833 129.5 32.5 211.5c-6.66699 118.667 -36.5 221.834 -89.5 309.501s-164.833 131.5 -335.5 131.5c-266.667 0 -400 -147 -400 -441zM512.001 1720
l153 -70l-47 70h-106z" />
    <glyph glyph-name="Oacute" unicode="&#xd3;" horiz-adv-x="1677" 
d="M1668 714c0 -158 -33.0029 -292.667 -99.0029 -404s-161.5 -195 -286.5 -251s-274.167 -84 -447.5 -84s-322.166 28.167 -446.499 84.5s-218.5 139.666 -282.5 249.999s-96 245.166 -96 404.499c0 120.667 18.333 226.834 55 318.501s90.334 168.834 161.001 231.501
s157.334 110.167 260.001 142.5s219 48.5 349 48.5c172.667 0 321.667 -28.5 447 -85.5s221 -141 287 -252s99 -245.5 99 -403.5zM1311 1796h-462l-176 -318zM1608 714c-2.66699 145.333 -34.499 268.999 -95.499 370.999s-149.333 179.333 -265 232s-253.167 79 -412.5 79
c-120 0 -227.333 -15 -322 -45s-174.667 -73.667 -240 -131s-114.833 -128.166 -148.5 -212.499s-51.834 -181.833 -54.501 -292.5c2.66699 -146.667 33.5 -270.667 92.5 -372s145.833 -178 260.5 -230s252 -78 412 -78s297.667 25.833 413 77.5s203.5 128.667 264.5 231
s92.833 225.833 95.5 370.5zM1102 1742l-310 -150l94 150h216zM485.998 711.999c0 253.333 113.335 380 340.002 380c144 0 238.333 -37.833 283 -113.5s69.667 -164.5 75 -266.5c-5.33301 -71.333 -14.333 -132.5 -27 -183.5s-44.834 -96.333 -96.501 -136
s-129.834 -59.5 -234.501 -59.5c-134.667 0 -225 37.833 -271 113.5s-69 164.167 -69 265.5zM551 708.999c0 -84.667 18.667 -158.501 56 -221.501s111.666 -94.5 222.999 -94.5c85.333 0 149.333 16.667 192 50s69.334 71 80.001 113s17.667 93 21 153
c-3.33301 84.667 -23.5 158.334 -60.5 221.001s-114.5 94 -232.5 94c-186 0 -279 -105 -279 -315zM1547 713.998c-2 -131.333 -30.999 -243.166 -86.999 -335.499s-136.833 -162 -242.5 -209s-231.834 -70.5 -378.501 -70.5s-272.667 23.667 -378 71
s-185 116.666 -239 207.999s-82 203.333 -84 336c2 100 18.5 188.167 49.5 264.5s76.333 140.333 136 192s133 91 220 118s185.5 40.5 295.5 40.5c146 0 272 -23.833 378 -71.5s187 -117.5 243 -209.5s85 -203.333 87 -334zM426.001 707.998
c0 -116.667 27 -219.001 81 -307.001s160.333 -132 319 -132c124 0 216.667 23.167 278 69.5s99.5 99 114.5 158s25.833 129.5 32.5 211.5c-6.66699 118.667 -36.5 221.834 -89.5 309.501s-164.833 131.5 -335.5 131.5c-266.667 0 -400 -147 -400 -441zM1010 1720l-153 -70
l47 70h106z" />
    <glyph glyph-name="Ocircumflex" unicode="&#xd4;" horiz-adv-x="1677" 
d="M1668 714c0 -158 -33.0029 -292.667 -99.0029 -404s-161.5 -195 -286.5 -251s-274.167 -84 -447.5 -84s-322.166 28.167 -446.499 84.5s-218.5 139.666 -282.5 249.999s-96 245.166 -96 404.499c0 120.667 18.333 226.834 55 318.501s90.334 168.834 161.001 231.501
s157.334 110.167 260.001 142.5s219 48.5 349 48.5c172.667 0 321.667 -28.5 447 -85.5s221 -141 287 -252s99 -245.5 99 -403.5zM1114 1538l-290 300l-287 -300v-62l290 181l287 -185v66zM1608 714c-2.66699 145.333 -34.499 268.999 -95.499 370.999
s-149.333 179.333 -265 232s-253.167 79 -412.5 79c-120 0 -227.333 -15 -322 -45s-174.667 -73.667 -240 -131s-114.833 -128.166 -148.5 -212.499s-51.834 -181.833 -54.501 -292.5c2.66699 -146.667 33.5 -270.667 92.5 -372s145.833 -178 260.5 -230s252 -78 412 -78
s297.667 25.833 413 77.5s203.5 128.667 264.5 231s92.833 225.833 95.5 370.5zM633.998 1576l190 193l196 -183l-196 127zM485.998 711.999c0 253.333 113.335 380 340.002 380c144 0 238.333 -37.833 283 -113.5s69.667 -164.5 75 -266.5
c-5.33301 -71.333 -14.333 -132.5 -27 -183.5s-44.834 -96.333 -96.501 -136s-129.834 -59.5 -234.501 -59.5c-134.667 0 -225 37.833 -271 113.5s-69 164.167 -69 265.5zM551 708.999c0 -84.667 18.667 -158.501 56 -221.501s111.666 -94.5 222.999 -94.5
c85.333 0 149.333 16.667 192 50s69.334 71 80.001 113s17.667 93 21 153c-3.33301 84.667 -23.5 158.334 -60.5 221.001s-114.5 94 -232.5 94c-186 0 -279 -105 -279 -315zM1547 713.998c-2 -131.333 -30.999 -243.166 -86.999 -335.499s-136.833 -162 -242.5 -209
s-231.834 -70.5 -378.501 -70.5s-272.667 23.667 -378 71s-185 116.666 -239 207.999s-82 203.333 -84 336c2 100 18.5 188.167 49.5 264.5s76.333 140.333 136 192s133 91 220 118s185.5 40.5 295.5 40.5c146 0 272 -23.833 378 -71.5s187 -117.5 243 -209.5
s85 -203.333 87 -334zM426.001 707.998c0 -116.667 27 -219.001 81 -307.001s160.333 -132 319 -132c124 0 216.667 23.167 278 69.5s99.5 99 114.5 158s25.833 129.5 32.5 211.5c-6.66699 118.667 -36.5 221.834 -89.5 309.501s-164.833 131.5 -335.5 131.5
c-266.667 0 -400 -147 -400 -441z" />
    <glyph glyph-name="Otilde" unicode="&#xd5;" horiz-adv-x="1677" 
d="M1668 714c0 -158 -33.0029 -292.667 -99.0029 -404s-161.5 -195 -286.5 -251s-274.167 -84 -447.5 -84s-322.166 28.167 -446.499 84.5s-218.5 139.666 -282.5 249.999s-96 245.166 -96 404.499c0 120.667 18.333 226.834 55 318.501s90.334 168.834 161.001 231.501
s157.334 110.167 260.001 142.5s219 48.5 349 48.5c172.667 0 321.667 -28.5 447 -85.5s221 -141 287 -252s99 -245.5 99 -403.5zM1608 714c-2.66699 145.333 -34.499 268.999 -95.499 370.999s-149.333 179.333 -265 232s-253.167 79 -412.5 79
c-120 0 -227.333 -15 -322 -45s-174.667 -73.667 -240 -131s-114.833 -128.166 -148.5 -212.499s-51.834 -181.833 -54.501 -292.5c2.66699 -146.667 33.5 -270.667 92.5 -372s145.833 -178 260.5 -230s252 -78 412 -78s297.667 25.833 413 77.5s203.5 128.667 264.5 231
s92.833 225.833 95.5 370.5zM1120 1668c-98.667 -93.333 -206.333 -76.334 -323 50.999s-224 101 -322 -79l60 -47c56.667 111.333 141 106.333 253 -15s248 -104.666 408 50.001zM591.999 1720c68 38.667 128.667 29.666 182 -27.001s97 -94 131 -112s91 -13 171 15
c-76 -77.333 -146 -82 -210 -14s-115 107.333 -153 118s-78.333 17.334 -121 20.001zM485.999 711.997c0 253.333 113.335 380 340.002 380c144 0 238.333 -37.833 283 -113.5s69.667 -164.5 75 -266.5c-5.33301 -71.333 -14.333 -132.5 -27 -183.5
s-44.834 -96.333 -96.501 -136s-129.834 -59.5 -234.501 -59.5c-134.667 0 -225 37.833 -271 113.5s-69 164.167 -69 265.5zM551.001 708.997c0 -84.667 18.667 -158.501 56 -221.501s111.666 -94.5 222.999 -94.5c85.333 0 149.333 16.667 192 50s69.334 71 80.001 113
s17.667 93 21 153c-3.33301 84.667 -23.5 158.334 -60.5 221.001s-114.5 94 -232.5 94c-186 0 -279 -105 -279 -315zM1547 713.996c-2 -131.333 -30.999 -243.166 -86.999 -335.499s-136.833 -162 -242.5 -209s-231.834 -70.5 -378.501 -70.5s-272.667 23.667 -378 71
s-185 116.666 -239 207.999s-82 203.333 -84 336c2 100 18.5 188.167 49.5 264.5s76.333 140.333 136 192s133 91 220 118s185.5 40.5 295.5 40.5c146 0 272 -23.833 378 -71.5s187 -117.5 243 -209.5s85 -203.333 87 -334zM426.002 707.996
c0 -116.667 27 -219.001 81 -307.001s160.333 -132 319 -132c124 0 216.667 23.167 278 69.5s99.5 99 114.5 158s25.833 129.5 32.5 211.5c-6.66699 118.667 -36.5 221.834 -89.5 309.501s-164.833 131.5 -335.5 131.5c-266.667 0 -400 -147 -400 -441z" />
    <glyph glyph-name="Odieresis" unicode="&#xd6;" horiz-adv-x="1677" 
d="M1668 714c0 -158 -33.0029 -292.667 -99.0029 -404s-161.5 -195 -286.5 -251s-274.167 -84 -447.5 -84s-322.166 28.167 -446.499 84.5s-218.5 139.666 -282.5 249.999s-96 245.166 -96 404.499c0 120.667 18.333 226.834 55 318.501s90.334 168.834 161.001 231.501
s157.334 110.167 260.001 142.5s219 48.5 349 48.5c172.667 0 321.667 -28.5 447 -85.5s221 -141 287 -252s99 -245.5 99 -403.5zM1123 1764c34 0 61.8311 -11.167 83.498 -33.5s32.5 -50.166 32.5 -83.499c-3.33301 -40.667 -16.166 -71.334 -38.499 -92.001
s-50.166 -31 -83.499 -31c-32 0 -59 11 -81 33s-33 49.667 -33 83c0 37.333 11 67.333 33 90s51 34 87 34zM562.995 1764c34 0 61.8311 -11.167 83.498 -33.5s32.5 -50.166 32.5 -83.499c-3.33301 -40.667 -16.166 -71.334 -38.499 -92.001s-50.166 -31 -83.499 -31
c-32 0 -59 11 -81 33s-33 49.667 -33 83c0 37.333 11 67.333 33 90s51 34 87 34zM1607.99 714c-2.66699 145.333 -34.499 268.999 -95.499 370.999s-149.333 179.333 -265 232s-253.167 79 -412.5 79c-120 0 -227.333 -15 -322 -45s-174.667 -73.667 -240 -131
s-114.833 -128.166 -148.5 -212.499s-51.834 -181.833 -54.501 -292.5c2.66699 -146.667 33.5 -270.667 92.5 -372s145.833 -178 260.5 -230s252 -78 412 -78s297.667 25.833 413 77.5s203.5 128.667 264.5 231s92.833 225.833 95.5 370.5zM1122.99 1706
c-20.667 0 -37.168 -6.16895 -49.501 -18.502s-18.5 -29.166 -18.5 -50.499c0 -18.667 6.16699 -34.167 18.5 -46.5s27.5 -18.5 45.5 -18.5c19.333 0 35.333 5.83301 48 17.5s20 28.834 22 51.501c0 18.667 -6.16699 34.167 -18.5 46.5s-28.166 18.5 -47.499 18.5z
M562.993 1710c-20.667 0 -37.168 -6.16895 -49.501 -18.502s-18.5 -29.166 -18.5 -50.499c0 -18.667 6.16699 -34.167 18.5 -46.5s27.5 -18.5 45.5 -18.5c19.333 0 35.333 5.83301 48 17.5s20 28.834 22 51.501c0 18.667 -6.16699 34.167 -18.5 46.5
s-28.166 18.5 -47.499 18.5zM485.992 711.995c0 253.333 113.335 380 340.002 380c144 0 238.333 -37.833 283 -113.5s69.667 -164.5 75 -266.5c-5.33301 -71.333 -14.333 -132.5 -27 -183.5s-44.834 -96.333 -96.501 -136s-129.834 -59.5 -234.501 -59.5
c-134.667 0 -225 37.833 -271 113.5s-69 164.167 -69 265.5zM550.994 708.995c0 -84.667 18.667 -158.501 56 -221.501s111.666 -94.5 222.999 -94.5c85.333 0 149.333 16.667 192 50s69.334 71 80.001 113s17.667 93 21 153c-3.33301 84.667 -23.5 158.334 -60.5 221.001
s-114.5 94 -232.5 94c-186 0 -279 -105 -279 -315zM1546.99 713.994c-2 -131.333 -30.999 -243.166 -86.999 -335.499s-136.833 -162 -242.5 -209s-231.834 -70.5 -378.501 -70.5s-272.667 23.667 -378 71s-185 116.666 -239 207.999s-82 203.333 -84 336
c2 100 18.5 188.167 49.5 264.5s76.333 140.333 136 192s133 91 220 118s185.5 40.5 295.5 40.5c146 0 272 -23.833 378 -71.5s187 -117.5 243 -209.5s85 -203.333 87 -334zM425.995 707.994c0 -116.667 27 -219.001 81 -307.001s160.333 -132 319 -132
c124 0 216.667 23.167 278 69.5s99.5 99 114.5 158s25.833 129.5 32.5 211.5c-6.66699 118.667 -36.5 221.834 -89.5 309.501s-164.833 131.5 -335.5 131.5c-266.667 0 -400 -147 -400 -441zM563.995 1679.99c11.333 0 20.665 -3.5 27.998 -10.5s11 -15.833 11 -26.5
c-1.33301 -13.333 -5.66602 -23.5 -12.999 -30.5s-16.666 -10.5 -27.999 -10.5c-10.667 0 -19.5 3.66699 -26.5 11s-10.5 16.333 -10.5 27c0 12.667 3.5 22.5 10.5 29.5s16.5 10.5 28.5 10.5zM1121.99 1675.99c11.333 0 20.665 -3.5 27.998 -10.5s11 -15.833 11 -26.5
c-1.33301 -13.333 -5.66602 -23.5 -12.999 -30.5s-16.666 -10.5 -27.999 -10.5c-10.667 0 -19.5 3.66699 -26.5 11s-10.5 16.333 -10.5 27c0 12.667 3.5 22.5 10.5 29.5s16.5 10.5 28.5 10.5z" />
    <glyph glyph-name="Oslash" unicode="&#xd8;" horiz-adv-x="1677" 
d="M566 424c38.667 -54.667 125.333 -84.666 260 -89.999c104 0 182 19.667 234 59s84.333 84.666 97 135.999s21.667 112.333 27 183c-5.33301 93.333 -15.333 145.333 -30 156zM1446 1274l109.997 87.999l112 -150l-88 -78c58.667 -122 88 -262 88 -420
s-33 -292.667 -99 -404s-161.5 -195 -286.5 -251s-274.167 -84 -447.5 -84s-358.333 49.667 -555 149l-168 -132l-110 148l134 108c-84 151.333 -126 306.666 -126 465.999c0 120.667 18.333 226.834 55 318.501s90.334 168.834 161.001 231.501
s157.334 110.167 260.001 142.5s219 48.5 349 48.5c172.667 0 309.334 -23.833 410.001 -71.5s167.667 -84.167 201 -109.5zM1094 980c-33.333 74.667 -122.667 112 -268 112c-226.667 0 -340 -126.667 -340 -380c2.66699 -102.667 16.667 -158.667 42 -168zM1606 714
c-2.66699 145.333 -39.333 284.665 -110 417.998l102 86l-52 72l-104 -86c-15.333 22.667 -80.833 60.334 -196.5 113.001s-253.167 79 -412.5 79c-120 0 -227.333 -15 -322 -45s-174.667 -73.667 -240 -131s-114.833 -128.166 -148.5 -212.499
s-51.834 -181.833 -54.501 -292.5c2.66699 -146.667 47.334 -307 134.001 -481l-122 -98l44 -62l154 122c210 -107.333 395 -161 555 -161s297.667 25.833 413 77.5s203.5 128.667 264.5 231s92.833 225.833 95.5 370.5zM557.996 641.999l-6 68
c0 209.333 92.667 314 278 314c116 0 175.333 -14 178 -42zM1114 765.999l6.00098 -56c-1.33301 -61.333 -7.33301 -113 -18 -155s-37.334 -79.333 -80.001 -112s-106.667 -49 -192 -49c-96 0 -146.667 12.667 -152 38zM1547 713.999
c-2 -131.333 -30.999 -243.166 -86.999 -335.499s-136.833 -162 -242.5 -209s-231.834 -70.5 -378.501 -70.5s-272.667 23.667 -378 71s-185 116.666 -239 207.999s-82 203.333 -84 336c2 100 18.5 188.167 49.5 264.5s76.333 140.333 136 192s133 91 220 118
s185.5 40.5 295.5 40.5c146 0 272 -23.833 378 -71.5s187 -117.5 243 -209.5s85 -203.333 87 -334zM425.998 707.999c0 -116.667 27 -219.001 81 -307.001s160.333 -132 319 -132c124 0 216.667 23.167 278 69.5s99.5 99 114.5 158s25.833 129.5 32.5 211.5
c-6.66699 118.667 -36.5 221.834 -89.5 309.501s-164.833 131.5 -335.5 131.5c-266.667 0 -400 -147 -400 -441zM119.998 131.998l14 -19l183 147l-10 11l-6 5zM485.998 443.998l694 532l14 -26l-690 -536zM1404 1128l130 108l14 -20l-128 -106z" />
    <glyph glyph-name="Ugrave" unicode="&#xd9;" horiz-adv-x="1494" 
d="M530 1444l0.000976562 -854c-4 -97.333 14.667 -165 56 -203s106 -58.333 194 -61c70.667 1.33301 129.667 22 177 62s69.666 107.333 66.999 202v854h470v-60h-410v-794c4 -101.333 -18 -178.333 -66 -231s-127.333 -83.667 -238 -93c-116 4 -197.333 32 -244 84
s-68.667 132 -66 240v794h-410v60h470zM1434 1074l60.001 0.00195312v-477c-2 -120 -21.833 -215.833 -59.5 -287.5s-85.334 -131.5 -143.001 -179.5s-130 -85.333 -217 -112s-183.833 -41.334 -290.5 -44.001c-88.667 2 -178.834 14.167 -270.501 36.5
s-171.667 57.5 -240 105.5s-121 109.667 -158 185s-55.5 173.666 -55.5 294.999v478h60v-478c6.66699 -118.667 25 -207.667 55 -267s75.333 -111.666 136 -156.999s133.667 -79 219 -101s170 -34.333 254 -37c100 4 191.333 19 274 45s149 60.667 199 104
s91.333 94.666 124 153.999s50.334 146 53.001 260v477zM279.002 1796h462l176 -318zM476.002 1742l320 -150l-98 150h-222zM60.002 1324l357.001 -0.00390625v-732c0.666992 -117.333 26.667 -209.333 78 -276s145.666 -100.667 282.999 -102
c130.667 8 223.667 44.333 279 109s82.333 154.334 81 269.001v732h356v-190h-113v-537c-5.33301 -107.333 -21.5 -186.166 -48.5 -236.499s-62 -93.833 -105 -130.5s-104 -68.5 -183 -95.5s-165.167 -42.5 -258.5 -46.5c-78.667 2.66699 -158.167 14.334 -238.5 35.001
s-147.5 52.334 -201.5 95.001s-93.333 86.5 -118 131.5s-40 127.167 -46 246.5v538h-122v190zM578.003 1720l153 -70l-47 70h-106z" />
    <glyph glyph-name="Uacute" unicode="&#xda;" horiz-adv-x="1494" 
d="M530 1444l0.000976562 -854c-4 -97.333 14.667 -165 56 -203s106 -58.333 194 -61c70.667 1.33301 129.667 22 177 62s69.666 107.333 66.999 202v854h470v-60h-410v-794c4 -101.333 -18 -178.333 -66 -231s-127.333 -83.667 -238 -93c-116 4 -197.333 32 -244 84
s-68.667 132 -66 240v794h-410v60h470zM1434 1074l60.001 0.00195312v-477c-2 -120 -21.833 -215.833 -59.5 -287.5s-85.334 -131.5 -143.001 -179.5s-130 -85.333 -217 -112s-183.833 -41.334 -290.5 -44.001c-88.667 2 -178.834 14.167 -270.501 36.5
s-171.667 57.5 -240 105.5s-121 109.667 -158 185s-55.5 173.666 -55.5 294.999v478h60v-478c6.66699 -118.667 25 -207.667 55 -267s75.333 -111.666 136 -156.999s133.667 -79 219 -101s170 -34.333 254 -37c100 4 191.333 19 274 45s149 60.667 199 104
s91.333 94.666 124 153.999s50.334 146 53.001 260v477zM1347 1796h-462l-176 -318zM1146 1742l-310 -150l94 150h216zM60.002 1324l357.001 -0.00390625v-732c0.666992 -117.333 26.667 -209.333 78 -276s145.666 -100.667 282.999 -102c130.667 8 223.667 44.333 279 109
s82.333 154.334 81 269.001v732h356v-190h-113v-537c-5.33301 -107.333 -21.5 -186.166 -48.5 -236.499s-62 -93.833 -105 -130.5s-104 -68.5 -183 -95.5s-165.167 -42.5 -258.5 -46.5c-78.667 2.66699 -158.167 14.334 -238.5 35.001s-147.5 52.334 -201.5 95.001
s-93.333 86.5 -118 131.5s-40 127.167 -46 246.5v538h-122v190zM1058 1722l-153 -70l47 70h106z" />
    <glyph glyph-name="Ucircumflex" unicode="&#xdb;" horiz-adv-x="1494" 
d="M530 1444l0.000976562 -854c-4 -97.333 14.667 -165 56 -203s106 -58.333 194 -61c70.667 1.33301 129.667 22 177 62s69.666 107.333 66.999 202v854h470v-60h-410v-794c4 -101.333 -18 -178.333 -66 -231s-127.333 -83.667 -238 -93c-116 4 -197.333 32 -244 84
s-68.667 132 -66 240v794h-410v60h470zM1434 1074l60.001 0.00195312v-477c-2 -120 -21.833 -215.833 -59.5 -287.5s-85.334 -131.5 -143.001 -179.5s-130 -85.333 -217 -112s-183.833 -41.334 -290.5 -44.001c-88.667 2 -178.834 14.167 -270.501 36.5
s-171.667 57.5 -240 105.5s-121 109.667 -158 185s-55.5 173.666 -55.5 294.999v478h60v-478c6.66699 -118.667 25 -207.667 55 -267s75.333 -111.666 136 -156.999s133.667 -79 219 -101s170 -34.333 254 -37c100 4 191.333 19 274 45s149 60.667 199 104
s91.333 94.666 124 153.999s50.334 146 53.001 260v477zM1066 1538l-290 300l-287 -300v-62l290 181l287 -185v66zM586.002 1576l190 193l196 -183l-196 127zM60.002 1324l357.001 -0.00390625v-732c0.666992 -117.333 26.667 -209.333 78 -276
s145.666 -100.667 282.999 -102c130.667 8 223.667 44.333 279 109s82.333 154.334 81 269.001v732h356v-190h-113v-537c-5.33301 -107.333 -21.5 -186.166 -48.5 -236.499s-62 -93.833 -105 -130.5s-104 -68.5 -183 -95.5s-165.167 -42.5 -258.5 -46.5
c-78.667 2.66699 -158.167 14.334 -238.5 35.001s-147.5 52.334 -201.5 95.001s-93.333 86.5 -118 131.5s-40 127.167 -46 246.5v538h-122v190z" />
    <glyph glyph-name="Udieresis" unicode="&#xdc;" horiz-adv-x="1494" 
d="M530 1444l0.000976562 -854c-4 -97.333 14.667 -165 56 -203s106 -58.333 194 -61c70.667 1.33301 129.667 22 177 62s69.666 107.333 66.999 202v854h470v-60h-410v-794c4 -101.333 -18 -178.333 -66 -231s-127.333 -83.667 -238 -93c-116 4 -197.333 32 -244 84
s-68.667 132 -66 240v794h-410v60h470zM1434 1074l60.001 0.00195312v-477c-2 -120 -21.833 -215.833 -59.5 -287.5s-85.334 -131.5 -143.001 -179.5s-130 -85.333 -217 -112s-183.833 -41.334 -290.5 -44.001c-88.667 2 -178.834 14.167 -270.501 36.5
s-171.667 57.5 -240 105.5s-121 109.667 -158 185s-55.5 173.666 -55.5 294.999v478h60v-478c6.66699 -118.667 25 -207.667 55 -267s75.333 -111.666 136 -156.999s133.667 -79 219 -101s170 -34.333 254 -37c100 4 191.333 19 274 45s149 60.667 199 104
s91.333 94.666 124 153.999s50.334 146 53.001 260v477zM547.002 1764c34 0 61.8311 -11.167 83.498 -33.5s32.5 -50.166 32.5 -83.499c-3.33301 -40.667 -16.166 -71.334 -38.499 -92.001s-50.166 -31 -83.499 -31c-32 0 -59 11 -81 33s-33 49.667 -33 83
c0 37.333 11 67.333 33 90s51 34 87 34zM547 1706c-20.667 0 -37.168 -6.16895 -49.501 -18.502s-18.5 -29.166 -18.5 -50.499c0 -18.667 6.16699 -34.167 18.5 -46.5s27.5 -18.5 45.5 -18.5c19.333 0 35.333 5.83301 48 17.5s20 28.834 22 51.501
c0 18.667 -6.16699 34.167 -18.5 46.5s-28.166 18.5 -47.499 18.5zM1023 1760c34 0 61.8311 -11.167 83.498 -33.5s32.5 -50.166 32.5 -83.499c-3.33301 -40.667 -16.166 -71.334 -38.499 -92.001s-50.166 -31 -83.499 -31c-32 0 -59 11 -81 33s-33 49.667 -33 83
c0 37.333 11 67.333 33 90s51 34 87 34zM1023 1702c-20.667 0 -37.168 -6.16895 -49.501 -18.502s-18.5 -29.166 -18.5 -50.499c0 -18.667 6.16699 -34.167 18.5 -46.5s27.5 -18.5 45.5 -18.5c19.333 0 35.333 5.83301 48 17.5s20 28.834 22 51.501
c0 18.667 -6.16699 34.167 -18.5 46.5s-28.166 18.5 -47.499 18.5zM59.9961 1324l357.001 -0.00390625v-732c0.666992 -117.333 26.667 -209.333 78 -276s145.666 -100.667 282.999 -102c130.667 8 223.667 44.333 279 109s82.333 154.334 81 269.001v732h356v-190h-113
v-537c-5.33301 -107.333 -21.5 -186.166 -48.5 -236.499s-62 -93.833 -105 -130.5s-104 -68.5 -183 -95.5s-165.167 -42.5 -258.5 -46.5c-78.667 2.66699 -158.167 14.334 -238.5 35.001s-147.5 52.334 -201.5 95.001s-93.333 86.5 -118 131.5s-40 127.167 -46 246.5v538
h-122v190zM547.997 1677.99c11.333 0 20.665 -3.5 27.998 -10.5s11 -15.833 11 -26.5c-1.33301 -13.333 -5.66602 -23.5 -12.999 -30.5s-16.666 -10.5 -27.999 -10.5c-10.667 0 -19.5 3.66699 -26.5 11s-10.5 16.333 -10.5 27c0 12.667 3.5 22.5 10.5 29.5
s16.5 10.5 28.5 10.5zM1024 1671.99c11.333 0 20.665 -3.5 27.998 -10.5s11 -15.833 11 -26.5c-1.33301 -13.333 -5.66602 -23.5 -12.999 -30.5s-16.666 -10.5 -27.999 -10.5c-10.667 0 -19.5 3.66699 -26.5 11s-10.5 16.333 -10.5 27c0 12.667 3.5 22.5 10.5 29.5
s16.5 10.5 28.5 10.5z" />
    <glyph glyph-name="Yacute" unicode="&#xdd;" horiz-adv-x="1264" 
d="M60 1384v60h306l294 -446l298 446h306v-60h-266l-303 -446h-65l-296 446h-274zM1264 1074v-60h-26l-340 -484v-530h-472v530l-340 484h-26v60h60l368 -526v-488h352v488l364 526h60zM1235 1796h-462l-176 -318zM1030 1742l-310 -150l94 150h216zM60 1324h242l304 -444
h120l302 444h236v-190h-82l-396 -570v-448h-226v444l-401 574h-99v190zM938 1718l-153 -70l47 70h106z" />
    <glyph glyph-name="Thorn" unicode="&#xde;" horiz-adv-x="1394" 
d="M530 272l-0.00292969 -271.995h-470v60h410v272h302c106.667 -1.33301 193 7 259 25s119.333 41.667 160 71s72.667 67.666 96 114.999s38.333 109.666 45 186.999c-6.66699 81.333 -21.667 145.666 -45 192.999s-56 85.666 -98 114.999s-97.667 53 -167 71
s-253.333 24.333 -552 19v256h-410v60h470v-253c266.667 0.666992 436.334 -8.33301 509.001 -27s134 -45 184 -79s90.5 -79.167 121.5 -135.5s46.5 -129.833 46.5 -220.5c-5.33301 -84 -23 -155.333 -53 -214s-69.667 -105 -119 -139s-109.666 -60.333 -180.999 -79
s-160.666 -27.334 -267.999 -26.001zM119.997 1074v-704h-60v704h60zM59.9971 1324l353 -0.000976562v-239h56c290 2 467 -5.66699 531 -23s114 -38.666 150 -63.999s65.5 -57.333 88.5 -96s36.5 -96.667 40.5 -174c-4.66699 -72 -16.167 -127 -34.5 -165
s-44.333 -70 -78 -96s-81.667 -47 -144 -63s-145.833 -24 -250.5 -24h-304h-52v-260h-356v190h122v824h-122v190zM744.997 474.004c56 0 110 7.83105 162 23.498s94.167 38.334 126.5 68.001s51.5 80.5 57.5 152.5c4 66.667 -13.833 117.834 -53.5 153.501
s-82 59.667 -127 72s-101.833 18.5 -170.5 18.5h-328v-488h333zM744.997 522.002l-280.001 -0.000976562v388h276c58 0 106 -5 144 -15s73.5 -29.333 106.5 -58s48.167 -69 45.5 -121c-5.33301 -58 -21.666 -98.667 -48.999 -122s-62.833 -41.166 -106.5 -53.499
s-89.167 -18.5 -136.5 -18.5zM517.996 849.001v-258.999l223 -1c50.667 0 91.667 4.83301 123 14.5s56.833 21.834 76.5 36.501s32.5 41 38.5 79c-2 35.333 -13.167 61.166 -33.5 77.499s-46.833 29.166 -79.5 38.499s-75 14 -127 14h-221z" />
    <glyph glyph-name="germandbls" unicode="&#xdf;" horiz-adv-x="1628" 
d="M558 559l0.00585938 -855h-498v1740h985c158 -1.33301 278.167 -28.666 360.5 -81.999s132.166 -142.666 149.499 -267.999c6 -96 -14.333 -171.333 -61 -226s-123.667 -99.667 -231 -135v-4c52.667 -6.66699 101.334 -20.834 146.001 -42.501
s82.167 -47.334 112.5 -77.001s53.833 -63.167 70.5 -100.5s25 -74 25 -110c0 -114 -29.167 -200.333 -87.5 -259s-133.333 -97 -225 -115s-202.834 -26.333 -333.501 -25h-287v292h195c55.333 -2 103.666 10 144.999 36s62.666 58.333 63.999 97
c2.66699 41.333 -14.833 74 -52.5 98s-89.834 36 -156.501 36l-235 1v316l264 -1c19.333 0 39.666 10.167 60.999 30.5s32.666 47.5 33.999 81.5c-2.66699 39.333 -15.5 67 -38.5 83s-42.167 24 -57.5 24h-349v-535zM120.006 -236l378 0.00292969l-1 1390h411
c21.333 0 50.833 -13.667 88.5 -41s59.834 -69.333 66.501 -126c-2 -48.667 -20.667 -90.667 -56 -126s-68.333 -50.666 -99 -45.999l-204 1v-196l175 -1c78.667 2.66699 144.167 -14.333 196.5 -51s76.5 -84.334 72.5 -143.001c-6.66699 -58 -36.5 -104.833 -89.5 -140.5
s-113.167 -53.167 -180.5 -52.5h-132v-172h225c128.667 -2.66699 236.5 4.66602 323.5 21.999s153.167 52.166 198.5 104.499s66.666 123.166 63.999 212.499c0 35.333 -7.66699 68 -23 98s-35 56.667 -59 80s-55 44.5 -93 63.5s-101.333 45.5 -190 79.5v24
c114.667 44 195.5 90.333 242.5 139s67.167 119 60.5 211c-14.667 105.333 -57.667 179.5 -129 222.5s-178.333 65.5 -321 67.5h-925v-1620zM180.006 -171.997l-0.000976562 1496h864c122.667 -5.33301 214 -24 274 -56s99.333 -89.333 118 -172
c0 -80 -14 -138.667 -42 -176s-118 -90.666 -270 -159.999v-48c122.667 -48 198.667 -82.667 228 -104s57.333 -46 84 -74s49.334 -72.667 68.001 -134c2.66699 -80 -14 -140 -50 -180s-92 -67.333 -168 -82s-183.333 -23.334 -322 -26.001h-176v72h88
c85.333 0 159.333 19.333 222 58s96.667 100.667 102 186c-8 77.333 -38.667 136 -92 176s-125.333 60 -216 60h-132v104h144c56 2.66699 104 24 144 64s60 93.333 60 160c-2.66699 66.667 -24 118 -64 154s-85.333 56.667 -136 62h-460v-1380h-268z" />
    <glyph glyph-name="agrave" unicode="&#xe0;" horiz-adv-x="1615" 
d="M0 0l475 1444h717l483 -1444h-546l-91 260h-429l-91 -260h-518zM84 60h394l93 260h515l94 -260h413l-440 1324h-628zM708 612h238l-110 322zM307 1796h462l176 -318zM504 1742l320 -150l-98 150h-222zM184 132l396 1188h524l400 -1188h-276l-108 256h-588l-96 -256h-252z
M838 1057l186 -489h-386zM840 1181l-282 -671h549zM604 1720l153 -70l-47 70h-106z" />
    <glyph glyph-name="aacute" unicode="&#xe1;" horiz-adv-x="1615" 
d="M0 0l475 1444h717l483 -1444h-546l-91 260h-429l-91 -260h-518zM84 60h394l93 260h515l94 -260h413l-440 1324h-628zM708 612h238l-110 322zM1383 1796h-462l-176 -318zM1174 1742l-310 -150l94 150h216zM184 132l396 1188h524l400 -1188h-276l-108 256h-588l-96 -256
h-252zM838 1057l186 -489h-386zM840 1181l-282 -671h549zM1084 1720l-153 -70l47 70h106z" />
    <glyph glyph-name="acircumflex" unicode="&#xe2;" horiz-adv-x="1615" 
d="M0 0l475 1444h717l483 -1444h-546l-91 260h-429l-91 -260h-518zM84 60h394l93 260h515l94 -260h413l-440 1324h-628zM708 612h238l-110 322zM1114 1534l-279 283l-278 -283v-59l280 171l277 -174v62zM642 1568l190 180l196 -172l-196 120zM184 132l396 1188h524
l400 -1188h-276l-108 256h-588l-96 -256h-252zM838 1057l186 -489h-386zM840 1181l-282 -671h549z" />
    <glyph glyph-name="atilde" unicode="&#xe3;" horiz-adv-x="1615" 
d="M0 0l475 1444h717l483 -1444h-546l-91 260h-429l-91 -260h-518zM84 60h394l93 260h515l94 -260h413l-440 1324h-628zM708 612h238l-110 322zM604 1724c68 38.667 128.667 29.666 182 -27.001s97 -94 131 -112s91 -13 171 15c-76 -77.333 -146 -82 -210 -14
s-115 107.333 -153 118s-78.333 17.334 -121 20.001zM1132 1676c-98.667 -93.333 -206.333 -76.334 -323 50.999s-224 101 -322 -79l60 -47c56.667 111.333 141 106.333 253 -15s248 -104.666 408 50.001zM184.001 131.998l396 1188h524l400 -1188h-276l-108 256h-588
l-96 -256h-252zM838.001 1057l186 -489h-386zM840.001 1181l-282 -671h549z" />
    <glyph glyph-name="adieresis" unicode="&#xe4;" horiz-adv-x="1615" 
d="M0 0l475 1444h717l483 -1444h-546l-91 260h-429l-91 -260h-518zM84 60h394l93 260h515l94 -260h413l-440 1324h-628zM708 612h238l-110 322zM671 1764c34 0 61.8311 -11.167 83.498 -33.5s32.5 -50.166 32.5 -83.499c-3.33301 -40.667 -16.166 -71.334 -38.499 -92.001
s-50.166 -31 -83.499 -31c-32 0 -59 11 -81 33s-33 49.667 -33 83c0 37.333 11 67.333 33 90s51 34 87 34zM1001 1764c34 0 61.8311 -11.167 83.498 -33.5s32.5 -50.166 32.5 -83.499c-3.33301 -40.667 -16.166 -71.334 -38.499 -92.001s-50.166 -31 -83.499 -31
c-32 0 -59 11 -81 33s-33 49.667 -33 83c0 37.333 11 67.333 33 90s51 34 87 34zM670.996 1706c-20.667 0 -37.168 -6.16895 -49.501 -18.502s-18.5 -29.166 -18.5 -50.499c0 -18.667 6.16699 -34.167 18.5 -46.5s27.5 -18.5 45.5 -18.5c19.333 0 35.333 5.83301 48 17.5
s20 28.834 22 51.501c0 18.667 -6.16699 34.167 -18.5 46.5s-28.166 18.5 -47.499 18.5zM1003 1706c-20.667 0 -37.168 -6.16895 -49.501 -18.502s-18.5 -29.166 -18.5 -50.499c0 -18.667 6.16699 -34.167 18.5 -46.5s27.5 -18.5 45.5 -18.5
c19.333 0 35.333 5.83301 48 17.5s20 28.834 22 51.501c0 18.667 -6.16699 34.167 -18.5 46.5s-28.166 18.5 -47.499 18.5zM183.994 131.996l396 1188h524l400 -1188h-276l-108 256h-588l-96 -256h-252zM837.994 1057l186 -489h-386zM839.994 1181l-282 -671h549z
M669.994 1678c11.333 0 20.665 -3.5 27.998 -10.5s11 -15.833 11 -26.5c-1.33301 -13.333 -5.66602 -23.5 -12.999 -30.5s-16.666 -10.5 -27.999 -10.5c-10.667 0 -19.5 3.66699 -26.5 11s-10.5 16.333 -10.5 27c0 12.667 3.5 22.5 10.5 29.5s16.5 10.5 28.5 10.5z
M1003.99 1678c11.333 0 20.665 -3.5 27.998 -10.5s11 -15.833 11 -26.5c-1.33301 -13.333 -5.66602 -23.5 -12.999 -30.5s-16.666 -10.5 -27.999 -10.5c-10.667 0 -19.5 3.66699 -26.5 11s-10.5 16.333 -10.5 27c0 12.667 3.5 22.5 10.5 29.5s16.5 10.5 28.5 10.5z" />
    <glyph glyph-name="aring" unicode="&#xe5;" horiz-adv-x="1615" 
d="M0 0l475 1444h717l483 -1444h-546l-91 260h-429l-91 -260h-518zM84 60h394l93 260h515l94 -260h413l-440 1324h-628zM708 612h238l-110 322zM834 1848c55.333 0 101.168 -18.333 137.501 -55s54.5 -82 54.5 -136c0 -54.667 -19.833 -101.5 -59.5 -140.5
s-86.834 -58.5 -141.501 -58.5c-52.667 0 -97.167 17.667 -133.5 53s-54.5 80.333 -54.5 135c0 60.667 18.333 109.5 55 146.5s84 55.5 142 55.5zM837.002 1768c-36 0 -64.998 -11.333 -86.998 -34s-33 -52.667 -33 -90c0 -33.333 11 -61 33 -83s49 -33 81 -33
c33.333 0 61.166 10.333 83.499 31s35.166 51.334 38.499 92.001c0 33.333 -10.833 61.166 -32.5 83.499s-49.5 33.5 -83.5 33.5zM184.004 132l396 1188h524l400 -1188h-276l-108 256h-588l-96 -256h-252zM838.004 1057l186 -489h-386zM840.004 1181l-282 -671h549z" />
    <glyph glyph-name="ae" unicode="&#xe6;" horiz-adv-x="2118" 
d="M812 0v260h-227l-91 -260h-518l475 1444h1605v-430h-768v-166h496v-252h-496v-166h830v-430h-1306zM1056 1384h-561l-441 -1324h394l93 260h331v-260h1186v310h-830v284h496v134h-496v286h768v310h-940zM136 120l404 1204h1404v-190h-773v-382h497v-54h-497v-388l833 2
v-192h-1082v264h-434l-90 -264h-262zM888 1220l-318 -710l318 2v708zM854 1045l-2 -489h-198zM716 600h104v258z" />
    <glyph glyph-name="ccedilla" unicode="&#xe7;" horiz-adv-x="1484" 
d="M752 4c-95.333 -2.66699 -206.331 23.834 -332.998 79.501s-226.5 139.167 -299.5 250.5s-109.5 247.666 -109.5 408.999c0 113.333 21.833 214.5 65.5 303.5s104.167 163 181.5 222s166.166 103 266.499 132s207.166 43.5 320.499 43.5h396h244v-430h-452
c-101.333 0 -176.333 -3 -225 -9s-92 -16 -130 -30s-71.667 -38.333 -101 -73s-46.333 -96 -51 -184c3.33301 -85.333 20.333 -146.333 51 -183s68 -61 112 -73s89.333 -20.333 136 -25s116 -7 208 -7h452v-430h-526v-112c71.333 -13.333 124.333 -36 159 -68
s52 -70.667 52 -116c0 -61.333 -33.833 -114.833 -101.5 -160.5s-154.834 -68.5 -261.501 -68.5c-42 0 -95 2.66699 -159 8l15 87c28 -8 61.333 -12.667 100 -14c66.667 0 111.834 10.333 135.501 31s35.5 49 35.5 85c0 25.333 -13 47.333 -39 66s-58.333 28 -97 28
c-11.333 0 -26 -1 -44 -3zM1424 1384h-579.997c-109.333 -1.33301 -209.333 -14.333 -300 -39s-171 -64.334 -241 -119.001s-125.667 -122 -167 -202s-63.333 -173.667 -66 -281c-1.33301 -151.333 32.667 -277.666 102 -378.999s162.666 -176.666 279.999 -225.999
s237.333 -74.666 360 -75.999v-228c29.333 -2.66699 65.666 -17.334 108.999 -44.001s67 -66 71 -118c1.33301 -38.667 -6.33398 -68.667 -23.001 -90s-61 -39.333 -133 -54c74.667 8 130 22.667 166 44s61.667 41.333 77 60s24.333 42.667 27 72
c-5.33301 44 -27 76.667 -65 98s-87 38 -147 50v208h240h290v310h-392c-90.667 -1.33301 -162.667 1 -216 7s-106 16 -158 30s-95.667 45 -131 93s-56 120.667 -62 218c7.33301 112 30 187 68 225s78.667 65.667 122 83s91.5 29.166 144.5 35.499s130.5 10.5 232.5 12.5h392
v310zM1378 1328l0.000976562 -192h-346c-100 -1.33301 -179.667 -5.66602 -239 -12.999s-115 -21 -167 -41s-100 -52 -144 -96s-70 -132.667 -78 -266c8 -109.333 33.333 -192 76 -248s94.334 -93.333 155.001 -112s120 -31.334 178 -38.001s132.333 -10 223 -10h336v-192
h-528c-130.667 0 -250 23.333 -358 70s-194.667 115.334 -260 206.001s-98 206.667 -98 348c5.33301 101.333 26.666 188 63.999 260s88.666 132 153.999 180s139.333 82.667 222 104s176 34.666 280 39.999h530zM842.006 119.001l21.9961 0.000976562v-271
c70.667 -22.667 121.334 -43 152.001 -61s54 -45.667 70 -83c-4 -24 -13 -44.667 -27 -62s-36.333 -36 -67 -56c14.667 26.667 23.334 56.667 26.001 90c-13.333 52 -26.666 84.667 -39.999 98s-58.666 38.666 -135.999 75.999v269z" />
    <glyph glyph-name="egrave" unicode="&#xe8;" horiz-adv-x="1360" 
d="M60 0v1444h1238v-430h-768v-166h496v-252h-496v-166h830v-430h-1300zM203 1796h462l176 -318zM120 1384v-1324h1180v310h-830v284h496v134h-496v286h768v310h-1118zM408 1742l320 -150l-98 150h-222zM180 1324h1000v-188h-760v-388h484v-54h-486l-2 -386h824v-192h-1060
v1208zM514 1718l153 -70l-47 70h-106z" />
    <glyph glyph-name="eacute" unicode="&#xe9;" horiz-adv-x="1360" 
d="M60 0v1444h1238v-430h-768v-166h496v-252h-496v-166h830v-430h-1300zM1311 1796h-462l-176 -318zM120 1384v-1324h1180v310h-830v284h496v134h-496v286h768v310h-1118zM1102 1742l-310 -150l94 150h216zM180 1324h1000v-188h-760v-388h484v-54h-486l-2 -386h824v-192
h-1060v1208zM1010 1720l-153 -70l47 70h106z" />
    <glyph glyph-name="ecircumflex" unicode="&#xea;" horiz-adv-x="1360" 
d="M60 0v1444h1238v-430h-768v-166h496v-252h-496v-166h830v-430h-1300zM1030 1534l-279 283l-278 -283v-59l280 171l277 -174v62zM120 1384v-1324h1180v310h-830v284h496v134h-496v286h768v310h-1118zM562 1568l190 180l196 -172l-196 120zM180 1324h1000v-188h-760v-388
h484v-54h-486l-2 -386h824v-192h-1060v1208z" />
    <glyph glyph-name="edieresis" unicode="&#xeb;" horiz-adv-x="1360" 
d="M60 0v1444h1238v-430h-768v-166h496v-252h-496v-166h830v-430h-1300zM563 1764c34 0 61.8311 -11.167 83.498 -33.5s32.5 -50.166 32.5 -83.499c-3.33301 -40.667 -16.166 -71.334 -38.499 -92.001s-50.166 -31 -83.499 -31c-32 0 -59 11 -81 33s-33 49.667 -33 83
c0 37.333 11 67.333 33 90s51 34 87 34zM940.998 1764c34 0 61.8311 -11.167 83.498 -33.5s32.5 -50.166 32.5 -83.499c-3.33301 -40.667 -16.166 -71.334 -38.499 -92.001s-50.166 -31 -83.499 -31c-32 0 -59 11 -81 33s-33 49.667 -33 83c0 37.333 11 67.333 33 90
s51 34 87 34zM119.996 1384v-1324h1180v310h-830v284h496v134h-496v286h768v310h-1118zM562.996 1710c-20.667 0 -37.168 -6.16895 -49.501 -18.502s-18.5 -29.166 -18.5 -50.499c0 -18.667 6.16699 -34.167 18.5 -46.5s27.5 -18.5 45.5 -18.5
c19.333 0 35.333 5.83301 48 17.5s20 28.834 22 51.501c0 18.667 -6.16699 34.167 -18.5 46.5s-28.166 18.5 -47.499 18.5zM940.995 1712c-20.667 0 -37.168 -6.16895 -49.501 -18.502s-18.5 -29.166 -18.5 -50.499c0 -18.667 6.16699 -34.167 18.5 -46.5
s27.5 -18.5 45.5 -18.5c19.333 0 35.333 5.83301 48 17.5s20 28.834 22 51.501c0 18.667 -6.16699 34.167 -18.5 46.5s-28.166 18.5 -47.499 18.5zM179.994 1324h1000v-188h-760v-388h484v-54h-486l-2 -386h824v-192h-1060v1208zM939.994 1684
c11.333 0 20.665 -3.5 27.998 -10.5s11 -15.833 11 -26.5c-1.33301 -13.333 -5.66602 -23.5 -12.999 -30.5s-16.666 -10.5 -27.999 -10.5c-10.667 0 -19.5 3.66699 -26.5 11s-10.5 16.333 -10.5 27c0 12.667 3.5 22.5 10.5 29.5s16.5 10.5 28.5 10.5zM563.993 1680
c11.333 0 20.665 -3.5 27.998 -10.5s11 -15.833 11 -26.5c-1.33301 -13.333 -5.66602 -23.5 -12.999 -30.5s-16.666 -10.5 -27.999 -10.5c-10.667 0 -19.5 3.66699 -26.5 11s-10.5 16.333 -10.5 27c0 12.667 3.5 22.5 10.5 29.5s16.5 10.5 28.5 10.5z" />
    <glyph glyph-name="igrave" unicode="&#xec;" horiz-adv-x="550" 
d="M40 1444h470v-1444h-470v1444zM26 1796h371l113 -316zM100 1384v-1324h350v1324h-350zM168 1746l260 -150l-80 150h-180zM161 1318l227 2v-1200l-227 -3v1201zM254 1724l119 -70l-37 70h-82z" />
    <glyph glyph-name="iacute" unicode="&#xed;" horiz-adv-x="550" 
d="M508 1444v-1444h-468v1444h468zM510 1796h-371l-113 -316zM100 1384v-1324h350v1324h-350zM356 1746l-243 -150l75 150h168zM161 1318l227 2v-1200l-227 -3v1201zM282 1724l-119 -70l37 70h82z" />
    <glyph glyph-name="icircumflex" unicode="&#xee;" horiz-adv-x="550" 
d="M40 1444h470v-1444h-470v1444zM502 1540l-229 283l-228 -283v-59l229 171l228 -174v62zM100 1384v-1324h350v1324h-350zM118 1576l154 180l160 -172l-160 120zM161 1318l227 2v-1200l-227 -3v1201z" />
    <glyph glyph-name="idieresis" unicode="&#xef;" horiz-adv-x="550" 
d="M40 1444h470v-1444h-470v1444zM123 1764c34 0 61.8311 -11.167 83.498 -33.5s32.5 -50.166 32.5 -83.499c-3.33301 -40.667 -16.166 -71.334 -38.499 -92.001s-50.166 -31 -83.499 -31c-32 0 -59 11 -81 33s-33 49.667 -33 83c0 37.333 11 67.333 33 90s51 34 87 34z
M434.998 1764c34 0 61.8311 -11.167 83.498 -33.5s32.5 -50.166 32.5 -83.499c-3.33301 -40.667 -16.166 -71.334 -38.499 -92.001s-50.166 -31 -83.499 -31c-32 0 -59 11 -81 33s-33 49.667 -33 83c0 37.333 11 67.333 33 90s51 34 87 34zM99.9961 1384v-1324h350v1324
h-350zM122.996 1706c-20.667 0 -37.168 -6.16895 -49.501 -18.502s-18.5 -29.166 -18.5 -50.499c0 -18.667 6.16699 -34.167 18.5 -46.5s27.5 -18.5 45.5 -18.5c19.333 0 35.333 5.83301 48 17.5s20 28.834 22 51.501c0 18.667 -6.16699 34.167 -18.5 46.5
s-28.166 18.5 -47.499 18.5zM434.995 1706c-20.667 0 -37.168 -6.16895 -49.501 -18.502s-18.5 -29.166 -18.5 -50.499c0 -18.667 6.16699 -34.167 18.5 -46.5s27.5 -18.5 45.5 -18.5c19.333 0 35.333 5.83301 48 17.5s20 28.834 22 51.501
c0 18.667 -6.16699 34.167 -18.5 46.5s-28.166 18.5 -47.499 18.5zM160.994 1318l227 2v-1200l-227 -3v1201zM121.994 1678c11.333 0 20.665 -3.5 27.998 -10.5s11 -15.833 11 -26.5c-1.33301 -13.333 -5.66602 -23.5 -12.999 -30.5s-16.666 -10.5 -27.999 -10.5
c-10.667 0 -19.5 3.66699 -26.5 11s-10.5 16.333 -10.5 27c0 12.667 3.5 22.5 10.5 29.5s16.5 10.5 28.5 10.5zM433.993 1678c11.333 0 20.665 -3.5 27.998 -10.5s11 -15.833 11 -26.5c-1.33301 -13.333 -5.66602 -23.5 -12.999 -30.5s-16.666 -10.5 -27.999 -10.5
c-10.667 0 -19.5 3.66699 -26.5 11s-10.5 16.333 -10.5 27c0 12.667 3.5 22.5 10.5 29.5s16.5 10.5 28.5 10.5z" />
    <glyph glyph-name="eth" unicode="&#xf0;" horiz-adv-x="1804" 
d="M212 0l0.00195312 541.998h-254v252h254v650h852c115.333 0 217 -15.333 305 -46s162.333 -72 223 -124s111.167 -122.333 151.5 -211s60.5 -204 60.5 -346c-7.33301 -131.333 -29.333 -243 -66 -335s-85.334 -164.667 -146.001 -218s-134.834 -94.666 -222.501 -123.999
s-197.5 -42.666 -329.5 -39.999h-828zM694.002 1086l273.001 -0.00195312c63.333 0 114.666 -13.167 153.999 -39.5s71.5 -62.666 96.5 -108.999s38.5 -118.166 40.5 -215.499c-6.66699 -106.667 -22 -180.5 -46 -221.5s-55 -74.667 -93 -101s-88 -39.5 -150 -39.5h-275
l-2 248h280v128h-280zM272.003 59.9961l768 0.000976562c160 4 274.333 19.667 343 47s125.667 62 171 104s87.333 104 126 186s60 190.333 64 325c-5.33301 129.333 -15 213 -29 251s-32 78.667 -54 122s-56.333 87.666 -103 132.999s-111.667 83.333 -195 114
s-183 44.667 -299 42h-792v-662l-252 2v-116h252v-548zM754.003 1031l-2.00098 -235h288v-252h-288l2 -127h207c58 2 100.667 15 128 39s47.833 49.833 61.5 77.5s24.167 90.834 31.5 189.501c-5.33301 83.333 -15.666 142.666 -30.999 177.999s-37 65.5 -65 90.5
s-70.333 38.167 -127 39.5h-205zM336.002 119.997l0.000976562 529.998h-244v32h244v638l721 -3c107.333 3.33301 199.166 -9 275.499 -37s135.833 -62.5 178.5 -103.5s74.334 -81.167 95.001 -120.5s37.167 -76.166 49.5 -110.499s21.166 -109.833 26.499 -226.5
c-4.66699 -121.333 -24.5 -219.166 -59.5 -293.499s-73.333 -130.5 -115 -168.5s-94 -69.167 -157 -93.5s-168.167 -38.833 -315.5 -43.5h-699zM626.003 1143v-451h290v-40h-290v-352h341c78 0 140.833 15.5 188.5 46.5s86.167 70.5 115.5 118.5s48.333 134 57 258
c-2.66699 112 -19.667 195 -51 249s-71.333 96 -120 126s-112.667 45 -192 45h-339z" />
    <glyph glyph-name="ntilde" unicode="&#xf1;" horiz-adv-x="1430" 
d="M60 0v1444h470l430 -540v540h470v-1444h-470l-430 540v-540h-470zM120 1384v-1324h350v540h95l430 -540h375v1324h-350v-538h-95l-420 538h-385zM988 1668c-98.667 -93.333 -206.333 -76.334 -323 50.999s-224 101 -322 -79l60 -47c56.667 111.333 141 106.333 253 -15
s248 -104.666 408 50.001zM456.001 1724c68 38.667 128.667 29.666 182 -27.001s97 -94 131 -112s91 -13 171 15c-76 -77.333 -146 -82 -210 -14s-115 107.333 -153 118s-78.333 17.334 -121 20.001zM180.001 1320h294l418 -534h194v532h225v-1200h-282l-431 539h-176
l-2 -537h-240v1200z" />
    <glyph glyph-name="ograve" unicode="&#xf2;" horiz-adv-x="1677" 
d="M1668 714c0 -158 -33.0029 -292.667 -99.0029 -404s-161.5 -195 -286.5 -251s-274.167 -84 -447.5 -84s-322.166 28.167 -446.499 84.5s-218.5 139.666 -282.5 249.999s-96 245.166 -96 404.499c0 120.667 18.333 226.834 55 318.501s90.334 168.834 161.001 231.501
s157.334 110.167 260.001 142.5s219 48.5 349 48.5c172.667 0 321.667 -28.5 447 -85.5s221 -141 287 -252s99 -245.5 99 -403.5zM202.997 1796h462l176 -318zM1608 714c-2.66699 145.333 -34.499 268.999 -95.499 370.999s-149.333 179.333 -265 232s-253.167 79 -412.5 79
c-120 0 -227.333 -15 -322 -45s-174.667 -73.667 -240 -131s-114.833 -128.166 -148.5 -212.499s-51.834 -181.833 -54.501 -292.5c2.66699 -146.667 33.5 -270.667 92.5 -372s145.833 -178 260.5 -230s252 -78 412 -78s297.667 25.833 413 77.5s203.5 128.667 264.5 231
s92.833 225.833 95.5 370.5zM407.998 1742l320 -150l-98 150h-222zM485.998 711.999c0 253.333 113.335 380 340.002 380c144 0 238.333 -37.833 283 -113.5s69.667 -164.5 75 -266.5c-5.33301 -71.333 -14.333 -132.5 -27 -183.5s-44.834 -96.333 -96.501 -136
s-129.834 -59.5 -234.501 -59.5c-134.667 0 -225 37.833 -271 113.5s-69 164.167 -69 265.5zM551 708.999c0 -84.667 18.667 -158.501 56 -221.501s111.666 -94.5 222.999 -94.5c85.333 0 149.333 16.667 192 50s69.334 71 80.001 113s17.667 93 21 153
c-3.33301 84.667 -23.5 158.334 -60.5 221.001s-114.5 94 -232.5 94c-186 0 -279 -105 -279 -315zM1547 713.998c-2 -131.333 -30.999 -243.166 -86.999 -335.499s-136.833 -162 -242.5 -209s-231.834 -70.5 -378.501 -70.5s-272.667 23.667 -378 71
s-185 116.666 -239 207.999s-82 203.333 -84 336c2 100 18.5 188.167 49.5 264.5s76.333 140.333 136 192s133 91 220 118s185.5 40.5 295.5 40.5c146 0 272 -23.833 378 -71.5s187 -117.5 243 -209.5s85 -203.333 87 -334zM426.001 707.998
c0 -116.667 27 -219.001 81 -307.001s160.333 -132 319 -132c124 0 216.667 23.167 278 69.5s99.5 99 114.5 158s25.833 129.5 32.5 211.5c-6.66699 118.667 -36.5 221.834 -89.5 309.501s-164.833 131.5 -335.5 131.5c-266.667 0 -400 -147 -400 -441zM512.001 1720
l153 -70l-47 70h-106z" />
    <glyph glyph-name="oacute" unicode="&#xf3;" horiz-adv-x="1677" 
d="M1668 714c0 -158 -33.0029 -292.667 -99.0029 -404s-161.5 -195 -286.5 -251s-274.167 -84 -447.5 -84s-322.166 28.167 -446.499 84.5s-218.5 139.666 -282.5 249.999s-96 245.166 -96 404.499c0 120.667 18.333 226.834 55 318.501s90.334 168.834 161.001 231.501
s157.334 110.167 260.001 142.5s219 48.5 349 48.5c172.667 0 321.667 -28.5 447 -85.5s221 -141 287 -252s99 -245.5 99 -403.5zM1311 1796h-462l-176 -318zM1608 714c-2.66699 145.333 -34.499 268.999 -95.499 370.999s-149.333 179.333 -265 232s-253.167 79 -412.5 79
c-120 0 -227.333 -15 -322 -45s-174.667 -73.667 -240 -131s-114.833 -128.166 -148.5 -212.499s-51.834 -181.833 -54.501 -292.5c2.66699 -146.667 33.5 -270.667 92.5 -372s145.833 -178 260.5 -230s252 -78 412 -78s297.667 25.833 413 77.5s203.5 128.667 264.5 231
s92.833 225.833 95.5 370.5zM1102 1742l-310 -150l94 150h216zM485.998 711.999c0 253.333 113.335 380 340.002 380c144 0 238.333 -37.833 283 -113.5s69.667 -164.5 75 -266.5c-5.33301 -71.333 -14.333 -132.5 -27 -183.5s-44.834 -96.333 -96.501 -136
s-129.834 -59.5 -234.501 -59.5c-134.667 0 -225 37.833 -271 113.5s-69 164.167 -69 265.5zM551 708.999c0 -84.667 18.667 -158.501 56 -221.501s111.666 -94.5 222.999 -94.5c85.333 0 149.333 16.667 192 50s69.334 71 80.001 113s17.667 93 21 153
c-3.33301 84.667 -23.5 158.334 -60.5 221.001s-114.5 94 -232.5 94c-186 0 -279 -105 -279 -315zM1547 713.998c-2 -131.333 -30.999 -243.166 -86.999 -335.499s-136.833 -162 -242.5 -209s-231.834 -70.5 -378.501 -70.5s-272.667 23.667 -378 71
s-185 116.666 -239 207.999s-82 203.333 -84 336c2 100 18.5 188.167 49.5 264.5s76.333 140.333 136 192s133 91 220 118s185.5 40.5 295.5 40.5c146 0 272 -23.833 378 -71.5s187 -117.5 243 -209.5s85 -203.333 87 -334zM426.001 707.998
c0 -116.667 27 -219.001 81 -307.001s160.333 -132 319 -132c124 0 216.667 23.167 278 69.5s99.5 99 114.5 158s25.833 129.5 32.5 211.5c-6.66699 118.667 -36.5 221.834 -89.5 309.501s-164.833 131.5 -335.5 131.5c-266.667 0 -400 -147 -400 -441zM1010 1720l-153 -70
l47 70h106z" />
    <glyph glyph-name="ocircumflex" unicode="&#xf4;" horiz-adv-x="1677" 
d="M1668 714c0 -158 -33.0029 -292.667 -99.0029 -404s-161.5 -195 -286.5 -251s-274.167 -84 -447.5 -84s-322.166 28.167 -446.499 84.5s-218.5 139.666 -282.5 249.999s-96 245.166 -96 404.499c0 120.667 18.333 226.834 55 318.501s90.334 168.834 161.001 231.501
s157.334 110.167 260.001 142.5s219 48.5 349 48.5c172.667 0 321.667 -28.5 447 -85.5s221 -141 287 -252s99 -245.5 99 -403.5zM1114 1538l-290 300l-287 -300v-62l290 181l287 -185v66zM1608 714c-2.66699 145.333 -34.499 268.999 -95.499 370.999
s-149.333 179.333 -265 232s-253.167 79 -412.5 79c-120 0 -227.333 -15 -322 -45s-174.667 -73.667 -240 -131s-114.833 -128.166 -148.5 -212.499s-51.834 -181.833 -54.501 -292.5c2.66699 -146.667 33.5 -270.667 92.5 -372s145.833 -178 260.5 -230s252 -78 412 -78
s297.667 25.833 413 77.5s203.5 128.667 264.5 231s92.833 225.833 95.5 370.5zM633.998 1576l190 193l196 -183l-196 127zM485.998 711.999c0 253.333 113.335 380 340.002 380c144 0 238.333 -37.833 283 -113.5s69.667 -164.5 75 -266.5
c-5.33301 -71.333 -14.333 -132.5 -27 -183.5s-44.834 -96.333 -96.501 -136s-129.834 -59.5 -234.501 -59.5c-134.667 0 -225 37.833 -271 113.5s-69 164.167 -69 265.5zM551 708.999c0 -84.667 18.667 -158.501 56 -221.501s111.666 -94.5 222.999 -94.5
c85.333 0 149.333 16.667 192 50s69.334 71 80.001 113s17.667 93 21 153c-3.33301 84.667 -23.5 158.334 -60.5 221.001s-114.5 94 -232.5 94c-186 0 -279 -105 -279 -315zM1547 713.998c-2 -131.333 -30.999 -243.166 -86.999 -335.499s-136.833 -162 -242.5 -209
s-231.834 -70.5 -378.501 -70.5s-272.667 23.667 -378 71s-185 116.666 -239 207.999s-82 203.333 -84 336c2 100 18.5 188.167 49.5 264.5s76.333 140.333 136 192s133 91 220 118s185.5 40.5 295.5 40.5c146 0 272 -23.833 378 -71.5s187 -117.5 243 -209.5
s85 -203.333 87 -334zM426.001 707.998c0 -116.667 27 -219.001 81 -307.001s160.333 -132 319 -132c124 0 216.667 23.167 278 69.5s99.5 99 114.5 158s25.833 129.5 32.5 211.5c-6.66699 118.667 -36.5 221.834 -89.5 309.501s-164.833 131.5 -335.5 131.5
c-266.667 0 -400 -147 -400 -441z" />
    <glyph glyph-name="otilde" unicode="&#xf5;" horiz-adv-x="1677" 
d="M1668 714c0 -158 -33.0029 -292.667 -99.0029 -404s-161.5 -195 -286.5 -251s-274.167 -84 -447.5 -84s-322.166 28.167 -446.499 84.5s-218.5 139.666 -282.5 249.999s-96 245.166 -96 404.499c0 120.667 18.333 226.834 55 318.501s90.334 168.834 161.001 231.501
s157.334 110.167 260.001 142.5s219 48.5 349 48.5c172.667 0 321.667 -28.5 447 -85.5s221 -141 287 -252s99 -245.5 99 -403.5zM1608 714c-2.66699 145.333 -34.499 268.999 -95.499 370.999s-149.333 179.333 -265 232s-253.167 79 -412.5 79
c-120 0 -227.333 -15 -322 -45s-174.667 -73.667 -240 -131s-114.833 -128.166 -148.5 -212.499s-51.834 -181.833 -54.501 -292.5c2.66699 -146.667 33.5 -270.667 92.5 -372s145.833 -178 260.5 -230s252 -78 412 -78s297.667 25.833 413 77.5s203.5 128.667 264.5 231
s92.833 225.833 95.5 370.5zM1120 1668c-98.667 -93.333 -206.333 -76.334 -323 50.999s-224 101 -322 -79l60 -47c56.667 111.333 141 106.333 253 -15s248 -104.666 408 50.001zM591.999 1720c68 38.667 128.667 29.666 182 -27.001s97 -94 131 -112s91 -13 171 15
c-76 -77.333 -146 -82 -210 -14s-115 107.333 -153 118s-78.333 17.334 -121 20.001zM485.999 711.997c0 253.333 113.335 380 340.002 380c144 0 238.333 -37.833 283 -113.5s69.667 -164.5 75 -266.5c-5.33301 -71.333 -14.333 -132.5 -27 -183.5
s-44.834 -96.333 -96.501 -136s-129.834 -59.5 -234.501 -59.5c-134.667 0 -225 37.833 -271 113.5s-69 164.167 -69 265.5zM551.001 708.997c0 -84.667 18.667 -158.501 56 -221.501s111.666 -94.5 222.999 -94.5c85.333 0 149.333 16.667 192 50s69.334 71 80.001 113
s17.667 93 21 153c-3.33301 84.667 -23.5 158.334 -60.5 221.001s-114.5 94 -232.5 94c-186 0 -279 -105 -279 -315zM1547 713.996c-2 -131.333 -30.999 -243.166 -86.999 -335.499s-136.833 -162 -242.5 -209s-231.834 -70.5 -378.501 -70.5s-272.667 23.667 -378 71
s-185 116.666 -239 207.999s-82 203.333 -84 336c2 100 18.5 188.167 49.5 264.5s76.333 140.333 136 192s133 91 220 118s185.5 40.5 295.5 40.5c146 0 272 -23.833 378 -71.5s187 -117.5 243 -209.5s85 -203.333 87 -334zM426.002 707.996
c0 -116.667 27 -219.001 81 -307.001s160.333 -132 319 -132c124 0 216.667 23.167 278 69.5s99.5 99 114.5 158s25.833 129.5 32.5 211.5c-6.66699 118.667 -36.5 221.834 -89.5 309.501s-164.833 131.5 -335.5 131.5c-266.667 0 -400 -147 -400 -441z" />
    <glyph glyph-name="odieresis" unicode="&#xf6;" horiz-adv-x="1677" 
d="M1668 714c0 -158 -33.0029 -292.667 -99.0029 -404s-161.5 -195 -286.5 -251s-274.167 -84 -447.5 -84s-322.166 28.167 -446.499 84.5s-218.5 139.666 -282.5 249.999s-96 245.166 -96 404.499c0 120.667 18.333 226.834 55 318.501s90.334 168.834 161.001 231.501
s157.334 110.167 260.001 142.5s219 48.5 349 48.5c172.667 0 321.667 -28.5 447 -85.5s221 -141 287 -252s99 -245.5 99 -403.5zM1123 1764c34 0 61.8311 -11.167 83.498 -33.5s32.5 -50.166 32.5 -83.499c-3.33301 -40.667 -16.166 -71.334 -38.499 -92.001
s-50.166 -31 -83.499 -31c-32 0 -59 11 -81 33s-33 49.667 -33 83c0 37.333 11 67.333 33 90s51 34 87 34zM562.995 1764c34 0 61.8311 -11.167 83.498 -33.5s32.5 -50.166 32.5 -83.499c-3.33301 -40.667 -16.166 -71.334 -38.499 -92.001s-50.166 -31 -83.499 -31
c-32 0 -59 11 -81 33s-33 49.667 -33 83c0 37.333 11 67.333 33 90s51 34 87 34zM1607.99 714c-2.66699 145.333 -34.499 268.999 -95.499 370.999s-149.333 179.333 -265 232s-253.167 79 -412.5 79c-120 0 -227.333 -15 -322 -45s-174.667 -73.667 -240 -131
s-114.833 -128.166 -148.5 -212.499s-51.834 -181.833 -54.501 -292.5c2.66699 -146.667 33.5 -270.667 92.5 -372s145.833 -178 260.5 -230s252 -78 412 -78s297.667 25.833 413 77.5s203.5 128.667 264.5 231s92.833 225.833 95.5 370.5zM1122.99 1706
c-20.667 0 -37.168 -6.16895 -49.501 -18.502s-18.5 -29.166 -18.5 -50.499c0 -18.667 6.16699 -34.167 18.5 -46.5s27.5 -18.5 45.5 -18.5c19.333 0 35.333 5.83301 48 17.5s20 28.834 22 51.501c0 18.667 -6.16699 34.167 -18.5 46.5s-28.166 18.5 -47.499 18.5z
M562.993 1710c-20.667 0 -37.168 -6.16895 -49.501 -18.502s-18.5 -29.166 -18.5 -50.499c0 -18.667 6.16699 -34.167 18.5 -46.5s27.5 -18.5 45.5 -18.5c19.333 0 35.333 5.83301 48 17.5s20 28.834 22 51.501c0 18.667 -6.16699 34.167 -18.5 46.5
s-28.166 18.5 -47.499 18.5zM485.992 711.995c0 253.333 113.335 380 340.002 380c144 0 238.333 -37.833 283 -113.5s69.667 -164.5 75 -266.5c-5.33301 -71.333 -14.333 -132.5 -27 -183.5s-44.834 -96.333 -96.501 -136s-129.834 -59.5 -234.501 -59.5
c-134.667 0 -225 37.833 -271 113.5s-69 164.167 -69 265.5zM550.994 708.995c0 -84.667 18.667 -158.501 56 -221.501s111.666 -94.5 222.999 -94.5c85.333 0 149.333 16.667 192 50s69.334 71 80.001 113s17.667 93 21 153c-3.33301 84.667 -23.5 158.334 -60.5 221.001
s-114.5 94 -232.5 94c-186 0 -279 -105 -279 -315zM1546.99 713.994c-2 -131.333 -30.999 -243.166 -86.999 -335.499s-136.833 -162 -242.5 -209s-231.834 -70.5 -378.501 -70.5s-272.667 23.667 -378 71s-185 116.666 -239 207.999s-82 203.333 -84 336
c2 100 18.5 188.167 49.5 264.5s76.333 140.333 136 192s133 91 220 118s185.5 40.5 295.5 40.5c146 0 272 -23.833 378 -71.5s187 -117.5 243 -209.5s85 -203.333 87 -334zM425.995 707.994c0 -116.667 27 -219.001 81 -307.001s160.333 -132 319 -132
c124 0 216.667 23.167 278 69.5s99.5 99 114.5 158s25.833 129.5 32.5 211.5c-6.66699 118.667 -36.5 221.834 -89.5 309.501s-164.833 131.5 -335.5 131.5c-266.667 0 -400 -147 -400 -441zM1122 1675.99c11.333 0 20.665 -3.5 27.998 -10.5s11 -15.833 11 -26.5
c-1.33301 -13.333 -5.66602 -23.5 -12.999 -30.5s-16.666 -10.5 -27.999 -10.5c-10.667 0 -19.5 3.66699 -26.5 11s-10.5 16.333 -10.5 27c0 12.667 3.5 22.5 10.5 29.5s16.5 10.5 28.5 10.5zM563.994 1679.99c11.333 0 20.665 -3.5 27.998 -10.5s11 -15.833 11 -26.5
c-1.33301 -13.333 -5.66602 -23.5 -12.999 -30.5s-16.666 -10.5 -27.999 -10.5c-10.667 0 -19.5 3.66699 -26.5 11s-10.5 16.333 -10.5 27c0 12.667 3.5 22.5 10.5 29.5s16.5 10.5 28.5 10.5z" />
    <glyph glyph-name="oslash" unicode="&#xf8;" horiz-adv-x="1677" 
d="M566 424c38.667 -54.667 125.333 -84.666 260 -89.999c104 0 182 19.667 234 59s84.333 84.666 97 135.999s21.667 112.333 27 183c-5.33301 93.333 -15.333 145.333 -30 156zM1446 1274l109.997 87.999l112 -150l-88 -78c58.667 -122 88 -262 88 -420
s-33 -292.667 -99 -404s-161.5 -195 -286.5 -251s-274.167 -84 -447.5 -84s-358.333 49.667 -555 149l-168 -132l-110 148l134 108c-84 151.333 -126 306.666 -126 465.999c0 120.667 18.333 226.834 55 318.501s90.334 168.834 161.001 231.501
s157.334 110.167 260.001 142.5s219 48.5 349 48.5c172.667 0 309.334 -23.833 410.001 -71.5s167.667 -84.167 201 -109.5zM1094 980c-33.333 74.667 -122.667 112 -268 112c-226.667 0 -340 -126.667 -340 -380c2.66699 -102.667 16.667 -158.667 42 -168zM1606 714
c-2.66699 145.333 -39.333 284.665 -110 417.998l102 86l-52 72l-104 -86c-15.333 22.667 -80.833 60.334 -196.5 113.001s-253.167 79 -412.5 79c-120 0 -227.333 -15 -322 -45s-174.667 -73.667 -240 -131s-114.833 -128.166 -148.5 -212.499
s-51.834 -181.833 -54.501 -292.5c2.66699 -146.667 47.334 -307 134.001 -481l-122 -98l44 -62l154 122c210 -107.333 395 -161 555 -161s297.667 25.833 413 77.5s203.5 128.667 264.5 231s92.833 225.833 95.5 370.5zM557.996 641.999l-6 68
c0 209.333 92.667 314 278 314c116 0 175.333 -14 178 -42zM1114 765.999l6.00098 -56c-1.33301 -61.333 -7.33301 -113 -18 -155s-37.334 -79.333 -80.001 -112s-106.667 -49 -192 -49c-96 0 -146.667 12.667 -152 38zM1547 713.999
c-2 -131.333 -30.999 -243.166 -86.999 -335.499s-136.833 -162 -242.5 -209s-231.834 -70.5 -378.501 -70.5s-272.667 23.667 -378 71s-185 116.666 -239 207.999s-82 203.333 -84 336c2 100 18.5 188.167 49.5 264.5s76.333 140.333 136 192s133 91 220 118
s185.5 40.5 295.5 40.5c146 0 272 -23.833 378 -71.5s187 -117.5 243 -209.5s85 -203.333 87 -334zM425.998 707.999c0 -116.667 27 -219.001 81 -307.001s160.333 -132 319 -132c124 0 216.667 23.167 278 69.5s99.5 99 114.5 158s25.833 129.5 32.5 211.5
c-6.66699 118.667 -36.5 221.834 -89.5 309.501s-164.833 131.5 -335.5 131.5c-266.667 0 -400 -147 -400 -441zM119.998 131.998l14 -19l183 147l-10 11l-6 5zM485.998 443.998l694 532l14 -26l-690 -536zM1404 1128l130 108l14 -20l-128 -106z" />
    <glyph glyph-name="ugrave" unicode="&#xf9;" horiz-adv-x="1494" 
d="M530 1444l0.00292969 -853.998c-4 -97.333 14.667 -165 56 -203s106 -58.333 194 -61c70.667 1.33301 129.667 22 177 62s69.666 107.333 66.999 202v854h470v-847c-2 -120 -21.833 -215.833 -59.5 -287.5s-85.334 -131.5 -143.001 -179.5s-130 -85.333 -217 -112
s-183.833 -41.334 -290.5 -44.001c-88.667 2 -178.834 14.167 -270.501 36.5s-171.667 57.5 -240 105.5s-121 109.667 -158 185s-55.5 173.666 -55.5 294.999v848h470zM120.003 1384l-0.000976562 -788c6.66699 -118.667 25 -207.667 55 -267s75.333 -111.666 136 -156.999
s133.667 -79 219 -101s170 -34.333 254 -37c100 4 191.333 19 274 45s149 60.667 199 104s91.333 94.666 124 153.999s50.334 146 53.001 260v787h-350v-794c4 -101.333 -18 -178.333 -66 -231s-127.333 -83.667 -238 -93c-116 4 -197.333 32 -244 84s-68.667 132 -66 240
v794h-350zM279.002 1796h462l176 -318zM476.002 1742l320 -150l-98 150h-222zM177.002 1327l240 -0.00292969v-735c-6 -118.667 18.333 -211 73 -277s150.667 -99.667 288 -101c130.667 8 223.667 44.333 279 109s82.333 154.334 81 269.001v732h246v-726
c-7.33301 -108 -24.5 -187.167 -51.5 -237.5s-62 -93.833 -105 -130.5s-104 -68.5 -183 -95.5s-165.167 -42.5 -258.5 -46.5c-78.667 2.66699 -158.167 14.334 -238.5 35.001s-147.5 52.334 -201.5 95.001s-95.167 86.667 -123.5 132s-43.5 127.333 -45.5 246v731z
M578.002 1720l153 -70l-47 70h-106z" />
    <glyph glyph-name="uacute" unicode="&#xfa;" horiz-adv-x="1494" 
d="M530 1444l0.00292969 -853.998c-4 -97.333 14.667 -165 56 -203s106 -58.333 194 -61c70.667 1.33301 129.667 22 177 62s69.666 107.333 66.999 202v854h470v-847c-2 -120 -21.833 -215.833 -59.5 -287.5s-85.334 -131.5 -143.001 -179.5s-130 -85.333 -217 -112
s-183.833 -41.334 -290.5 -44.001c-88.667 2 -178.834 14.167 -270.501 36.5s-171.667 57.5 -240 105.5s-121 109.667 -158 185s-55.5 173.666 -55.5 294.999v848h470zM120.003 1384l-0.000976562 -788c6.66699 -118.667 25 -207.667 55 -267s75.333 -111.666 136 -156.999
s133.667 -79 219 -101s170 -34.333 254 -37c100 4 191.333 19 274 45s149 60.667 199 104s91.333 94.666 124 153.999s50.334 146 53.001 260v787h-350v-794c4 -101.333 -18 -178.333 -66 -231s-127.333 -83.667 -238 -93c-116 4 -197.333 32 -244 84s-68.667 132 -66 240
v794h-350zM1347 1796h-462l-176 -318zM1146 1742l-310 -150l94 150h216zM177.002 1327l240 -0.00292969v-735c-6 -118.667 18.333 -211 73 -277s150.667 -99.667 288 -101c130.667 8 223.667 44.333 279 109s82.333 154.334 81 269.001v732h246v-726
c-7.33301 -108 -24.5 -187.167 -51.5 -237.5s-62 -93.833 -105 -130.5s-104 -68.5 -183 -95.5s-165.167 -42.5 -258.5 -46.5c-78.667 2.66699 -158.167 14.334 -238.5 35.001s-147.5 52.334 -201.5 95.001s-95.167 86.667 -123.5 132s-43.5 127.333 -45.5 246v731z
M1058 1722l-153 -70l47 70h106z" />
    <glyph glyph-name="ucircumflex" unicode="&#xfb;" horiz-adv-x="1494" 
d="M530 1444l0.00292969 -853.998c-4 -97.333 14.667 -165 56 -203s106 -58.333 194 -61c70.667 1.33301 129.667 22 177 62s69.666 107.333 66.999 202v854h470v-847c-2 -120 -21.833 -215.833 -59.5 -287.5s-85.334 -131.5 -143.001 -179.5s-130 -85.333 -217 -112
s-183.833 -41.334 -290.5 -44.001c-88.667 2 -178.834 14.167 -270.501 36.5s-171.667 57.5 -240 105.5s-121 109.667 -158 185s-55.5 173.666 -55.5 294.999v848h470zM120.003 1384l-0.000976562 -788c6.66699 -118.667 25 -207.667 55 -267s75.333 -111.666 136 -156.999
s133.667 -79 219 -101s170 -34.333 254 -37c100 4 191.333 19 274 45s149 60.667 199 104s91.333 94.666 124 153.999s50.334 146 53.001 260v787h-350v-794c4 -101.333 -18 -178.333 -66 -231s-127.333 -83.667 -238 -93c-116 4 -197.333 32 -244 84s-68.667 132 -66 240
v794h-350zM1066 1538l-290 300l-287 -300v-62l290 181l287 -185v66zM586.002 1576l190 193l196 -183l-196 127zM177.002 1327l240 -0.00292969v-735c-6 -118.667 18.333 -211 73 -277s150.667 -99.667 288 -101c130.667 8 223.667 44.333 279 109s82.333 154.334 81 269.001
v732h246v-726c-7.33301 -108 -24.5 -187.167 -51.5 -237.5s-62 -93.833 -105 -130.5s-104 -68.5 -183 -95.5s-165.167 -42.5 -258.5 -46.5c-78.667 2.66699 -158.167 14.334 -238.5 35.001s-147.5 52.334 -201.5 95.001s-95.167 86.667 -123.5 132s-43.5 127.333 -45.5 246
v731z" />
    <glyph glyph-name="udieresis" unicode="&#xfc;" horiz-adv-x="1494" 
d="M530 1444l0.00292969 -853.998c-4 -97.333 14.667 -165 56 -203s106 -58.333 194 -61c70.667 1.33301 129.667 22 177 62s69.666 107.333 66.999 202v854h470v-847c-2 -120 -21.833 -215.833 -59.5 -287.5s-85.334 -131.5 -143.001 -179.5s-130 -85.333 -217 -112
s-183.833 -41.334 -290.5 -44.001c-88.667 2 -178.834 14.167 -270.501 36.5s-171.667 57.5 -240 105.5s-121 109.667 -158 185s-55.5 173.666 -55.5 294.999v848h470zM120.003 1384l-0.000976562 -788c6.66699 -118.667 25 -207.667 55 -267s75.333 -111.666 136 -156.999
s133.667 -79 219 -101s170 -34.333 254 -37c100 4 191.333 19 274 45s149 60.667 199 104s91.333 94.666 124 153.999s50.334 146 53.001 260v787h-350v-794c4 -101.333 -18 -178.333 -66 -231s-127.333 -83.667 -238 -93c-116 4 -197.333 32 -244 84s-68.667 132 -66 240
v794h-350zM547.002 1764c34 0 61.8311 -11.167 83.498 -33.5s32.5 -50.166 32.5 -83.499c-3.33301 -40.667 -16.166 -71.334 -38.499 -92.001s-50.166 -31 -83.499 -31c-32 0 -59 11 -81 33s-33 49.667 -33 83c0 37.333 11 67.333 33 90s51 34 87 34zM1023 1760
c34 0 61.8311 -11.167 83.498 -33.5s32.5 -50.166 32.5 -83.499c-3.33301 -40.667 -16.166 -71.334 -38.499 -92.001s-50.166 -31 -83.499 -31c-32 0 -59 11 -81 33s-33 49.667 -33 83c0 37.333 11 67.333 33 90s51 34 87 34zM546.998 1706
c-20.667 0 -37.168 -6.16895 -49.501 -18.502s-18.5 -29.166 -18.5 -50.499c0 -18.667 6.16699 -34.167 18.5 -46.5s27.5 -18.5 45.5 -18.5c19.333 0 35.333 5.83301 48 17.5s20 28.834 22 51.501c0 18.667 -6.16699 34.167 -18.5 46.5s-28.166 18.5 -47.499 18.5z
M1023 1702c-20.667 0 -37.168 -6.16895 -49.501 -18.502s-18.5 -29.166 -18.5 -50.499c0 -18.667 6.16699 -34.167 18.5 -46.5s27.5 -18.5 45.5 -18.5c19.333 0 35.333 5.83301 48 17.5s20 28.834 22 51.501c0 18.667 -6.16699 34.167 -18.5 46.5s-28.166 18.5 -47.499 18.5
zM176.996 1327l240 -0.00292969v-735c-6 -118.667 18.333 -211 73 -277s150.667 -99.667 288 -101c130.667 8 223.667 44.333 279 109s82.333 154.334 81 269.001v732h246v-726c-7.33301 -108 -24.5 -187.167 -51.5 -237.5s-62 -93.833 -105 -130.5s-104 -68.5 -183 -95.5
s-165.167 -42.5 -258.5 -46.5c-78.667 2.66699 -158.167 14.334 -238.5 35.001s-147.5 52.334 -201.5 95.001s-95.167 86.667 -123.5 132s-43.5 127.333 -45.5 246v731zM547.996 1678c11.333 0 20.665 -3.5 27.998 -10.5s11 -15.833 11 -26.5
c-1.33301 -13.333 -5.66602 -23.5 -12.999 -30.5s-16.666 -10.5 -27.999 -10.5c-10.667 0 -19.5 3.66699 -26.5 11s-10.5 16.333 -10.5 27c0 12.667 3.5 22.5 10.5 29.5s16.5 10.5 28.5 10.5zM1024 1672c11.333 0 20.665 -3.5 27.998 -10.5s11 -15.833 11 -26.5
c-1.33301 -13.333 -5.66602 -23.5 -12.999 -30.5s-16.666 -10.5 -27.999 -10.5c-10.667 0 -19.5 3.66699 -26.5 11s-10.5 16.333 -10.5 27c0 12.667 3.5 22.5 10.5 29.5s16.5 10.5 28.5 10.5z" />
    <glyph glyph-name="yacute" unicode="&#xfd;" horiz-adv-x="1614" 
d="M1732 1444l-630 -914v-530h-472v530l-630 914h570l294 -446l298 446h570zM116 1384l576 -836v-488h352v488l578 836h-420l-303 -446h-65l-296 446h-422zM1431 1796h-462l-176 -318zM1222 1742l-310 -150l94 150h216zM226 1330h276l304 -442h120l302 444h286l-528 -760
v-448h-226v444zM1132 1722l-153 -70l47 70h106z" />
    <glyph glyph-name="thorn" unicode="&#xfe;" horiz-adv-x="1394" 
d="M530 272l-0.00292969 -271.999h-470v1444h470v-253c266.667 0.666992 436.334 -8.33301 509.001 -27s134 -45 184 -79s90.5 -79.167 121.5 -135.5s46.5 -129.833 46.5 -220.5c-5.33301 -84 -23 -155.333 -53 -214s-69.667 -105 -119 -139s-109.666 -60.333 -180.999 -79
s-160.666 -27.334 -267.999 -26.001zM119.997 1384v-1324h350v272h302c106.667 -1.33301 193 7 259 25s119.333 41.667 160 71s72.667 67.666 96 114.999s38.333 109.666 45 186.999c-6.66699 81.333 -21.667 145.666 -45 192.999s-56 85.666 -98 114.999
s-97.667 53 -167 71s-253.333 24.333 -552 19v256h-350zM744.997 474.005c56 0 110 7.83105 162 23.498s94.167 38.334 126.5 68.001s51.5 80.5 57.5 152.5c4 66.667 -13.833 117.834 -53.5 153.501s-82 59.667 -127 72s-101.833 18.5 -170.5 18.5h-328v-488h333z
M517.997 849.003v-258.999l223 -1c50.667 0 91.667 4.83301 123 14.5s56.833 21.834 76.5 36.501s32.5 41 38.5 79c-2 35.333 -13.167 61.166 -33.5 77.499s-46.833 29.166 -79.5 38.499s-75 14 -127 14h-221zM179.997 1324l233 0.000976562l-1 -248h56
c290.667 0 468.667 -8 534 -24s115.333 -35.333 150 -58s63.5 -53.334 86.5 -92.001s36.5 -96.667 40.5 -174c-4.66699 -72 -16.167 -127 -34.5 -165s-44.333 -70 -78 -96s-81.667 -47 -144 -63s-145.833 -24 -250.5 -24h-304h-52v-260h-236v1204zM744.997 522.005
l-280.001 -0.000976562v388h276c58 0 106 -5 144 -15s73.5 -29.333 106.5 -58s48.167 -69 45.5 -121c-5.33301 -58 -21.666 -98.667 -48.999 -122s-62.833 -41.166 -106.5 -53.499s-89.167 -18.5 -136.5 -18.5z" />
    <glyph glyph-name="ydieresis" unicode="&#xff;" horiz-adv-x="1614" 
d="M1732 1444l-630 -914v-530h-472v530l-630 914h570l294 -446l298 446h570zM116 1384l576 -836v-488h352v488l578 836h-420l-303 -446h-65l-296 446h-422zM651 1764c34 0 61.8311 -11.167 83.498 -33.5s32.5 -50.166 32.5 -83.499
c-3.33301 -40.667 -16.166 -71.334 -38.499 -92.001s-50.166 -31 -83.499 -31c-32 0 -59 11 -81 33s-33 49.667 -33 83c0 37.333 11 67.333 33 90s51 34 87 34zM650.998 1706c-20.667 0 -37.168 -6.16895 -49.501 -18.502s-18.5 -29.166 -18.5 -50.499
c0 -18.667 6.16699 -34.167 18.5 -46.5s27.5 -18.5 45.5 -18.5c19.333 0 35.333 5.83301 48 17.5s20 28.834 22 51.501c0 18.667 -6.16699 34.167 -18.5 46.5s-28.166 18.5 -47.499 18.5zM1115 1768c34 0 61.8311 -11.167 83.498 -33.5s32.5 -50.166 32.5 -83.499
c-3.33301 -40.667 -16.166 -71.334 -38.499 -92.001s-50.166 -31 -83.499 -31c-32 0 -59 11 -81 33s-33 49.667 -33 83c0 37.333 11 67.333 33 90s51 34 87 34zM1115 1710c-20.667 0 -37.168 -6.16895 -49.501 -18.502s-18.5 -29.166 -18.5 -50.499
c0 -18.667 6.16699 -34.167 18.5 -46.5s27.5 -18.5 45.5 -18.5c19.333 0 35.333 5.83301 48 17.5s20 28.834 22 51.501c0 18.667 -6.16699 34.167 -18.5 46.5s-28.166 18.5 -47.499 18.5zM225.994 1330h276l304 -442h120l302 444h286l-528 -760v-448h-226v444zM1115.99 1682
c11.333 0 20.665 -3.5 27.998 -10.5s11 -15.833 11 -26.5c-1.33301 -13.333 -5.66602 -23.5 -12.999 -30.5s-16.666 -10.5 -27.999 -10.5c-10.667 0 -19.5 3.66699 -26.5 11s-10.5 16.333 -10.5 27c0 12.667 3.5 22.5 10.5 29.5s16.5 10.5 28.5 10.5zM651.993 1678
c11.333 0 20.665 -3.5 27.998 -10.5s11 -15.833 11 -26.5c-1.33301 -13.333 -5.66602 -23.5 -12.999 -30.5s-16.666 -10.5 -27.999 -10.5c-10.667 0 -19.5 3.66699 -26.5 11s-10.5 16.333 -10.5 27c0 12.667 3.5 22.5 10.5 29.5s16.5 10.5 28.5 10.5z" />
    <glyph glyph-name="OE" unicode="&#x152;" horiz-adv-x="2062" 
d="M832 1384c-122.667 -1.33301 -230 -16.001 -322 -44.001s-168 -71.667 -228 -131s-109.5 -127.833 -148.5 -205.5s-55.5 -173.5 -49.5 -287.5c0 -149.333 27.333 -268.333 82 -357s139.667 -161.334 255 -218.001s227 -83.667 335 -81h1306v-60h-1306
c-117.333 -5.33301 -237.333 23.334 -360 86.001s-216 144 -280 244s-94.667 228.667 -92 386c-5.33301 120 12 223.333 52 310s94.667 161.334 164 224.001s153.333 110 252 142s212 49.333 340 52h1168v-430h-768v-166h496v-252h-496v-166h830v-60h-890v284h496v134h-496
v286h768v310h-1108zM486 711.999c0 253.333 134 381.333 402 384v-766c-176 2 -287 40.833 -333 116.5s-69 164.167 -69 265.5zM551 708.999c0 -84.667 18.668 -158.5 56.001 -221.5s111.666 -94.5 222.999 -94.5v631c-186 0 -279 -105 -279 -315zM1048 119.999
l-130.001 -0.00195312c-193.333 -1.33301 -344.333 22.334 -453 71.001s-188 112.334 -238 191.001s-77.667 189.334 -83 332.001c-2 100 12.5 185.667 43.5 257s74.167 135.666 129.5 192.999s128.333 98 219 122s193.334 36.667 308.001 38h1034v-190h-758v-386h484v-54
h-486v-384h944v-190h-1014zM426 707.997c0 -116.667 27 -219 81 -307s160.333 -132 319 -132l112 1v880h-82c-286.667 -0.666992 -430 -148 -430 -442z" />
    <glyph glyph-name="oe" unicode="&#x153;" horiz-adv-x="2062" 
d="M832 1384c-122.667 -1.33301 -230 -15.999 -322 -43.999s-168 -71.667 -228 -131s-109.5 -127.833 -148.5 -205.5s-55.5 -173.5 -49.5 -287.5c0 -149.333 27.333 -268.333 82 -357s139.667 -161.334 255 -218.001s227 -83.667 335 -81h1246v310h-830v284h496v134h-496
v286h768v310h-1108zM486 712.001c0 253.333 134 381.333 402 384v-766c-176 2 -287 40.833 -333 116.5s-69 164.167 -69 265.5zM551 709.001c0 -84.667 18.668 -158.5 56.001 -221.5s111.666 -94.5 222.999 -94.5v631c-186 0 -279 -105 -279 -315zM2062 430.001v-430.002
h-1306c-117.333 -5.33301 -237.333 23.334 -360 86.001s-216 144 -280 244s-94.667 228.667 -92 386c-5.33301 120 12 223.333 52 310s94.667 161.334 164 224.001s153.333 110 252 142s212 49.333 340 52h1168v-430h-768v-166h496v-252h-496v-166h830zM1048 119.999
l-130.001 -0.00195312c-193.333 -1.33301 -344.333 22.334 -453 71.001s-188 112.334 -238 191.001s-77.667 189.334 -83 332.001c-2 100 12.5 185.667 43.5 257s74.167 135.666 129.5 192.999s128.333 98 219 122s193.334 36.667 308.001 38h1034v-190h-758v-386h484v-54
h-486v-384h819v-190h-889zM426 707.997c0 -116.667 27 -219 81 -307s160.333 -132 319 -132l112 1v880h-82c-286.667 -0.666992 -430 -148 -430 -442z" />
    <glyph glyph-name="Scaron" unicode="&#x160;" horiz-adv-x="1135" 
d="M1135 1444v-60.001h-727c-138.667 -2.66699 -226 -76.667 -262 -222s59.333 -323.333 286 -534c168 -165.333 125.333 -251.333 -128 -258h-244v60h244c188.667 -5.33301 212.667 47.334 72 158.001c-232 213.333 -330.667 409.333 -296 588s144 268 328 268h727z
M1135 1014h-291.001c-171.333 5.33301 -196.666 -42 -75.999 -142c216 -189.333 322 -373.333 318 -552s-110 -285.334 -318 -320.001h-708v60h708c176 37.333 261.333 133.333 256 288s-122.666 329.334 -351.999 524.001c-106.667 138.667 -49.334 206 171.999 202h291
v-60zM921.999 1824l-290 -366l-287 366v76l290 -221l287 225v-80zM435.999 1776l196 -243l192 231l-192 -166zM59.999 309.999l244.999 0.000976562c312.667 20 373.667 138.667 183 356c-212 213.333 -304.667 376.666 -278 489.999s92.667 169.333 198 168h727v-190h-291
c-278.667 8 -364.667 -78.667 -258 -260c242.667 -202.667 370.334 -370 383.001 -502s-53.333 -216 -198 -252h-711v190z" />
    <glyph glyph-name="scaron" unicode="&#x161;" horiz-adv-x="1135" 
d="M1135 1444l-0.000976562 -430h-291c-171.333 5.33301 -196.666 -42 -75.999 -142c216 -189.333 322 -373.333 318 -552s-110 -285.334 -318 -320.001h-768v430h304c188.667 -5.33301 212.667 47.334 72 158.001c-232 213.333 -330.667 409.333 -296 588s144 268 328 268
h727zM921.999 1824l-290 -366l-287 366v76l290 -221l287 225v-80zM59.999 370v-310.001h708c176 37.333 261.333 133.333 256 288s-122.666 329.334 -351.999 524.001c-106.667 138.667 -49.334 206 171.999 202h231v310h-667c-138.667 -2.66699 -226 -76.667 -262 -222
s59.333 -323.333 286 -534c168 -165.333 125.333 -251.333 -128 -258h-244zM435.999 1776l196 -243l192 231l-192 -166zM127.999 313.999l175.998 0.00292969c313.333 17.333 374.666 134.666 183.999 351.999c-212 213.333 -304.667 376.666 -278 489.999
s93.334 168.666 200.001 165.999h604v-188h-170c-278.667 8 -364.667 -78.667 -258 -260c242.667 -202.667 370.334 -370 383.001 -502s-53.666 -215.333 -198.999 -250h-642v192z" />
    <glyph glyph-name="Ydieresis" unicode="&#x178;" horiz-adv-x="1264" 
d="M60 1384v60h306l294 -446l298 446h306v-60h-266l-303 -446h-65l-296 446h-274zM1264 1074v-60h-26l-340 -484v-530h-472v530l-340 484h-26v60h60l368 -526v-488h352v488l364 526h60zM435 1760c34 0 61.8311 -11.167 83.498 -33.5s32.5 -50.166 32.5 -83.499
c-3.33301 -40.667 -16.166 -71.334 -38.499 -92.001s-50.166 -31 -83.499 -31c-32 0 -59 11 -81 33s-33 49.667 -33 83c0 37.333 11 67.333 33 90s51 34 87 34zM890.998 1764c34 0 61.8311 -11.167 83.498 -33.5s32.5 -50.166 32.5 -83.499
c-3.33301 -40.667 -16.166 -71.334 -38.499 -92.001s-50.166 -31 -83.499 -31c-32 0 -59 11 -81 33s-33 49.667 -33 83c0 37.333 11 67.333 33 90s51 34 87 34zM891.996 1678c11.333 0 20.665 -3.5 27.998 -10.5s11 -15.833 11 -26.5
c-1.33301 -13.333 -5.66602 -23.5 -12.999 -30.5s-16.666 -10.5 -27.999 -10.5c-10.667 0 -19.5 3.66699 -26.5 11s-10.5 16.333 -10.5 27c0 12.667 3.5 22.5 10.5 29.5s16.5 10.5 28.5 10.5zM890.995 1706c-20.667 0 -37.168 -6.16895 -49.501 -18.502
s-18.5 -29.166 -18.5 -50.499c0 -18.667 6.16699 -34.167 18.5 -46.5s27.5 -18.5 45.5 -18.5c19.333 0 35.333 5.83301 48 17.5s20 28.834 22 51.501c0 18.667 -6.16699 34.167 -18.5 46.5s-28.166 18.5 -47.499 18.5zM59.9941 1324h242l304 -444h120l302 444h236v-190h-82
l-396 -570v-448h-226v444l-401 574h-99v190zM434.994 1702c-20.667 0 -37.168 -6.16895 -49.501 -18.502s-18.5 -29.166 -18.5 -50.499c0 -18.667 6.16699 -34.167 18.5 -46.5s27.5 -18.5 45.5 -18.5c19.333 0 35.333 5.83301 48 17.5s20 28.834 22 51.501
c0 18.667 -6.16699 34.167 -18.5 46.5s-28.166 18.5 -47.499 18.5zM435.993 1674c11.333 0 20.665 -3.5 27.998 -10.5s11 -15.833 11 -26.5c-1.33301 -13.333 -5.66602 -23.5 -12.999 -30.5s-16.666 -10.5 -27.999 -10.5c-10.667 0 -19.5 3.66699 -26.5 11
s-10.5 16.333 -10.5 27c0 12.667 3.5 22.5 10.5 29.5s16.5 10.5 28.5 10.5z" />
    <glyph glyph-name="Zcaron" unicode="&#x17d;" horiz-adv-x="1380" 
d="M60 1384v60h1320v-430l-699 -584h699v-60h-759v85l699 578v351h-1260zM1380 0h-1320v430l699 584h-699v60h755v-85l-695 -586v-343h1260v-60zM942 1824l-290 -366l-287 366v76l290 -221l287 225v-80zM456 1776l196 -243l192 231l-192 -166zM60 1324h1202v-266l-696 -566
v-182h814v-190h-1204v262l690 584v168h-805z" />
    <glyph glyph-name="zcaron" unicode="&#x17e;" horiz-adv-x="1380" 
d="M60 1444h1320v-430l-699 -584h699v-430h-1320v430l699 584h-699v430zM942 1824l-290 -366l-287 366v76l290 -221l287 225v-80zM456 1776l196 -243l192 231l-192 -166zM120 1384v-310h695v-85l-695 -586v-343h1200v310h-699v85l699 578v351h-1200zM184 1320h1078v-262
l-696 -566v-174h686v-198h-1076v262l690 584v164h-682v190z" />
    <glyph glyph-name="quoteleft" unicode="&#x2018;" horiz-adv-x="647" 
d="M370 1108l-92 98v118h92v-216zM477 814l-307 314v316h307v-630zM417 971v413h-187v-222z" />
    <glyph glyph-name="quoteright" unicode="&#x2019;" horiz-adv-x="647" 
d="M229 971v413h187v-222zM169 814l307 314v316h-307v-630zM276 1096l92 96l1 132h-92z" />
    <glyph glyph-name="quotedblleft" unicode="&#x201c;" horiz-adv-x="1139" 
d="M504 814l-307 314v316h307v-630zM942 814l-307 314v316h307v-630zM882 971v413h-187v-222zM444 971v413h-187v-222zM396 1100l-92 94v132h92v-226zM834 1098l-92 100v136h92v-236z" />
    <glyph glyph-name="quotedblright" unicode="&#x201d;" horiz-adv-x="1139" 
d="M634 814l307 314v316h-307v-630zM196 814l307 314v316h-307v-630zM256 971v413h187v-222zM694 971v413h187v-222zM300 1102l92 96l1 132h-92zM740 1102l92 96l1 132h-92z" />
    <glyph glyph-name=".null" 
 />
    <glyph glyph-name="nonmarkingreturn" 
 />
    <glyph glyph-name="glyph98" horiz-adv-x="2059" 
d="M181 992v-23l117 5c7.33301 12 -10.334 27.667 -53.001 47c-27.333 0 -48.666 -9.66699 -63.999 -29zM286 1266v-6h12v6h-12zM298 1260v-11l17 -12l12 12l-6 17zM286 776h47l23 -23c0 -50.667 -9.66699 -76 -29 -76c-42.667 -8 -68 7.66699 -76 47
c4 26.667 15.667 44 35 52zM181 1079c54.667 12 109 -1.33203 163 -39.999l41 -94l-6 -23l-181 -18h-75l-6 12c-12 93.333 9.33301 147.666 64 162.999zM373 1529l53 -47h6l-12 41l-17 12zM239 1324l187 -5l12 -6c-4 -16 -0.333008 -25.667 11 -29v-30h-58l-18 -52l30 -53
l-35 -17c-20 -4 -31.667 0 -35 12l-170 163zM455 1465v-6h6v6h-6zM379 1605l59 -18l40 -64l88 -12l12 -29v-41l-117 18v-12l70 -41l-23 -47l-41 12l-76 64c-23.333 8 -56.333 33.333 -99 76c27.333 54.667 56.333 86 87 94zM461 595.001
c50.667 15.333 93.333 -0.333984 128 -47.001l-41 -52h-23c-8 15.333 -25.333 23 -52 23c-20 -15.333 -33.667 -32.666 -41 -51.999c4 -42.667 9.66699 -64 17 -64l-46 -41c-23.333 -4 -37 25 -41 87c23.333 89.333 56.333 138 99 146zM612.999 309.001v-28.999
c11.333 0 15 -5.66699 11 -17c35.333 0 64.666 29 87.999 87c4 23.333 -2 41 -18 53c-11.333 3.33301 -30.666 -10.334 -57.999 -41.001zM670.999 461.002c19.333 4 46.667 -1.99902 82 -17.999l23 -29v-81c-27.333 -74 -70 -119 -128 -135c-58.667 8 -92 31.333 -100 70
c0 97.333 41 161.666 123 192.999zM554 1762l35 -6.00098l24 -46l17 -12l-6 105l65 -23l5 -94c50.667 -15.333 80 -32.666 88 -51.999l-6 -64l-87 46h-12l6 -23h11l24 -53l-41 -29l-64 76l-82 134v24zM764 1214v-30l35 88l12 6v17l-23 -23zM811 1307v-12l12 6v12zM823 1319
v-6h6v6h-6zM829 1324v-5h5v5h-5zM834 1336v-6h6v6h-6zM840 1342v-6h6v6h-6zM939 1254v-17h12l-6 17h-6zM951 1237v-12h12l-6 12h-6zM963 1225v-11h11l-5 11h-6zM974 1214v-6h12v6h-12zM928 1791c27.333 0 46.666 -9.66602 57.999 -28.999c12 -34.667 -1.66699 -60 -41 -76
c-38.667 4 -60 15.667 -64 35c-15.333 23.333 0.333984 46.666 47.001 69.999zM986 1208v-6h6v6h-6zM998 1202l11 -18h12l-17 18h-6zM1021 1184v-11h23l-5 11h-18zM893 403.003c27.333 -43.333 39 -78.333 35 -105l23 -18l47 99c15.333 4 23 -1.66699 23 -17
c23.333 -97.333 31 -148 23 -152l12 -23v-53l-35 -17l-23 6l-18 105l-52 -88l-47 88l-29 -100l-53 30l35 110l12 12c-4 15.333 7.66699 46.333 35 93v24zM747 1068l17 -140.001h12l23 -88l47 -93l152 -6l70 6l-105 12l-82 -6c-23.333 -4 -56.333 54.333 -99 175
c-15.333 42.667 -23 87.334 -23 134.001l5 122l-11 -17l-6 -70c8 -8 8 -17.667 0 -29zM1068 1190v-6h11v6h-11zM811 601.002l327 -6l-12 -29l-309 6l-12 17zM823 648.002h291l24 -18v-17l-333 5c4 20 10 30 18 30zM834 560.002l280.001 -6l24 -17l11 -47l12 -12l-6 -11
l-367 11c23.333 58.667 38.666 86 45.999 82zM1132 1307l17 -23l12 5l-12 18h-17zM1138 397.002h35l52 -234v-23l-46 -12c-16 12 -37.667 86 -65 222c-7.33301 31.333 0.666992 47 24 47zM1138 1855l46.001 -5l12 -12c-11.333 -23.333 -17 -52.666 -17 -87.999l29 -5h23
l18 87l52 -6l6 -11l-58 -251l-59 11c4 46.667 10 70 18 70c11.333 27.333 -0.333984 41 -35.001 41l-18 -6l-17 -87l-59 6c12 93.333 31.667 178.666 59 255.999zM1289 1103v-18l24 12v6h-24zM998.002 1564l45.999 -12l47 -47l23 -46l-5 -24c30.667 8 48 -15.333 52 -70h12
l128 -175l53 -105c7.33301 -15.333 -10.334 -36.666 -53.001 -63.999h-17c-23.333 27.333 -43 39 -59 35l29 -64c-15.333 -19.333 -32.666 -31 -51.999 -35l-47 41c0 66 -17.333 108.667 -52 128l-47 23l-35 6l-23 -35v-99l58 -70l93 -47l12 -11l12 -82
c-16 -97.333 -33.667 -150 -53 -158l-303 6c-58.667 82 -95.667 202.667 -111 362v123l35 128l35 64l70 76c42.667 35.333 95.334 62.666 158.001 81.999zM1330 473.002c19.333 11.333 39.001 -2.33398 59.001 -41.001l-35 -47c-8 -31.333 9.33301 -56.666 52 -75.999l59 6
l23 -29l-6 -41c-101.333 -11.333 -169.333 23.667 -204 105v64c15.333 27.333 32.666 47 51.999 59zM1418 1570v-41l12 -6l46 12l47 64v41l-12 5c-27.333 8 -58.333 -17 -93 -75zM1465 1710c66 11.333 108.667 -8.33105 128 -58.998
c8 -38.667 -7.66699 -83.334 -47 -134.001c-38.667 -42.667 -71.667 -64 -99 -64c-58.667 4 -91.667 31.333 -99 82c7.33301 81.333 46.333 139.666 117 174.999zM1488 607.005l35 -6c0 -12 7.66699 -18 23 -18l-17 -52l76 -6l35 -23l23 -76l-23 -64
c-12 -4 -31.667 7.66699 -59 35l18 46l-29 12c-58.667 -8 -93.667 17.333 -105 76zM1651 1383v-6h35l29 23v18zM1710 753.005c42.667 -12 59.999 -25.668 51.999 -41.001c8 -15.333 -1.66699 -36.666 -29 -63.999c-35.333 -12 -60.666 -0.333008 -75.999 35
c0 46.667 17.667 70 53 70zM1721 1500l47 -53l12 -35c11.333 -54.667 -25.667 -84 -111 -88l-35 -75l-70 5l6 30l58 75v6l-82 -52l-35 29c-4 19.333 0 31 12 35zM1651 1173l24 -0.000976562v-18l17 -17h18l35 58c66 31.333 114.333 14 145 -52
c0 -20 -15.333 -31.667 -46 -35l-41 35l-41 -59c-70 -27.333 -122.333 -7.66602 -157 59.001zM1640 969.003h58l198 -30l-6 -99l-52 6l-6 -6l-6 47l-35 12l-6 -35l-46 -6l-18 6v40h-35l-6 -46l-64 11l12 94zM53.001 1062v-152l11 -17v-59l12 -11l12 -82l11 -6v-29l82 -181
l117 -152l58 -58l128 -99c144 -85.333 295.667 -136 455 -152l199 6c66 12 147.667 33.333 245 64v12l64 17l123 76l163 146l117 163c66 148 102.667 274.667 110 380c12 140 -9.33301 282 -64 426l-99 181c-186.667 256.667 -437.667 392.667 -753 408l-157 -6l-204 -47
c-190.667 -66 -350.334 -188.333 -479.001 -367c-85.333 -136 -135.666 -289.667 -150.999 -461zM1144 1990c159.333 -23.333 303 -78 431 -164l175 -151c78 -90 140.333 -189.333 187 -298c4 -35.333 17.667 -78 41 -128c78 -311.333 13.667 -607 -193 -887
c-198 -222 -429.333 -342.667 -694 -362c-120.667 -4 -216 2 -286 18c-466.667 120 -731 419.333 -793 898c-4 120.667 1.66699 216 17 286c116.667 447.333 398.667 710 846 788h269z" />
  </font>
</defs>
</svg>
